<mxfile host="65bd71144e">
    <diagram id="rbVfhfQa9lamvCR6Azcu" name="ページ1">
        <mxGraphModel dx="1067" dy="2084" grid="1" gridSize="10" guides="1" tooltips="1" connect="1" arrows="1" fold="1" page="1" pageScale="1" pageWidth="827" pageHeight="1169" math="0" shadow="0">
            <root>
                <mxCell id="0"/>
                <mxCell id="1" parent="0"/>
                <mxCell id="6" style="edgeStyle=none;html=1;dashed=1;" parent="1" source="3" edge="1" target="4">
                    <mxGeometry relative="1" as="geometry">
                        <mxPoint x="140" y="170" as="targetPoint"/>
                    </mxGeometry>
                </mxCell>
                <mxCell id="7" value="git push" style="edgeLabel;html=1;align=center;verticalAlign=middle;resizable=0;points=[];" parent="6" vertex="1" connectable="0">
                    <mxGeometry x="0.2526" y="3" relative="1" as="geometry">
                        <mxPoint as="offset"/>
                    </mxGeometry>
                </mxCell>
                <mxCell id="3" value="&lt;h3&gt;resas-chart アプリケーション&lt;/h3&gt;" style="rounded=1;whiteSpace=wrap;html=1;align=center;labelPosition=center;verticalLabelPosition=top;verticalAlign=bottom;spacing=-8;" parent="1" vertex="1">
                    <mxGeometry x="14" y="310" width="266" height="120" as="geometry"/>
                </mxCell>
                <mxCell id="8" style="edgeStyle=none;html=1;entryX=0;entryY=0.5;entryDx=0;entryDy=0;dashed=1;fontSize=13;" parent="1" source="4" target="5" edge="1">
                    <mxGeometry relative="1" as="geometry"/>
                </mxCell>
                <mxCell id="9" value="mainブランチにマージ&lt;br style=&quot;font-size: 10px;&quot;&gt;されるとデプロイ" style="edgeLabel;html=1;align=center;verticalAlign=middle;resizable=0;points=[];fontSize=10;" parent="8" vertex="1" connectable="0">
                    <mxGeometry x="-0.2325" y="2" relative="1" as="geometry">
                        <mxPoint as="offset"/>
                    </mxGeometry>
                </mxCell>
                <mxCell id="11" style="edgeStyle=orthogonalEdgeStyle;html=1;entryX=0;entryY=0.75;entryDx=0;entryDy=0;dashed=1;fontSize=10;" parent="1" source="4" target="10" edge="1">
                    <mxGeometry relative="1" as="geometry"/>
                </mxCell>
                <mxCell id="4" value="&lt;h3&gt;リモートリポジトリ&lt;/h3&gt;" style="dashed=0;outlineConnect=0;html=1;align=center;labelPosition=center;verticalLabelPosition=bottom;verticalAlign=top;shape=mxgraph.weblogos.github;spacing=-12;" parent="1" vertex="1">
                    <mxGeometry x="110" y="67.5" width="75" height="75" as="geometry"/>
                </mxCell>
                <mxCell id="5" value="デプロイ先： https://resas-chart-gilt.vercel.app/" style="shape=image;verticalLabelPosition=bottom;labelBackgroundColor=default;verticalAlign=top;aspect=fixed;imageAspect=0;image=https://raw.githubusercontent.com/DataDog/integrations-extras/master/vercel/images/logo-full-black.png;fontStyle=1;fontSize=13;spacing=2;" parent="1" vertex="1">
                    <mxGeometry x="460" y="70" width="322.23" height="72.5" as="geometry"/>
                </mxCell>
                <mxCell id="10" value="&lt;h4&gt;GithubActions&lt;/h4&gt;" style="rounded=1;whiteSpace=wrap;html=1;fontSize=10;align=center;labelPosition=center;verticalLabelPosition=top;verticalAlign=bottom;spacing=-8;" parent="1" vertex="1">
                    <mxGeometry x="185" y="-60" width="125" height="100" as="geometry"/>
                </mxCell>
                <mxCell id="12" value="&lt;font style=&quot;font-size: 8px;&quot;&gt;PR作成をトリガーに、&lt;br&gt;compareブランチで&lt;br&gt;lint, build, test実行&lt;/font&gt;" style="rounded=0;whiteSpace=wrap;html=1;fontSize=10;" parent="1" vertex="1">
                    <mxGeometry x="202.5" y="-40" width="90" height="60" as="geometry"/>
                </mxCell>
                <mxCell id="20" style="edgeStyle=none;html=1;exitX=1;exitY=0.75;exitDx=0;exitDy=0;" parent="1" source="18" edge="1">
                    <mxGeometry relative="1" as="geometry">
                        <mxPoint x="490" y="383" as="targetPoint"/>
                    </mxGeometry>
                </mxCell>
                <mxCell id="18" value="Next.js 14.0.3&#10;(Static Exports)" style="shape=image;verticalLabelPosition=middle;labelBackgroundColor=default;verticalAlign=middle;aspect=fixed;imageAspect=0;image=https://static-00.iconduck.com/assets.00/next-js-icon-512x512-zuauazrk.png;labelPosition=right;align=left;spacing=4;spacingBottom=0;spacingTop=-33;" parent="1" vertex="1">
                    <mxGeometry x="90" y="330" width="70" height="70" as="geometry"/>
                </mxCell>
                <mxCell id="19" value="" style="shape=image;verticalLabelPosition=bottom;labelBackgroundColor=default;verticalAlign=top;aspect=fixed;imageAspect=0;image=data:image/png,iVBORw0KGgoAAAANSUhEUgAAAg0AAAD3CAYAAACejmfCAAABWmlDQ1BJQ0MgUHJvZmlsZQAAKJFtkL9LAnEYxh/zQijRhsaGo0FKNOoskjZzEEFCrOjXdJ6nBuf15e76tQQtTc3NTUFrSK4hBA0tEf2gf0BoDW6o7Hq/Wp1WX3h5Pt+Hh5eXB+gRZMY0AUBFt4xcalZcXlkVfQ344aUZRlRWTJbIZjMUwbd2P/seHq63Ub5rrfERvNEPTusTgfB1+q76N9/1+gqqqZC+04QVZliAZ4Q4u20xzjvEgwYdRXzIudTmY875NldbmYVckviKeEApywXiR+JIvsMvdXBF21S+buDX+1V9cZ40QDMECdNIIYM4pjBO3fyfnWxlk9gAwy4MrKOEMiyISJDDoEElTkOHgjFEiCXaJiHGO/7dnevtF4GZEMGe681tAefUS/DZ9UKv9D8D6pdMNuSfRj22YBZjUpv7a0DvkeO8LAG+UaD54DhvNcdpngDeJ+DC/gQEr2NdVO6MsQAAAFZlWElmTU0AKgAAAAgAAYdpAAQAAAABAAAAGgAAAAAAA5KGAAcAAAASAAAARKACAAQAAAABAAACDaADAAQAAAABAAAA9wAAAABBU0NJSQAAAFNjcmVlbnNob3R+IOHIAAAB1mlUWHRYTUw6Y29tLmFkb2JlLnhtcAAAAAAAPHg6eG1wbWV0YSB4bWxuczp4PSJhZG9iZTpuczptZXRhLyIgeDp4bXB0az0iWE1QIENvcmUgNi4wLjAiPgogICA8cmRmOlJERiB4bWxuczpyZGY9Imh0dHA6Ly93d3cudzMub3JnLzE5OTkvMDIvMjItcmRmLXN5bnRheC1ucyMiPgogICAgICA8cmRmOkRlc2NyaXB0aW9uIHJkZjphYm91dD0iIgogICAgICAgICAgICB4bWxuczpleGlmPSJodHRwOi8vbnMuYWRvYmUuY29tL2V4aWYvMS4wLyI+CiAgICAgICAgIDxleGlmOlBpeGVsWURpbWVuc2lvbj4yNDc8L2V4aWY6UGl4ZWxZRGltZW5zaW9uPgogICAgICAgICA8ZXhpZjpQaXhlbFhEaW1lbnNpb24+NTI1PC9leGlmOlBpeGVsWERpbWVuc2lvbj4KICAgICAgICAgPGV4aWY6VXNlckNvbW1lbnQ+U2NyZWVuc2hvdDwvZXhpZjpVc2VyQ29tbWVudD4KICAgICAgPC9yZGY6RGVzY3JpcHRpb24+CiAgIDwvcmRmOlJERj4KPC94OnhtcG1ldGE+CgBIvbkAAEAASURBVHgB7L15kF/Xded3gN73vRtooLFvJEiCpERKXLSYkkxaiizJtuRdtsua2IkzqfEkHqdmqiaucaY8TjJT5T9mkrgmqYnGW+KpcaTxImujKO4rQIAgABJroxuN3ve9G8j3c97vdL/+4ffrBdvQVb8LvH6/995dzz3bPffcezfV1NRct6xQVFRkXJs2bfIv168nUXi3efNm4/natWv+fWFhwe8Rl/eLi4v+PSvbdT+SF1dJSYnnQxlRh1yZUK+ysjKbm5sz4uYL1J08yYt41PVWQgFO64NeAU4FOBXorsCfCnw8Nx/4uybvinM1A6HPBbMvLi72OwKWZwRvhIhDo/k+Pz9/y4I48qYc8qWM1RSGiL+eO/lQx9LSUm/HrSoNBTitB+rmfRi4UsCn/DAr4FN+2KS/FOCUhkb+3wU45YdN+ksBTmlo5P8dcCpOKwHZ0RGyROTOSCEEecRDieAbGiTxEPKr5Rfp1rqTB8JlLc10rXyyv1NXAspClHGrigP5FeAEFNYOBTitDSNiFOBUgFOBP+XHgQIfzw+b9Jc7Bafi8vLydDk5f+dTBuI9CgVC/nYF8qXBCPRo+O3Km/xQcJjOiHJuV94Bj+z84n0BTglkAh4FOGVDYOVzAU4r4ZHvqQCnfJBZ+b4Ap5XwyPdUgFM+yCTvi2dnZ1eNEQBE4GFZSIcQ7OEfcLsEfGjZlM11u/KNupM/CgkXCsTtCAU4rQ+KBTgV4FSgu9VxoMCfVodPfC3AKSCx+v12w6l4NaFJYVww+lzTDyF4+U4IJWL1Jqz9lXzIE+sFPgi3U2mINtGe2zX9EXkW4LR63xbgtDp84msBTgGJ1e8FOK0On/hagFNAYvV7AU6rwye+5pxTQPiF02MoBOnRAUI8BDnvCcQnLoBHIMf3KGgjd9Ii0MOPIl3eRvLJjhvt4v2t1pE8Ij/aXIATEMkdCnDKDZfstwU4ZUMk93MBTrnhkv22AKdsiOR+LsApN1yy3wacVigNvIwPMRURUw8I8LAshBAnTrxDcKb9GuJ9dsHreQ6FgzzIl2eE/K2GqOOtWi8KcFpfTxTgVIATECjQ3frwoACnApz+Lsg7VxqCuVPhbGUBgc17LhQIAvFDkMcUAkIdIU96LuKH4kBcro2EyJ/lkfwmr43mkS4v2nAreRXglIZo/t8FOOWHTfpLAU5paOT/XYBTftikvxTglIZG/t8FOOWHTfpLPji50oCQDytBWBYQrlwIW76jFHDxTGbxnXTZCgLfSYN1gniM7G/GUkBa0kV+obSkG7be36E03IqVoQCn9UG7AKcCnAICBboLSKx+L8BpdfjE1wKcAhKr3+8knIpqa2t/hwIYySOg0yP6ENZ8R2CHEhFKQ8RFSBB4JoRCwXPkEUqJR9jAH/Ii/yiT5+xA/cg/6p/re9SROLnyyE6Tfibv8K+gTVFO5BNtLMCpAKc03uT7XcCnfJBZ+b4Ap5XwyPdUgFM+yKx8X4DTSnjke1oLTsUIPgRhXOmMEIIIW74RL4RkOg4ClHhxEZdA3BDQIfS5c4U1I51Pvt9Rv0gb+eeLn+t9lB+KT6442e9QBKL9fIt6FOC0ElIFON2oxK6EUPJUgFMBTrnwgncF/pQPMivfF+C0Eh75nu40nIrzCfBgctxDaciuZCgRfKeiXNlCPdKSD98RxGgyvI8rO9/sZ5SPqA/pKTfKzo6b/RxlhtDP/p7rORQg7tH+sC5kx496Rbxc9Yp3tLcApwI+gQcFfMqmpMRhMmgv6KkApwKcgECBj69P6b4rcIKB5QppgZkvTqSLEXwQfLyPewhs/AmIC0NAceCikTyvFiI9cYi/3hDlkD7quFpa6k/+YZ4hbtQ5HwwKcCpxkBbgdCNmFfCpQHc3YsXymwJ/WobFar8KcFoNOsvf7haclk+fWi7bhXgI5/UIW5IyIkA4I3CpfL5APE6jRMgQ8BUgTQjffOlidEa9iLueEHmSNp/QJx/qm60sRB1pE1euEOn4VoBTAU6BI4EXaeWzgE8BneV7AU7LlswCf1rGi+xfBT7+wZJ3K/ZpiM5CgELQawnbiM8dZYDOhVHymytfQAjznTvlkIYLwZtP+BKX+nCnnHjOV0bkSzmrEWTUOeqNMhPl5Ms73hfgtL5lsAU4FeAUNBP3At0lfK/AnxK+HniRfS/w8Q+evCvSwU2/k+4oOik2cgrBnv4OsRMHoc2VHfhGnNUEdaSJ9JEX6ULAxLeIG3feE4cQZQQDCgKkDsThfa42RB1DWSEvlJWIm69s4kUgjwKcbuz/gE/cC3DKTScBn7h/0OCErbC4SIKtSE7OeuAqwSKou17b731un/23j2+3a6LH032TeApbkeitlAGA0th1TXvqHd8jFOguGcAAhwJ/+rvPx5EfpaWJpTzp02RBQGVlhf0Pv/3r9m//8PetrrbWXn7lqMuiRL4lcYo2Mw2+bDXPJ3M+iPJuhaWBhgMIApUNoRxEv9ad+Fxpglgtza7yMquUcO+ZnbNRCW0ldODCfLhCCVgCqOp0XfmLZ/n364pDeTynL9LC4FwJ0HeYF98JaYLlt7czY42IcjAG7VDdKsT8umbmbDzLanK34US9qVvAI+ALEoZiBByi/t4m2q0QcfieHfgWFpZ0euIFnMqLS2x/dZPNLM5b5+SITWUsRNl55Xq+HXBqKKuy7XWtNjo9YWcHu3MVs+Ld7YTTZuFHe0ObbWvcYr3jA3Z1uN/xLeBMwQEnYMnvdPnpeCsqmfVwO+BE/wVegCdrhXQ9nfkVb7ZyTRVWlJbZdaVHOagt114r0hAQ/MWbNlt1RanVlRXb9toSO7K1xiqV5jP76m12dsH6xmdtdFbWw01FNr+g8q8V2dziNRuaTpZqCzg2d13wESUuSI9Il/93BU4B36CpoMeoP/egs4gTz+n+WA/dlZQU2dat5dbSUmYXL05YX9/0En2n84rfpaWb7dChJsfBCxdGbXo6ofd0nSJu3MsrSmx7R6uVqk9Pney22Zlkypg63wo+3U043Q26gz59k0Fhb1VVpZRiDVpFH81NDVZbWy1YoRgnU/MtzY22a9d2e/rpT1h9Q6390le/ZP39A+q/QRsYGLLpmVkNUBddfpHJyMiY6GfO+fTI6KjN+tT9whKfCfy5VXy6nXBaoTQEMseoO5BrI3caGfmshrDk+ds7tlm9hPt3R0bt5dFxF+wOHHUSd6kILvDplGs+cklqwjcQ87reLTiDk5IgjW9BmtvitUXvVL7PzwN8HPWUD3lm8t0kBkigrsS368tgkOi1UsX7tW2tVqf8/rR30J4bHnck0aQN2ahuRa5hwjTGmFLx3Db2ZyNwSucMTOkfh1MGDkGk5MlFnIiHQEhgBWIvBwiBPLhHGr7G+8j/ntpm+0f7HreR+Rn7Rvdp65oeM6VyeGT+ZDLVOwIAygTghDVmUcIDOC/XIOKiJy5vDraoupMnWagJXr9P7/mQPd5x2AZnxu3rx79tE7PTDv+IlxSlBEvF8jvzoNtm9fUmScDNEHqmAuBV0mYvTnWQ8qV6oJBSh82KX6x6C+nsc0eesg/vOWJ/+fb37F//7b9zuFJmNpx4Bz5wAfuNBGBNP90tuou6VZYVmV+lRVYrAUKbNqkus/Mc5nbdRqaTw+La60rtPikJe5oq7GBrlc3p+8neCeuoK7OG8mL75YfbrH9yzo5fmbQrkwv29pUxuzox611SWaLRmJSLMtESyjygGZyaUxkLop1lRTfqtNr9PxecqFPQU9AFNHUn6a6xsdS+9rWd9thjTfbD5wfsb/+mR1ibbPOfwAgc17P+Lixet46OGvt7XzvieP6Nb5yzd06O2DXRHQqf8wOPmaTxdKLNXbtb7As/9WGrb6qxf/5P/z977rvvJFnrL/QR8CY9z+sJdxtO1OlO0V25Bo71DfVWXVNlNbU1tii+S/vwT+L3wOCwDQ+PCvbt9tBD99u+vR326KMPOtz6JDdQLmqrqu23/rv/0oYHR+31N47b6TPn7aWX37TunquuPNQp3zopHtVVVdYqhQOYDw6NSOmbtoGhYdFasnjgVvn47YTTkrQMYiDztBDheSOBtHSipj2W8gHQucLeisTS8KmGOisXcx8QgErEsPnHSAcGRr1ID0P3O3mJuUGweuFEQd500OKiOlW/I821ssSzn+/LCoNO7JQAC+2Qb+mA0lihwu+pqtDoapN9vL7GyxhRm0bELFUpL8tNSwubbEr1ZOREfa/OzduwmOF6wkbglCs/0kceIBRXPMc37oQQcOl8or8RVMQjDgG4khffIY5KK7KOylprvVZtP77tkNo3u6w0eBoUsCStEnnfCBpLAgih7f2muImyprh652l027xZKJgp+zp3faP/NSjVzyI71LzTWqsbNLpttd/86JdtYk7l633ghuflyEICsiI9GeuBK3lJQfqvb5jO9TrBSb4r8Io68Z301FUj7Nn5OdvZ1G41FdXWWtOkRMRL0mTD6WaUBS86Uy9+0w9JvXjaWCDteumuWoJ+W1O5LAtFEuabrWdkxq4MT7vwmRUyY1G4f3utlIRyKQuVanup1UuxKBY8Lw3O+HTE0IRGpYJHW3Up4LPWqlL70X2lNiUaeWpHjV0Zm7WjPRN2ZWLB3hud0zIkCaFF3VXPGo2K25TnzEKxTSh+z6R2jM3DIwIKga883y04RdnpO2UHrO8k3UkUWvvWMtu2rcI++2PtEkg1jvfwMcd5h3qC6yJha2mttr176oWfRfYLP3/YLl+edKsPOO0ILjq+Lty+Bp7zWxfCcMcuWRrKy62pqTrdzKU2roePr0iYebhbcLoTdFckBffgvQfculApOTDUP2RXunqcH05Pz1iF5NY99+63j338o/bE4x+yXbs6rKW5waqrq+zSpcv2+itv2eDAsN13+KDt3b1DfSKrRGODff6zn7JPf/IJ+8kff8Z6+/rt+RffsBMnz9gbR4/LOrdgtdXVyrvCaqRA7Nq+zUbGxmxK5XV2d4s2Ex4NHaRD0MVafPx2wmlTTU2NSH9ZWJD5agWEQIl46QbEbxgrI0zCavEeFJB/oqXRtpeVWoPi98pMc3Jq2kfv5MGIH4gjIJxZozxkLt4HAHlXJIYGonrQt2tqB4F0pCd4WuIo21zMGRJkvpbpknKlebqpzmalRbw1PmlX9W5YZqUeXf3qwGndKaNc+beUSmjrTpomjayGhAB9GkWNK+20fgODXGG9cMqVNv3O26jyY+RD24Jo+UafEXhHv4BgBL7FKhZg6YpYJl7gQJkE9BfbD9kv7nrQZq4t2NDcDANwwT7pG2dgyicJgjNMKSN4NwuY1zMmaQd6ph+ciem3WwFciNM/mK5x+sFfRfkp/0WlrS6XBl7d6NNN1HdWCt88VgtFwUrhcSk/6kN6MU6y8GotfVMZXj7KAx+TGnO/rnpuup6MHKkDSuXs4qxdGOiS4jBrU3PT9vXn/6Od673oMMsFp1z4lClh1VsoH0En+fK5HXRXX1Viu9qqrFxCe0RC//LAlNrHaNSsSlaHh3fV2kf2NNg926ptT2OF08LsrOhFEVCyj10et/f7pwRqTTXMX7fDbZXWpjzJY7OiNcrMXVUK7TlLsWtSQBaV7v2hGXt/cMp+0DlqZ6WczAsPyaNWikirLBwNStcr68PVqXmbEt3kCncTTrnKz/XuTtIdaPu5z221f/Tbh2xm6ppNTGHShjYSRYG7/xatlUkJvNw5ZW+82e+C7p5DzbZ/f5NNzzlFeTwUBUHdlQVRmfhAuc1oWumVly5IYF23/+0Pvr00PRFtpX3r4eMRP9/9TsIpH73kq0u8z4VPlZJH+w7utYbGeuvv1ZTC1T6bGJvwJMXi6/fed9A+/ZmP2cMP32f3P3DQysvKbXZqBmHivObEidP2+utvi99rWwGRwL2HD9j+PTttZlpWN8ESxaGhvsEHwOJCnm5BA2WsD++eOmt/9d1n7ZXXjibWTgZvug7s2WUNskb0y/pwpbdXisT4TfHx2wknVxpCYHBndLlaAethXkCZvEA48kIw5coTpQArwwE5jnTIFPSA5osA7ikpDhdknhmWcHMS0Tveu7VAQoa8EICBjHHnffqiDgSmMUKhSOoREsM/+x9l72X1qv1Hx6ck/Ivsy61NtrO81CakJLw7KWan/BFOs7r3ytehU8jQK+vCmBQIbBzzYpC10lJRHnZJQ9WWVBpNLdgFtWdO3zz9cpH+az1wykqS99FhpLIhCC7ajIJAGTzzPd4jpPjORZ/yLS24EjglRWFp+FcPPmM1YjSjGn2PSpBqTOxpgBr/k4CwVo+pvOiTa24y0FdXJjJwR6grDv3pCh3PCoga7zPFxRSLUlBfUSPiKZHSUCLBVq6iNO0ErK9LuVUtXPorLxWYqQ95qj2ujHinkrUCv6kr9aMeSaWxKPCOKZT5azKbi+CnNRXTPXLVuod7JTg32dFLJ+2H775iRWvAyYvZwJ/oF+53iu5oaoNG9a31ZdZSW2bnNPofHJsTTDdZk97vkeB/VIrCQ7vq3KJQJYUCn4SZaaYo5Ceh9s/MLdpbnZPWJYG/SbjvSoMEzWEpIG2VJTaneIu6mEGsU/o6KQOQyqKUB1fr9Bt8QrkYkGLwfNeonRyctk75QYwrb0zoW5RPvZTvPk2JDM0syIcGDEvC3YBTGt830IUe9U7QXUnJZvviF9rtV7+2R2WoT6SkXbsG3gq/RQN+F51Au6PjC/bvv37Gjh0bFM8ttoMHm+wXf+GwNWsqaWExURTIw5UGp7UiqxB/4t2//BfftvfPXBX+LVj35SG9WxmA/Vp8fGWK/E93Ak75S8v/JY1P8EeUhe2yFtRLFvX29NrlC51WLutLg3wW9h3cY489/qg99vEPW3tbq9XL8gwNTGkgyfRPseAzOztjR986YadPn3WeJZKxBVmc7z283w7sltIgWXFd/B+iqK+rky+EfE/0eE08DF8h+Nwm8cn52Xm7ovK///zL9tpbx+3EqfdsbGLC82prbvbyh+T3cLGr23k11omN8PH8EMn9JQ2nNH/yIWgIGQB4K8STLjoEEohC/jG6TcfhG0CbkuDq1kh+QszqXiHz/br2yQTUJaeR87pGVK9ZxYFZYVgL5OMeF/nym/pTdvzmOa502enf5It5tGs2KQ/hvkWna1aKsU5IuNaKMA9Xlds51XEERqjv2+RD0SELCSPfETHMQSEJbRhXGyaFTMcmpq1CCsQWtX2nFCLyHFIcnCpRICKsB04Rd6077QSJAgZ0eih5oTQEvLgTlziRLupyYzkwqkTIlwvBmZsek+IwJymBfcAF8lKipG0B/+Q1zE6BT4msdgJS4jyBfDVqlZJSCkEpHr4Gc4JtmZQ5cAZiFR91qwDeEmSt5nvcPJmueO2KJPBSG5iGmFM/LoqIJ+enrWe0T46XY4635SWlVlVe6dNt2US6IsObeLhTdJcA2qyyXIK4ssjqa0psUoK4s3/R2urL7eOHm+zwjlrbK6HS0SjHRxjWnIS08HYMPwbhuHeNAH91dNbe6ZqwAU0hlEgRQ4mnvzdvTpQHlGj6B5zA72hEzpALKM/qJ/QxfmN5gEmiqGzRNMZPHWy2L0rp6NQUxsXRGTshi0f35Kz8VubV35tsu6Y8elWPSbeC4GCGg3TCQ8DV2xEC18HTfPxpveUE/dxOumtqKrVPfrJF5uoiOccJdlLIEr7hPeMkhyVvUkrYX/91p507NyphJOuQ6KW7a8y++c0z9lNfvs9q66U4CNZAjZT8wskSxRk/sI8/dcguXxp0Z8jN6l8EYTp80OGUrut6f8MTnR8KBrVSFFq3ttnUhKzJU1NWV19nX/jpL9iHP/KQ7Tuwx3ZpeqFczsGLC3OCzaKNjsi/TTjIVB28c3BoyI4dfUeWnu4lXrsCR6O7FP+6lL6h4REfRDfJ4lAmGQNfW5BVE9OpKMY6tm21r37lS/bVL/+EXezssrdPnrIT756xU2fPWU9/v1VImTm4Z7cNa+qib2DQHSepD759gYfRZ+uFR754+fiTLCDJioUoMF8GN/MeRQEtlTJoSHYA6JiKp8RYRBs2rcYfn5yy3YvlxsqKe2R5wALRp9F8pyjnqqwAk8oHgVEiwQHBx5XOm3fRcXHn3XJY/s1IipFOl/LvlKYHuyT/GjGqMt1Fb66w1KLBi3GhxFwRAyagcZK+VSMkrn2VZT5CGpJwGxbxcfUpX6wNVYJBg/LgGtH3AbUpwlpwingbuQNv2pzAGDgn8CKPgAWwCQSL/iFedoi0whR9WnTY15WWS6Ga97YRP8kTuCZChHcO+xVw5206KH5wM/+RlK1qaa69WEpXqTM6Im3aJOLS9EjxtcTfAiIrUX9wofChwITysNS7Sz9UpurhddQ78plVn8yJEWBZ2CQBCMkOz4xZz1i/WxrwbXBLCDDM4FrAixbkglO6ZWv9jr4hT5S32xEA9d72anvigRbrH5nXhf/JNdvSUG7tEihHNP3Qrt+xKmJRyD2tkb5A51MQMB+6gbpRr4sD03amZ9ImhO/FytvBCRz5R1dRIIG7tALeoRxMKM954X69hBM0dF0vyRoFgvz5TWa7ZPnYVVNmj7XV2LBM5V2yPJyTIsE0RaXoT7qGbdP0B+b0t2TlGJRCcjvDB5nuOjoqbVtHhfMmYFZcIiVfQgdUcXALrkVSGl58sdfe0rQEUxcJTiY0/fbbfVZbd86+8jNHJMykFIpl4TOE2lcsa5DTpvK953C7l9HQUC2lThavLKUBeH+Q4bRRfGhsabJPyadgRpbsznOXpAgs2NaOduvYud3ufeBe27t/tzU2NUrhLnUlekF8emp+Et3YEZcbyjMy4sL5S3b82Ds2NDiivkh4F/UJfuFIrmfnO+A8mKx0E5OTtiBZ09jQaFWV5U5Pzgeuy3JAP4H4+r9j+1bb2b7Vnv74x2xIiwW65Dz5+tsn5IA5ZJevXLWtLa3WIYWnrqrG/uoHP7DLPT1LcvZO8icpXYlpGsS43QFAcNEAynFETRWCHwIjFEoeE7LWKc6C4p/XiH9anOxgRbnVSNhWSqNo16h+RJh/HuEu5QHrRJlMbQjtXCHKCkKKDkziJmnoZvryvMxHV9zJMalPifJskBKA0KA+jGgRX+VKsFfIVKR3l5QGRIIPonSQI/FRDiqFQDsy7ZpeKJevxrz1CPlwkpxRvWlLmeKimJD2vKY5VoNTUueN/w3mT0pH3BxZhLKAYpcvBAKSh4/w1Qb6rmZTmbd5WqP0gC9x9P+Gvs6Xd/KeXiBoukTCG1NddakcUQXD+OJfmZJQWUXqd0XxwPQG/iRKJTzSFIOoLhlXJd9VEQkz8tG0kpScWfUD/gqYzpFwmzfJgVRxukd6rG9yyPNN2pApIJPNeuCUibquGzClnNtJd7USsF9+qsO+8OR2MaYFOysfhHqcGOU3UC7BgZILQBn5z2gU78Clv/hBpylI9rgSceLyhF3om3LhXyI8dfMqEcjD06yED58ImWyklF23AfGUevkr4FiM4gDII/AThRwCQvg1V0jxVtwHmqpsTKbyKdVvQle76o4/BT5EL2r+mOJvV4DmPoh0BwwPHqixVi23nJhUP+kFg6sSKQ7uwK3nCi2HffHFPvvBs1cFDu2PoSkh8Ak8JS7Wo+ef75TXf4V8Iw5KYVMswa5Ijq+bUOKUitVlLW21dv+RDnvlhbOay6+y3qujN4D3gwqnGyq6jhef+9kv2S/8N79qMxqcXnr/nNXI+bBRToxVmiIvEQ90eSLZM53xVeAZuCbEgrVMarh40LG337XjuhaFl/BOogAnD/od9K3O8//J+yQv+Nvswrz1aSlmgywd9bV1rnCz1JmQ5IWypmenj82+smJLS4s9fPheG9VKwxFdExNTtmPrFvFJWWXlQPkHX/+6p78df6L+ufhT4iHnFQUwa4cEgCkArZEk4q8RTWb/RWsV0OVHJdZv1imhPKl3H1KnlokIEAxtErZbdB2WYHhfXqUXhfQTIhJWXPA9HSh3qRPTHzK/EZEoKyflq3BVTIoyEPqUTX61QgRIi1yZGim/Ls1eD2UaTh2Udkh51AGkCuUjXR6smDKqJBwOygJxr6Y3ppVPv8o6LR+Hj9ZV289vaVKHb7LfPX/F3lZ771QIWOTqi3iXrnv+ejBHjU+BoCT6UNXdz6FIPivjEsgwIwAWtJMzH+gKoHKP30sRBX8lri+rsHL5MXg+xFVIkmjEJCsB/g3JG74oExEhlgGcNktknp0TnFEgPKh/pnFm1DUjywKd5XOIqnzR5hKNtDW6Hey04alRmQvlM5ER5kni5b/AKeC4/PbWfwX818op4q3WT+BSrXwDKuTUWC5CKiuuc6bmcBY4EDgCjeAF4JOgZvlnnlgaOTG1YK+dH7Fu+RyUCBbQBBH8tpxMrxj/3xjAe8cBfWcpYL+mNeo0P18rZ73NKtd7ZUU+SR5Uib4nz1rFr1TZraXCNzHpWUk89kwBB9YK64FTOo+In353u36TN/2Vq4x4l6s/y8o220c+2uBWBeASsBdIXMHi+7unRuzP//yS92mxLDrZgZHvJvX3X/zHk7I4VMjTf4/8FoTzgi0Kheep74SPPL7Pvv+dk7ZjZ3NOpYE4UV9+3+5ws3DaaD2g7Wr5FJRJwFbLio2gXRBfcFgIX5l+BCTwNXAtG9+A85wGra+//JadOf2epko1gBSck5DAcr11os0oBf0DA5oanNfqiybnPdnTQ6qW0wVEiJcPVozq6kpZQuST0qqVfpo6oU74YMD7cgn59dYpV7xc/V6Mk2LM8cR8eK7EN/MuRq9ov+Gln87H50HhYuqlGQFwSBaENs2zwdToin4B8wXN3RyRFsjqCpgKXYNFAmVin5SKixrFX1YbRvWbNM60UoXECHGZNSI3NBeoct+T0L+q9FgWwioHU0MhqBaCUTXmvjHr4ZiFBUH05qXsyygOF9iswxmDXufAG16xAoNRLaPhbVoG2iYrxi6lb1ZbQYS9UiiOS2nIBydK3EiIjgb+EAqMKZhTEGjkxzPlhok84sV37vGN3/RAqUb6cxr10yb6qrKkTIRXpOkKLCZAkHITktPnJBD3BjLMfNN7r6Me2UyqukRmWQfmyt4kR3AAa0LpplKKSQURlTNDWYQ0rYGH/sT8lJSBcdVV1ge1EwGII6W3UXEHp4atc6jH/RhKVa7XmCbpXwKn5ewDbgGLXHBajr32L/K7nXRXqZFno/ZNOHlxzJ58QNxE7cfhEQUYxRYVOBk1gQtJ/WinPzhsrvvSy6PnR21wPEkHJHxkS3wl8mWpikvwPDL5+Av/o2/q5wS+8VG+PFKU56VA4CAJWiTTFfE9yYxRMH4/U4qHYyXz91iDWGHRJcVjQCsBWmXl65vWGvlowHLBN/VrLf600UzpU8Kt0l1VVZkdPFSljYAY1kAb9ATwkoVBVtcL5yfsj//4rE3KQlkpZYxppmv0MSNlXTj1kgYaLBWv+eY3T8mpr8oeOLLNLQ7kJARRdpt9RP3gh3ba1vYGGxudtqrqcpuc0IqAVPigwilVxTV/lmoLgN2H9trRF1+3Z778eVmvy7V3wqBP6+B0isBl2sE1COXmXSlAwc1crgiWo5oiePPVY9Z1qcsVhujvKBxeSwD/l2VpAu0llM384C3cjUf3c5A/DxtDMSBK+jqJoSj8d9rDuXJKq9dmJXNmJbd4Znkm92On3vXVGVfl9zAjS/2d5E/FITCCieElebsCTJGQb/UEDUsaJ+Dp36CEf6PSyJLqgEKYT0qZeEtmmP0SstvV8TA+VikASKwBR+TotWux2HoEuMsxBZDRABh5gfCYk2B+dBJMi9UOZ6Uw4JhIGeQVAaHECMsVBCdU1UX9h7UBawTl09HMn++Ss2ap3uHnMKUyE5RJcqLLCX5XAZTDqooaISb+EVggWB2Cv0aXpkZYqtmnOt2OzgZ5A/aBvMCBPg4lgvchAPnGe7TUZSUrqb+3IfrJG4O2i/BF2dALGq3vlSK6IjGhca3FBzZJSEM23mU++W3lO5hcjY/2E4uDA554EvDAPFn1wJJ/9Zv+JeZ2lUExukSqGt3iya86qI7M89ZUVCWEds3tI4pGXlr9Mt4vh8d+KXzy0VDdeUfbPSulpV2UGfTBfS04eZPW+YfygP/toLu66hLb1lIpZrFoD+yt0z4LjDjULhESKyBYugqsMmASLgKuhB7Y8RF6Yiri5OUxm9CqCdLRhT63CmiX8EbvBAdPrfyWmRuwyvQl/QT8FFAOCOh248JxfBoaZAWBZhYVBWU7UQKlKGgOEGdU4rjeqW+gFs9tEowNmofv1zTJNllSrspJMu1MTBk3E4JG8vGnjeQZMIo8b4XuPvfZNo0cizK7OiawhNYwsI3KMfVvv9NtA/0zWvKHKpj0JeAHR6FjLGkLMn/zpVSj40kpgd//zlnt+1BvzW11PuXk9nDFoN8qtC/Hvfdtt6NvXpRyUX2D0hBt+qDBab39UyGrQvvODrt6ucd+9Cc/b3Va+nhdsqZUVus58W74y+ImbdIH3xQvLBWeMTUKn8MJF3K40nXF3tJyyGHtvwA8kl5ZWQNgTwi+qowzfCShA775LzorQz1EINm4nDAXehesuaHJqjVIhnYWRDPuKCkZgSLA6ooFnINFJ0m6ZNfkIvXxgV277fS5C7Zv504719kpB9kpirvpsBp/8lYGYwzED6K/2RJJH4hG3ksMZZUM6QTM96yUSHcIwlaDDFkF5uysOnheHAVLAGCH4TDqqBGR3CMB/lh1hX1YKy92aDQvMSDrAB7xYj6ODFJGxKxwQjyj6QEUBphZuiyqR56N6gR8DryDealfvMfsHW3RowvHLbIWHJBCUy1lIEZAsFVGyrL2ym9hs22VlywKxh5dW1Q3/DQomOkXLB4oDjWqY4sUh5sNwByhlnY8RQkI5kU/QPTpO2URh4t20WdslxrIn6suibDBGqPGAbwMkBBBZeoHHCRLZHWgHFVJ1zIUl/OLd3EHYprKKUYJS+awefa+IYr/4A1BBK66ojgw8vV+UFlzUlampSwwBeF+DWKyKDYVWoHRoCWjXJWq24zMkef6Ou2yllQuiPhQIqgrFzDg8t0rdY93lLpROJFmrUD+oTgA85uhuzqtNNi1RXPRQ9O2d3uNPS4nSAKCn1Gomsd/hUTJm5cSMa2VEjMQlcKUFI1jF0ftRKe2sxVDQokgABfqxE6a3IGLwwkY8S/go7j8jsDveI48yA3ag4b6JfC7J9gRUvSpurD19JiY47SUPVcYor9VDfxmCGWq05NSisYVH+6wtbLUlfAoc6P3m+FP+cq43XTH1MOTH2t02okygSdm8NmZa/baa4OyCMy7xWHJzyQT0ftHOJXQnbN29Zksg7LWTAvur756yaa0H4aPqCUog3jn1Aef+NRhmbkXpKyU+EoKsvwgwynT5DVv5RLAKAxjWrXQvKXFnvnKF3zgCK8rr6x0XKadoB20OK9BM7sxcgFPHCbf1nLKV1543ca1ZwM7xYLX6QC8g2cG7qe/r/idopX0e5bKMhTrl5Pjxcvd6qcZ39hpeES7TsrCMcmSf8msJCR9i6Uenl+swdEnH/2IpltkJZKycP+BA/LRqFyqU7qcjfzOx59WHFjlTCLDIPI1nkoCZDLMF4d8Ym1vCK1clUX471NDYSg+clDPySLp0w/wLsrBic2nMZTBsIQeSxoZlZdST72Li/xRMBqkGbZLMCOcGV1hVWAkRVmDQoozMumxJJL5VfLPDox+9soHgd0q04GYCEasECBNIBpxUBjqVCfKwkETB8dWKRNb9Y5VFdVSHMJnAgaKiKTNeJbXCHnZNOqN0QnfJIpvOEtuJABviCDdN8CdPuId36O/eI4+4T19GN9oE+/iog58r5PgfWbLfs0rJ9MptCHaD/z1wB//z+i+RI45uDQuSMFzmwTficLY0aP6H8/D89H3EuVdWwqiJ3kTO9nDgbR6p3qR3rOSssAeDUw5IPjn5E/BPfDRVz6oHknkJJ8SVmJImRmZ0lKlqSFP42WrfV6W8nJ46AGhmHzD4bPI+seH7HzfpSXlim8BI+6EKNsfNvgn8iKPfPmk+zbilEsYoDBcGZjRkspF+4c/c9D2aGMm+hPCQLGb0dRAWNmAnQrwb2XC2T7tBPlHz122V94b8SkBRlfkiR+Bt5EEHl04IpohabxnCoHdINkUyp1KaXMmrt/1W9k4g8ayMC2F5LyWV77RM27fvTTiyylbJfxRrEWeypjkgju/CbpD4/ABvrfISXJAwu3MuASmuhZFgqmMiJ4kSqYGqGPgdLxP34H3evhTOk2u3+Rzu+nuiccb7Sd/sl0Ou+ACpTIYEK9Qv7wqheHECfneCOZMxU0IFljfaK8DMFPJBP8T2kbBbmiotOaWKhvUBlvTOgvkwME2pRFPcMVBafW/vqHGjr5+wfdrGB9DQCXLsT+ocFoP3UEz23bt0Ah9zvq18uA3f++f2IH77/FVEQKb992slILrDB4Ew7gAY5mUg1EpGn/xZ9+w7/z19yW0J4TLm6WsaVAkXqvIDm3+kg6lDroMvON3i1ZqNGmjKHdoDETN3FWa50de5bKgs5fD6ffO2Yuvvmnf+NZ3rVOWjT07OtwKyoAlqRtlqMBMHqTFMsJjg3w1RkZG7Pk33nBFn5UVY1pGGiF4Rjxv5J7Nn1YoDVQMIqCAfIXkYl7pCiQAXN3cHfHTSgPz/piD5lQ2QpclVwmgpAUCqcyFgL0q0xvTGFWKA8YncEwYCL8R65xpwf4I2zRyRnk4I83tJU1ziMrEcBLBH/VI3yn/fjmadKgjw3IQ3xHlMDGf0nCkSRQAykRxYGfLatUJX4VmKQwsC0WwJSHuPGHOTzx1QcQ6ZfrD4THfw2G75m2Z6si1EVQmI78BGzqT/ogLhAXBAnGDqQE/FAUC/RsKRaQnfqQhbrynDALWg6fb9t2oNOg7ygF9sKwQACMRV5GWLEkgYBny756VXnD3fCHSRDjxsk4KQxn2V32LctNKw2YJfDXX+2RKeykM6QArLAplUjbIk7iOL8qePl5K69ghAaNdHUdnJiTktC1ynZyOFGd8ZkrCcn4JfvQjo2EnaOUHTFAa+sYG5fvAVq6JIgaMcsGJ8nm/0UC6jdIdytW21kr3xcHK8NgDzfbrX9zvqxy8DqoH+yIwekcAOfhpn54r5CT5vpZSfv3Zy3b+qpaTKa9+mbD75QMxKkdIdLsK4S+4LgwWvoAfCVxQ4MmfDaDatOdClYS5Kw3ebjoCZUUCX/QQjpCvXpmwl3QuxVuaArmiMyro9/e0hHJSgokll+XSHEBPKNmz0R+HifJJ+kS+LqoMKyle1u6SpGtTuayoyJ6muJ38KVc/Uq+gjztBd0891Wyf+GSDpiESQUYdKjTddPztUXtBZ1C4kqA+qNS7cW3Rjbma/nPAZyqc4FOizNFf2zpqtSdDwiu7tbEWjpCcO8EADXjzXNdYbZ0XBuz90z1OD9OySNBOruApmezXdbvTcIp+pjKUlYvuGlqbrU4rIzrPnreHnnjUvvoP/ytvD4opEPP9P9T2aY3OaadDUQCp0XkR/Vd77Y/+7Z/Y22+e8Pb29fTbFS1zHJIlYF48A58IrLLsdeHgVyzqEPXgnktpgLeUSiHhJExWXlxRvmzm9Jff+r49+8Krdu5Sp09FHH/3tF3o7LKD+/a4QhD82ylCedPnpfIlc6rRM/vZtLe12XdffNHOX75s7VIaUEbGtLwT+BDywck/rvKHdGn+tEJpIJ0DL9MJAYB0ftFZIWTS3yI9BfB9uaHZsZLnXEoDFURrq3UzEExupUWDNL5RkrgMO0riG+B+Bs5elssRj1MHSphLiG+TMMf0Xy5swRowo3TpA4wiFWoHhPRh7cnO1tCMlFeGBPjUweupjmN+GIsBlgSWWzYrHeXO6E8yQ74yB55gxvhMwDwpo0qCaViM8JRMULSlCS1X9VQ2OQNlR0fGSCBtPidRAsdlKwN9Qd+G0sAzcUgPjLkI9HnAnLhcNRqlP922V4oAFgRqpQZQB/0iVSKSknf+ElGj7zg1EnuBPiQy0oi7viV5JOmrhfxVUkziHXDx/LnrP+9xZhzX1MLY7KTM2pxVgLoi5Uvp2JTG8/R8ic8zl/LXu4m5CV0zPp1EKhSGWp0nUVdR58THUkxvs1LSfuACrPgN00VpuDzUs6Q0UEIuOPH+ZsNG6a5Jexw01JZal46lZkrhd//eEWvWxk3JFs6Cuv7TQ7BCrA2YsnHEBZxHtRHQX7zULSVBjnQSvoCtRIIbmpjTXgDDEkY9EupjEhwoBG4VwyQguAEb8uJQqzbVoVrpE4VCjEydTH9f1Qj4uA60el7bRr8kP4lOzcMj6FFEykUfBBhtjxSIPikpW+WnUC2hhpJOemruK6IUSa+8H6W3WLOmWwblHPieFBymCrE+MGUBrUe4nfwp8ow7beeCJu4E3bW2ltiv/Mp2tySI/DNlFdm5s1P27W9fdQUxvPWL5bwHbmJtAEDUKx28n9QfLdrxs16rJ1wZ9vpvts7OYZ07UW6tWm6JwqDEwhfBWvd3jndJiMpHS31DO6GLtfh4ulx+32k4ZfOn7PJ5rqrRVuj3HLSLZ846Xv/yb/2G7bvngJuyaS7QAls52npW/gLs1+D+DOKH5868Z//3//FHdv79Cy7cgbnDXcjItMGQDqq60t2raaIxn/IFF5hegCdEQNFmRQSWBqx07gcG0ivK1b4+e1XbTX/7e8/bt599wc6cvWDjEu5YN6gDSF+qlRk9vf12/uIld3Bs0Z4OBGiPJZvF4sUsEU1akkytNNU12LDq9Mrbx2RlGJd/RKNv/sRgh768lZDmTyuUBhrtjFKVoePpnOywGlGShu8UgBBLAzE7H57TSgNTrACM9IyJESEaQ96QB2UQD8dE3yBJz7ViaOSVK8BQYEWN6lTOujioaYd61W9KVDkltFnUb4iF1LQW4f+hWp1qRj0ySBBCkTh0Psu/KpSuXHGJL13TmXNAK6ZOBAEn1pX10vGqytt9ArxUze2qLU1ipm9p+2qUhUYJW5rDNEo60HZgC5IGEuCnAFFn91XESxM970iXHZ98o+/T5QVxNmh0/pnWtNKA6BG6QgRqQ6JIIFT0zCtEE3nqV5ksDo4PLuRhbiRJ0hETJ8T68moX5CR2C4EzMhQqCScJ9ImFGV3agVK/ydPhIMsDzkIoGBBboiR44XonYlIZC1I0RnU6JsstIx09zW/qiWWjvrJOyxQ5lIwdJwXLjKkSRcRpAUuDHCbP93d6utXgBO4CX+q3kRB5pmkrO336GzrSbk1D9A1pt1SdIfH5j3XYVz61w4U3eXlACOgf+JpYAuQzpDnrZ4/327ff7PUNm8pEE/QhDCjJP2E+ODuy+yabOg1qo6V+CaZxTQ2I+yprljgnB1Xt1kZRHHg1qW9XpYCc0rkUL2v3yKOyYryvXR5HlZ7qoG/gnxDtdDwUrFDe8HG4pE2dsC6yN0r4MWDNSwdaBS03y9/oHSkNQ9pAqkL5siJjRL8jpOG0BIvMR/qF746P6+BPkafj2x2mO5p76B4dCvfjWzSSTXAcRa63d85+8IMBCSsNkuQM6ohLxQSLMjlLzmpaakYX6QPvgDlCq0aKQfu2Go/LO/hYch6M6Zhmdj+s8lUV12USdAuURr9vvnZOEZn6SPbEWA8fv5twirK4B3+iT9N0h9/B7sMHbVDWguG+AXv0qSft87/4FW2dXemwcFgpPRiGMgCeXBO+z87M2CvPvWx//vX/oJUVQ/Lv0PSZ8BK4Bi4Rn2d2h5yQ+Z+NnQZ0oNWgFIk5+aYROORri/wnDu7f7UdpT0/qQDhtD33s+ClXFJ597lU7duKUdpMcptN8uiOm5YKPw6dQRNg2+kJnt/KUs3PbFn+HEuIWDuHkiqA+3rVtm33/5ZdtYFgOm6Lr5vp65THiA55sOK1Iu8pD0G3Q1gqlgXREgKiWEVA1SYVIGB2W+uQdh0BbrzkLQb9fjovs/rcgBkIgXzzgmampFjKkA3WKSxV1iwMbJjGl0CBmQn4ra5s8JY12fPFd6vaJOA7JvLRFaTBvjqnMebUZ6wAOiSgN5JWwomS0hiKAdQDLRbmYJ3OqMGQIbGUQY1KHMwXiozzlrWzBDYVktMe0SsCXdzOqA+8G1JZz0vKZqsGvAgUipinok7SygOAP4R8IHfUgbvRTmuh5n1Ya0sjgtaOiqRDfayRcn96STE8kzVVjaI8aRTuwznigkd7ODHNLGu0+DjjrYHHAFwGIEg+BVSeFoVzOjyhuQAz7CudKTGpr5ykpCrNa9RC71KEghKKSFE8fXRf+aL20CzS9VZ7EmZGCMToz6UqHVympWAJ3lcU//rsSqI2k6qQ4VMhqQZtRVBJswSpUZFdH+nVY1SXlm+BoNrwDTkHw0VfAJDuuwynHH+KRLvAiO130J2Vs31IphqARY6/OSNEyy//+Fw9bi86WQFAshUyfCBSOyxc0DfGNl67Yq6dlXhV+sRQvlAUQlHyTaYhEBQQ+TG0gTBJrhJbnyRQ+K6tFc2WxPbW/UQeJcVLlNXure9yOXRm3c5o6mJIAp4dZYkkIJYDf0aa4JybWEl9ZcUH+DqTgLItk+pD4pMqglO7UrEaMdFRlnNcyzGmVvU1m+hmV5cuaFScNpyiHPAjg/kb4E2miL0lLuFN0Byx+7LOtdv99tT7QoH9HRhbshRcQSPPuoOgVSP2hbps1FzQhxVHdt4Q7SRRt2b2VI5d12rAAmcAy4Y+k4yyLEVmTmlpqpFxomkuw5lCmvt5xCUEp2oIvBy0FTqeKzfnzbsEpXTj9yxV1jDq0bN/qKyM639PmTdo86cd/6aft/kcfEkI55xGcEpzSDRbgArhPUw/f/sbf2nN/+6wcQmclpLWkWwFrDjQZZXka/aEsYAqKJvvGXJffw6SUO8FU1oWnnnpcG3TtEb4V2Xe/96IOEzthx985beOcWaG+mhOvR2mGzuJspGx8pQyWguPceOrsebdG7OrY7htRwe+S1qgCSecqX02JNDS4ovPD116ThXHWtjRrGkp8AUtGNpxoX3aZvMsViEd9gMUNSgMJ/IMENvcoKDLKR5RkGN/SgirSZd/JmxHiAWl/OGBxhgOmFyrHCJ+L/RjSFgTSJJ2VxEtYuJYhiXmMKG21AOlmfxWGSRVTv1/8zjwjJMiTg6V2CDE45+IeCWgYJO8+0VDrvhCM/jGRYhXgPXemQ1xRUP7M2xOoU66gpD4Pi0VhSgIeLZ+4WCnIF7OgWkEOPoIC/ajXKZm/mEKhHOZth2TW5aCk0KQdPhnLQr4OB0Zp5SDql+899aLvyC9XnrVa1fDMVhwhZaVQHBfeqndG9nu7EqtM8i75oN/Kl/bh3VYq3wOE+5xWPfgplcqHaYm6Uh3JqyiIuymtfBjTYVETLJkEHzwL8lBQXg7rTJ4QG++AIHcsFrxDYRifmdbIeFJ1lfjy5EncJEnmdyYu8VnCJAhIOFZYY3W9pjwq3F9iWlMa9MvlwW672Nfl5a8Gp2z4pWkiF1ypejpEP3DPR3dCRbt3T529d2lcAnzRfuJHdtqPPdZOVyiAZZnggKEnJPy1jv8/vXzFXpPCwHIyGBnt8MiKhyCkfjAd/XB8JJ8OWRK2asqjUTtN1st/oVJzcewkeUEOdY/sqHMnyJcujtv33h/WOSGbrUHTBzVy0quXIG+U/wHTcOOybtAHS/WilirDr0xVYcxMI12e4ACrBdspPwffRpr6ZAXyrNKfcxJqI6oLfhPNGnGPcHaG4gYPAn5pmKf7Yr38CRq6W3TX1FRsn/8v2iTota2weAZ99sILg3bh4pTalECP934sfILUDpliWSNkbHSLAy/AHYHXajV11KKzRZxW9Q7FYbkXEnqf1CoW9mbYuafFFQaU4klNSZ063q0zKyp1eNPwChh6gVl/KO9uwindp1GVwCeeGYG362TJHm3xzEqIgw/eZz/7939Vh1KJzwgE0AngA6J+8UKwee35V+25v/meTyVwNHaEUBocfsBQVzJYkz+OzqXYuXO7HE1rZbWpFcy1EaFkCidWHji42/bt2yk/lNftX/+bf2+1mi5pa2mWQtHgV4sOw+LsibHxcfVfxtFxBZVQT/UTyqrKZAOoM+cv2OXuHp09sUd5NHo9HOlpCN2LTBHNHNi921566027omkQFBN8HXq1idRqNJELrgGDuHt9xDdyTnSQOReExpVdWGSSvhOPTNciSOIEAfs8kTLBHMq8S5hogEGy/HJRB0eVZARVRmgQn87LBOKiEFwV4JslkDmdklHrkICMqE5Qg85OJUh1Dq93qPN+riVZxgVDIsxcL5FwU73UCVLKlULIonwjG94nwh8hCqHGF0+exNMrzK5MYHCgFYKR1Rc+j0g08lWjN+uaFfNjJQkHdb2huN1ak7tTo98GzTGPZ0aQMcrJLispMfkbsOVpPf1GXuQLs12tr9PNuy5LwCZtv+y4qrajQG0SrK7rfIiELJO6pP/iS4C1oamsWmk3y4eBDZwksNT2SbWXY7d9tYXyY+kmUwwwMRQHF4X67V2jtOrxDPXrp96XS/mor2CEds16J7QSQJYCHIOUSVIF7ghJ1diTKw114IFPTHM4TPUMDDqa2nVWw1brGryi6Yta+9R9T8oHosa+dfwHip/gbz7Ykg80QDyYafQHz6QB1vkC37lIk68vdulsiVGZ58clNDs0X/2Zj2zV0kp2qsssx6LJGVRE8ZyTMIXhPby33l54JzkFMTAVM6e3Q2USOMYaJ8Ydjdp4rFpOVJo6mFL6Hk09MBK9pnaxLLNfwv03/sMp+TSU65wIfdD7kSlogDy0HbwUhrYabcgmq0G79pDokk/DoPICNqF085ttc8EL+ADK/Sb10Rk5YzbJdP6IllgyAIAuloKQgf0dOqTAHNT22D1aCcDeLmz6VCOlJT1NsZQm8wN40gcb4U/EJ9wNutu7t8r2H6hSv2Pe3qTtoYft1Olx32fB+wjYOcom7dgkWgKGoHVDQ6mWAyb+J9QXJaNBfUj1SUtc4E4vL/Eej6fzE8712w+fPW2f/fzD6uNNtnvPFvk61GmZ3+rr/IFNGrcp927AKWBBeekQdNfSvNX3M2ADpGodKf2ZL3/BGlpbErpKJQA2tAFhfE3Kxb5D+zRV06Qjsfv8vSNzKj4/GbGTblvHVtu9u0NTOJM2pqOqu7t6/CArphOAQb+mK/7BP/hntn37FnvvvQvOB8BxFD4UhHI56He0b5G/RLl96Mh9PnVxReXyjcEPIWDLb6cbdT47WB4/ddr+5tkf2BefeVrWxQbxzETh93gi/DlZaBs1JfFTz3zWTp49a1f6+3zKokEHcQ1oOiTgRNtvlj9pcJtD4AkZaXxkvNamHtFAKkQ67tmBvIiXjgsC4EF6TUI/GB3p9OSjHfZswIGRZ9Jz5UIaykOAM9WASf+sRuu/d+mKzrPAASQRhtTLl75QQI6AM+NXtzbbx3T0KQrLSZnm7pUAbxBViid7fRJHLwkF+KRIUDOwieBU+dQtV7th2FgpaMOk6kdTaWs6LgQNxJiyZOXGe1p+M60XV2RBacUcq9H3WswumgR8qctafRbxuVMX4BN9Q1lrBbF8RaFPaA6WBG3fDAIvJVz+pVjJSFiv0NwbpTiwxLJXJ0m+PnhJkNQHlloAG8bGIjD2UycH1/ApRBftSgCoOABSz5jpjrRrXbKmFrBgvNN3Tjii/lA5HuLueZCctAlRovigaKCY0Apvj/JFoWC0AVwe3HnYV1v8yOEn7DvvPL9uOJE2lIdQyKJv+JYPj1ejOzbz4XyJM9pXAfP140dabf+OGh9te1szf6g/bWLXuBkJfdSlgzrV8gEdgX1CO0aWy2LgdCo4ReBnvYR8m5wr5ySoz1yV86jmygEWzovFchQbFeLju8AUxLi+DWienflbGK9Q1rZIkFeqjnOKd3lE21BDO4InziBwAABAAElEQVR1o97VyPegT851nClBV0QI3EMhp95N2idgQuW/Jv+Ie+XAR1qPk6kr+CCKtg/LCnJ8eMb6r2tjN/lO1Cv/UVnlcoXA6yiLe3YAt4iXjksf3Q26K5eFZs/uKk0lJOfdvPXGqL311og7pwasqDP1ETBUx0QJQLHmfVW18ELTU/1908JvbcMu61AVB33pG6ZvaI40KInpQN5lsma+e6LL6uoq7ZHHD1nrljqr0e+BwTEdrV1rfVdH0knUR//54BR9k48/FWuAWab9CYa0KyL+CXu1vPKxZ35EcBMaZ3U5sPGdFafl2Sa8a9Ppkvc+eNie+1aft5foKTR12FfLJ659m5ar6tt7p89LURjz6Qj8Dep0LABnQVy5Ij+K4VGHU1/foOMTwvlylw6Y2tKqftGqCfHa985ddItfrVZq4P9w+NB+61KcYfkwwC+dv6mcNP6hVLRIsYEGXnztDbv/0EHbvX2b+hi5mDSQ/hkZH/N9G75xzz32xjvv2PuXLtmh3XvthaE3vG38of03y5/kUyiHPzUiMvIf+gOCcoU24ggbH7Pu5EEgDpXJDkGM5EWjqOzKMtPdk6Rm5MHmR+4YKMFJrgkR3Jg/KcoV/31pl0fHJ+wVbcLRpxEIwGUEzDwmiOHbCeeoH+lRFP60d9Be0tGn/eqcPtVxv6ZOHtB83yGNZHaCGGonlgKOxsZJD5N8evqEfHIFasyoqUIjAA7iCj+FiJuoFOp4df4BIdV2+TVcEMPv1/riXWLYpRKG2WkibfoecAZO+foiHT9+BwIBp8CHXP0Y8f2edIj3C1SEMC6S4E/UjUSJ4h0BOLF6YUwWgP65Sdtb0+rTFX/83kv2cv95xwkf9Qo2hOgvpg2wQC2HBE+inQh2rBdPDD5gn9jzIbs4dMX+z9e+6YqAMnXiXk67/AsnR+bzCew3v6KtKgIYlMj6xFHR7/Wct0f2HrEXz7yW4K3quF44kS8XfREMj2Va4H5c1CFdPnG5ctEdOz9iDRiVWbm9ucI+9chWjT6k+CwJgwQ+ftz3rPBMFwH4V2jToKeONGub6RHfORKlIwJd2SyBXy0BzVHYI1rRgFWHsyhwOubEyl7t6TCgcsNXIdJyJ/2YLB34njRJ8aiTEAS6qMIzspRdVJ410oibVNdynfGM1QEPcHWRB4eT2rVZlir2LcEJknTHNee+i90uZbngHTRHwCK1W9aGe6XgPD+obXX1Wkf++CqmNLZ4ZP25Wf5EP6wnBD5GX6f7c7X0xIMXVqktjzxar6WVm+3E8XH74fODwgHxFsw+qZBs0c7yVCnnggf6cJGUb+DIsdg4vIL1KA1YG5LqCweBrVg0fhPgNLEiIJyYrnrj1Qva7KhCisNBe/DDu+z40fN+rHZ/L0s0E7hHO7P5+N2C01p0x2ZN7PLY3zWuMzaK7Qtf+3mrqtUKEbV5qcX6gTVsVrx1XooF76VOCc9L7SEdh33s1bdsTJspRQKXIWp/g6YVOFwKhWA0oxQAd6wFDNCuSEHovTrgKzFywWloaMQdJ9u0DLRZ20WTDrjhazD6/oQOzpJC0tbqqzX6+gcTolLdgL3/UxfAC9u090Odplom5OfwylHtUKm63rN3j+i7XHSO/NUlPKiTleXpJz9up8+f17LLCc+nrqZGVkod7Z0Jnrfypx7UGTpZD39S/yee0yAviQNByBfkRMiHIInC4s43LgokHfHTIdKSnjhRxlI5erdaUJZyDpzXKIK1sBBBbiKmHMFJJv05G5apqUd3OptAvUhHHbioQ77AWRdcEU5I+XhfyyAbhIg7pTjcp45+UITVIQWiSkIH5yuQLjqVeqThF/kkd5iaTEJC0XGJ1mQzK9iq4Ke/KEmMDllFgZJyXlorfhXTghF7Tkxqx8O1Au2jDrQxfz1y57J+OAFXWn1jYJqIHirSCJ4wKd+EIe2PMKD9EUZ0H9czUwlNZTV2bOC0fbfrpJSoxJQfdab+JYvJKCnbWsK36EfHJwk3+rZvdMh+eO6ojWilxJicH9cKMJ/Ax2ycJS1lMIJmS/U/fekb9jfHnvVNodhAirBefPLImT+kScN4o3QHw0dp6JLzI78/dG+zPXiwQQqDsC9BdR+dsH/CjEbezIkrWob5SHhrhH/vzhq7V5aJt8/hWa1e1Pc5jc63MDKVwtAlAYyCwP4OjMxQyiakeLD8clSKbJSTblf6N06RV6VYTCvPFo10WWEE3aKgjGmFBUpFi7YsLq7UdKKsDlju0gEHyEopKlh/IAYo8byc/KbUlr1yumRggBOn/ssqxy6RVfayDta6xohb/2ok/EZSLAh84bpp/pSu3Cq/b5XumpuLbe/eCo1GZ+zFl4a877IVhtzFS8EU/Vxb0J4dmrb6uZ8/4Nzk5Zevalmldi8ULH0U6vDEwqYL4KXpV53KyZew7mPaRrqxpU5HRO/0KAg2wg10l5EVgdMeaR1/bhVOq9Eddayqq7EZOSJO6wTLI48/Yo889bFEoQZxhWqMYbBsz2q7fqba4LuBgfCfjj077B4dj/3i919wR2GaxCqJ1rYWWV2a7eyZc9p2esZ5gxOWcHRCSxt7rvTJaXXM+ULQdfAX6hxwmtGgtqv7qvwYJqxDlo1KDRBR8jbr4JUJ1ZmdILdoKqVdx11jsViUdS/4ODRRITnEMk5kG9MdcxpYMl2B4vDw4cPWWFsv+mAfFGTKJvvEIx+xb/3wOTt66l0b0RlOHVu2rlAa0l0WdQwYRzuAS3yL+JuDWcNIs7cQDiZH5OjwSMidypE58Vz7pXMy74lPfvEdBkxZ6XgeOe8fdah6FJP+hJgN6kUAMDsJHY9lgC2ZYSYwqnSgzAAGdV5voLxp5XtVSMaOjX/WP2z/4kq//e+ySLyoZ+gP6wFOl4n9K2n/EiYuFZQwcL4ygquVwsFpmREQAlgsQAYO7nlQh8aUCknQiEdVfpUQBIVjtRD9k+6z1eLn+rYxOGXaSkYAQgTETpC0qm923E6O9dqrmno4OthlnTpymikWNOHtVQ2yusgjGGdHEW063Cw+TUoh6dS20OtRGDYKJ5whe0b6tPXy8iE+G4PTcguDTqCDm6E7Rv4zmhrA3PwLn93juzciLAlYT/CIn9bZESIXMaIoN1EqEvOlGIm2ma6QSZq64ETYoFFuk6wM3Vr5wDO0o6ycKQ1oqWWn3o/KOS5D2pFp3juWkGEpLV2aY58QU8NcDsxRKDku+7KWV+I02SqLRCj2cHRagdBnEyfalCgOCQ10adnniZFZWQOTc2FgtL5zq/wuPiaLi9QxKRjyNFfF02Rys/gEbNYbNopP2fmWa/7mmacbvT9eeH5E5m6W0yHg1UpdLJHEasCFEoBCR+BMkWlNEeHLcEWbZ1XqDJ4H7m+yI+rfnXJSHdbUzbhgPSsLENOyWBvogxKmmpQP+cF3wBsEHA58M7IAvfjcKflRbLL7juzy1RP3PbjnFvl40uJbhRO5rEV3nLkRZvqf+c1fk++AcEPthuXDbplGm9Koe0Hz/i70U7IA+cChVk9o1QN1dUVTaevkH9C6tdVOvXNG6ecyMjJRRrEInH3/olsfqN965B1twFrxvqYnWKYJjnKhBHDwFEsz2fypYzu7gi4PYCHARq2MqK/W8nDVlRB9d7mnx3746mvW03dVVqOQx9dcSfjME0/6Jk+DWnbJDpLknS+slz8VqaG/E0QSRBYNIXO+8YxSQWXjW/p9dCbfAHhoKaQnTXznOR0QlHvl/IfQZeSdLRZhYNfpQCViZYR3dDoD/VZSPx67SwAXZUh2X3cnwnx7HIAMAfSsrPI+0lYuHCPZJvqimOGLE9PaV0FLbMSh22UJYUdIBk4wtFyBchN2qDhqF4dXwZqkS3oKph9YkshLtsLu02jtojRTfDXYY4Lts1lamitE//AtH6z5Rh3om9XikBfx0nBKtpFO7whJX3hjnbFRK1ZFDEp4X5gYthPDPdY7K5OY/mHeJk/C1sp621pV77+7pkbs1PAVNzXz/Xbgk2e8yp87DadVil7xKfCJO4F60S/cuQhpeICvDWykpKWOAxKen31ym/3s0zuFx4KwUIY0rKSYZi8FBc9D5v3kcCky463iClfZEOqill9e0S6S7LFwUOdVXOrX7oxKi1ARGmvKBt8FOXTJ4ZJ51Hz0sho+MY0xKqFGnlXiHW4up726RiTI2rSFNM7EbNIEzcAGO2RNqBC+LKG5x6fq1x3/ryo/liazLwuKAvJzuywXr8hxclH8oVHCblLl6v8K+AW+A5eN8CegtlogP/giIcrIFT8fnDo6yu0P//CwferTzXbs7XF7+5i2KhbtMc0wIwsPCiD7M0yMy9FUyy+Hh3Xa58CsDQ3Jgqc9OoZ17+9nWaR2sX2gSSNiHc4m61tX16SdPDliV3umXHEYkQKBEjGK4jV9zVdMYI2aVZ/PC2/cAVZwX5QiMjgwrnyn7NDhHfbjX3ncvvLLn7YhvTt7pmtVXMjV7nh3q3CKfLiTFzDiSuMl/dq2c7sNSeg++plP2Ge1LwPvoCZ3NJfTzYxM+sgH5An5JN8SmvOBpvCmhZUGV3rs4rlL2gej1Lbv3KbdIfulbEw6jTL9MS2+3Hmxy7o6rzierVfeUf8IDBpGR8c9fa0UARQA6JQ6j8sSsU2KClaRCZVLWxEu+/bssprKKk+TtB9ET9rCsszu3l6r0hHZrU3NUrrxUWPX2Db7wWuvWndfrxynt/puk5PaOnu1sBZ/0vR8IhDpgDRBUakghOgcvqcDz3zjis7kHb95B2AibTpd/CY3CJ8Rh9runRjfuJMPZnv8GhqKFpLjqlMR6HTxN7sqjSwENvnkClHPEJq0bSMhF5zOaXlY14C0RjlNfrK+2s+baBDzr1Rn6b8zwujUREVQiXpPa2mbr9S4ptGjmHniqMO+A0m7P9ZQba/KmoGvBdMULNVEEcrVPvqK/KK/NtKu7Li54MRSSwiNEAxeY0GZm7WfgqaC8FWY1MZI4edRjsavZ2G3txU1v04ew+1VdUqFkEjwyHFFyB3hVvEp8sl3v9Nwyldurve58In256O7CvkJcL4EJ1h+7Uv7nGaEFn7H+gDzFwqAWc5UnJtkFXxNSFYp/PzQvgY7pQOqGnF6RFBotFqRcTgc1nRAv4SUxP0SbWdls+5HfCkua/8FXCtadfy7+7ioDgh1dnasl8VjSuUjtFj9UCVLQzZ+O2fQSzCGaY8TcrDcKwvDVlaMKP8WweOjms9/eUSjR5grQMjk8kHHpz17KjUtUelV5tCoS5e0I6xwAEUtnLbVRPUnfZoBu+7eRP1haqpeqySeeHyLzpaosN/4r3+gvQIW7Nd/7Yh98pPbtWSzx/q0dbdS2zVN82KZ4CRU4A0dO88QEi3hHQilsi5qRcXTX3jEfvTzj8gpWT4lO5uUg/Lg+02Eu0F37pshyzbC9+NffMbKNBgFPqijU+LPi9qzADgsBQEUvxBaFFIN/slUzVNynnzn6AlZDpgW3+w7QLL0kR1Th4dG7XJnl6+cAG5cwBHYrCXvlsrO/KC8bk1DTKt+7e1tou0Kz29GUyAXLnXZnl0dPp3AplH4I3C+hNNDdkZ6Zo+Nae0v8fybb2ozp3G7b/9+MQdtvd7SZl/89GfsX/27/8stvUEbObJY8Wo1/rRinwYiBmLQ0QEQgMK3eEfu8ZuG8z0AyDeAx3vSrBa+JKeOzzTW+ZJCFAPIPULkyTNzyfgEZW/2RIJ+EQPnUeAQ5+WpTJYrZlsaIl/qSVirbhE/1520ASfWl+twVUdHrA4ntPvXlIZ/KDuclIkVBScuhyGZZRoJZPTa934g7qzSMOoiAmZ79mjolHbMxSmeWGXYvyE7kC+KEHVaC+b0WShNUf/s/OI54NSq3SB/aecRu6e2xa0CU7IojAnmg7NTOp1zUttfz/gUDu2BwPCY1zhAU0ryK1E7GAWVatrCpyW0NSpkzBLNCxPa5368D7z2cDvwKeqe636n4XS78CngQH0dZ9SvvKvRNAJ48qmPbLHPydLgR+YK37Au4L/gYOSP4vtvOkS/l0IG4TBTo3h0ytMedOvRCBTkRXno1UiU3R+FvbcVn/CnkOuj6s+SYynUqhSWxVq2jtZ9WvXfJisDKyCy1WJvS6YRpMM6wW6QDBY4QZY862VyPyFHTZydURz8HJsM/7oV/rQEuxw/bgc+YTnYIWtDz9VZ+973BjXNMKvqJ5YW6CZCggs0jVG2Giw8oM8bm3Sy70dbtR9AnVZOzNhf/uUlCSA5cO9vsN276uTRX26jTBNJkWAVGdNahODVgWPAzXmH8AGcqJbz98jQhO/T0NM9ZN/5yzfsSmf/CnSKuq11vx1wylVG8KegO/w16iVP9h85bJ/+6S/57o++RFh7tixoWkEgc7pIIJDkqFceYjqb+6IUtrb2VuuS0J6SJXlGU9NMa2C1G9RSym75HUxrdV7AkAzWK++S0m78O60yJuXDViJfOc6LgI+Ojo27olBeWuZbQ2/XEs32VlkfkLf6B09wSyP0TuNExNSfab1erR7BUbJOFowKWR52b9tuz772ijtpEpdjuANuN9bmxjfEDXnh/EkOX7+THY0IESmAQ0IEDlf6HZXgmTuOaxvRtv5XbX7BgVLMVXbK5BNkQl5cCWBUF5Wt/1Ia5FmdQXzqjJDGyoAohSAcEIq4mtIQ7eDu8bMbv4HngBP0XSPGxTQCKz7Oa0TULQHfowsfixppv6VCBBhctHGpGL1jcysNtNQeCf7MB3gDSzXfGpv0lRc8o1ilQ8CIPlkP3IHnepWGgNPjjdvsV3Y+6H3RIyfD7mmZL3Vg1JSsC7F5EkwHUUB9IE0UuFk58cxJ2UPQtZbXaOkcx9Dqq+rA4VMXJwa1Qc+AVlouK5yUSR43i09p2KR/3w043U58ou5pGqPPqmTO369lk7/4uV3WUKP98rWU0keNDNsJ2YjFM0TjQf2S+U09cTgsFTIisM/JhD2l6QKUh3GZwzHe3gl8mpVSItdHV3YqNAKgOmBLtawL7Oy4UztbgitR40zFb7iRBsbIkdoTEpycINuiZZooEv3y6SgXrLTw0OH3QccnmD7TNm++MSZlSIqUloHwDgEfAdzV/wxtJd2IP0Nzc7l9/ONbtFxPJ8OqP987M2rHjg1IqGgeXrDcq305WMrZpkPNhmXtGZf1iH4FJsz9uxKBgi96JCQ0wtSyzs/RmRRzsqJ+/1vH7OTbF+VYqE23xqa8blGv9dzvJt1BL1u12dInvvQ5KQ73ybKg6QiZ4XEmBGeAIcF/57n7R31D+FZrhcKiBr+D8ltgNcVVnTUxqK2lsQDdCf7EIGCaKRQpECgOZbJysNJhq5wwWRq6o71dh2Tho5EM0hPZmJZhCeWgcGB1YfvpIZ16SZqdW9s9v++98rI1aW8HnCIpb6Mh5F1ReXn57ySImQjq+E2GaUYIwnFFiHjEyda04tta9/u0pHGLlAZOoOx2bXC5DnQMlSR/ArwRP4BKCaQIPUrDXgwwG4DocRV/NaWBtMQNYuF5rXqu9p30+DqwWyT12y4zPP77KEIjqjQjojEpNzhpasrV42DsT3A4g8mKL8OaRulsZiNzrZ5h3/VSQmhLN3PA0kIHhbBAI+pDG5hTRfvkWisQnz4kbiiFq6VJYLTJHm/q8DIvTY1qKgUi5F+GEIWkSdA7NBt9cSVI/YfzI6dXMi2B/QGrAjGwNHRODdtZWRvYnIQQbboVfIo8su93A04JrLwpS23Jrsd6nskBGATe01+sA6+V4+CnHmm1j97f6HsvzAgnsBo4QmRoRImSCujlJnnUJssal3rLNqsDmAajHrs0//2QBMuglkM+e3LQ91ZAobuT+IQ5mC3TObyqXFoyygs+DzRjhywN3FU5r7ffvTV65h0X/0AgsEj/J6Qo9AkOWCyaBaPzGmWPSHHwVU2ZNB9kfLrn3mp3YBwYmJfXfNL+yclkLtqtJmpp4IE3WM+LYigtLeX2qU9tleJQ4V0OXL7znW7rkQKILEBZOHy42eHE7/attdavXTxHZEnC5L7Mx4EjME2UOPh4TW2FpjyqZWmYFF/H/0FblTfXyh9CO6zqeakvMulWe76bdIeV4eDDD9gz8mWAI+G/gMMP6OKX/jBog0Wp6t4OlAOe4x0Clzi0s2PXdnv40QdtShaA577zQ/czUFbeHzcr7/LBKuDEoHt8QvujyI+hukq7eepfjZSXOb1HaaC+EDz5kAb6X8aPDO1nbliksDbg54Di8Oj9D9gLR98ynCanNP1ByFef1d6TrhiPz9VCZBBMked0QLgTqPxyA9Ix8v/+n7VU5Te24jVdbHVyMGGVBLnBvAjsPBh5Ii7Z7InRPKb6IZmReF5ZG0+26h/yQ2DCHEMxWTXBOj8OiljnVS8EI8oDikSd7k0aCTFdMSrmdlnzGPXS5LfJTF+v93iKY8p3M764ORtMtaAcqG0cyMWI7CFtNvW+mCxbbpeVat5sSTAkyg/9kb00cZ1VXjVawOmSVkL80zM/tK/teFBtSxwb1UNJWm5LSgNIqH7za5PmzuWVr10U22RlYAtpcBkccsVCdQ48intU5lbwKfLIvnu5dxhOtxufgAsXdT+gpZJ//6f3acSgMwJEI/NianotmEInCWO8JmEiduJNB0WEchAQ/5VGd+GTZpYc93EGq5CHPqsx8G/4s5d6fXrCLUZ3AU74hPdo97IWOXZ+fk+91/G0LB3FLB1yRPGqJ/X3FtGWzDv/mYknZoFS/raE4SFtPf3LOgL6jJZ8/r9Xppb2Nfmg4hNMvbYWBV7OoHL6QGFqadE5HLIIMPXA2SBp/gQuLEgh2tpeao8/3mL12txqUc/sRzApZ8kxOa6WiK8QJicl7DUt0dxUJYGjU3QFm499bJe9rK3E8XEA4MFjg5bJv0Lb6bdurXec48jtWp3Bwx28qNI+ApkVx17Gev7cLbrDwvBrv/8/WquWMbJvBec/MJ2tiifVhA70C1qIFWoglA/OFGWzaMNhAtHoNxaGevmolWkAuHv/bk3XVPv0AXLjTuMTZYzrIKx333vf9u/epZ0fPy1fhhp7U4dd0a7kzAlZY8UArkMv0Dztw6mPxwj6XSRlGoXjey+/aI8/9JD9L7/5W3b09Cn7N//Pn9iF7q6IueF78VojzmBeAazsEkK4cOfaSGDhS7+Wv2zXaHS/OohzF6axHOg9CJcOdD+jdVYvcBx2r4BBp6+MlU6x+u+o61rtXz2X5a8TavtlmZc4hhtHSNGtr4IAItgV8GuA4ffL7DeoKRWmLFCAmnWxBNO3l5YAwA+iSe9QiLA6HNDGNh1iIKysoK7Ly9SSsvP1y3LNbu0XcMJiMCUfhTIdLAWCJrIpkJRneodAa0WM4oAoB3uqGl07ZhrDlQmlZfS7ErtJtxwoj3Zyjz5a/nrzv+4GnKjd7cKnNN194RPt9vC9DT7KvKoRI6NNYOh7NAhHfC2+35PykxGIYiCJMpfDUo/XXbmQsJUwqNTUQHNdif3ck1vt1fdH7GK/nBalWNzJEH3KJjS7tdTzUGOFbwTFMdmcdgmdEECz5bipGvmH5WdGY1oQ4P4+e7WPxRZtcnNMAvOkHxmd5PFBxKfGBg2UpDRcuDDttDIrxaGC7bfbyqy7W/5A0BAk5nSA4seUBJtANciXQYcCaiDB6ZSo491aLcHqiMC9/v5J67w8bo2CLcRK3Fo5vT76kXZ7442r2oRoSjBHgU9IGRShnPqGKglKLYfWCZfsAcC0B8szmarg/dgIuLYM+/X8utN0Rx2e+pmfsHsefVirg7QZoKYT5qa00kF1d81Z9UVJpuLc2ewPaxs8DNzZJDyU+OXRZQm/+d+jMx4q5EzZ2tpkP/3Vn7LnvvuCjso+706RdwOf6O8dWnb56Y8/QRPtqpb5v/LmMU1dyCatjgOuTJV4n9Meb6NHTX6rRbzGsXVafh2nL1ywj3z+iC/DPCbF4dKV7qyN8zJp13ErZpSaL8C4EN5cYf5OC3MQLUzdVD6AmS+/7PdoS0XCWJybagWIQwLIKWlTkzKBa4cHEU0y2qIcOhVvbPaaH1dcDoG6GYWBPAE49Y66Z9dro88Bp8vyguUALM6bYCOaKglO+LsTvtroiKk28G9EhDwii0IXIw4pDW1SDCpVrwo9s+wMy0K/9jKAMRwSwZ6SgyVaIzCIEH3BfaOwjzzy3dNwwpvbt9AWgbnS4nWgNQpqZygNpBFVuuWkrqhSRx1X+OFT84I15nICsAAQjHx997JUe24Vn7yAHH/uFpxuNz5Rb/I8enrY7j9QZ9UyNbMET6BLYKdRKsJFTz5Cci7hYEbhSl77D4/Dc4J7pD99eULLs7RMTcLkM0da7MFdGs2cG7GjFyftnc4bN3TJAdYNvUrjE22Cob8nE/i7gxVSVK7ZN88N+lLMDFatK29n+qIXmGifBBsWPiySvVqZ4TSn9kaf3Ax/yleJW8UnVdNq6zJWBvmmsFfDzIzoRv1ZJyVufl5HhmspJW2g3lgY2raU2yOP1LviwEoZH1mqrQva2OnSpTFZFuSwJ0WQwDz+pUujOjFTzstulWIPgGtWL8fIj350u732eo9d6Z7wKUPqQhlVWpFSX69dJTVYmRKvQS5sWhTvl9LAGQs1sjpc7YZnJmXkg036/a3CKZ1X9u/AJ6YKTrz4qh35+GPa/lqbO8m8P69VBJjy+RcKAXjF4A2ZwV0o43F4Bme4w774UyRl+pKWXAKXnZqm+NhTT9iRh++zY28ctx9+7wV7++g78vEY9+/Oz5TsVkI+OF3ovGzPvviKWxX+5C/+k508874rcsjNUjlIsm/E0o65TvA31iLgdPT0u7ZNKynYOfLU+XNyimQDxPX3ZTrnZSeF1FsK4qIxCFh+Q3zxnqiB0NwjDt8BNO82AkxYmVL5sdWHtOMiigMWB07ki3y4Mwo5I4TGA5sRelqApqqf9yf1o64E6sl1KyHgEXCaU/6ntYPkEXkf16GlIxxTsIj4vEMPhK9D5wM6/hkFYlbvadM+7cTWIUUBJ9GRzQt2X3WFWyjOZFWWfCAaTOPRHt7datgYnCgvYfXeIpVfruNc2dtBrVdf6UyKDE5gfeAf/1E+AleoL/WO51vFJ/JLhw8GnNI1yv078CPwiWfo7rk3tSxLguKeXbX22AONAEsZZBiffiWP9AE9kPQ/oyl/T1E8ZFAdszh7OgxoNC77lxXLzM2eAGwj/cyDLfaopguOXayzbx/vtfPaffJmHKYoMh3y4dPbGhFfkYWBQUOfNnBab1gJJ4kANf2o9p3o1pJCcVVZ8hCqH1x8wvmxuVnTkPJlQGGgn7A0cEcgtLYV+3HXTDEwJbC1vdyefLJFGw1pbwtXDOhrAv4gciLX7o8oBxFQJFEa6DtYHMsIgRnvq2WNeeLJHfbaK1fs4sVkc6ESNtvaUusbP5HPnOAX0xfuc6J0lVoy6+82oDTcLbo7+uwLWnlQZm0d7fbRZ57yqZRkjxLnNg6W+CUQZ0LyhudEwdAPEEkXGy316gCpMlZ7Cb6zWq5ZJZ7+iU8/KeXhsL39+nH71l99147quOvgWcS72ZAPTucuXrbf+me/L5zYZFd6+12Rowz4Y+xYC//PF4LuiM+Jl//4D/6lH+Pdo0OsbkZhCLpbseSSwqMgnGUoDKDAuGBkNC6eeUfgzkU60kQ8/7jGH3wTHq6pshY557DmGrCz9SzXkIDBckY6lHJxdmSe/5gcUyZUXoeQJLqJspfKVdx8jpC0JwRs1H+NKub9nA9ObGb0ucZaq5Iqy3HfUUnawEUgLRff/Le/0/SLCPKsrBXvqI0Xp3W4j54bpBx1aJORPTo8iyWn7AmR9msgP9oe7Y8yeJ8diEMf0Xb6MV/IhlO1/BMekzMkfbGcKsO4uNEWBVQhyuAkyzIpDiiCECBp6F2YThJ9s13S6onTIz0aZcp6ksEh8ojfwGWj+ET61cKdhtNqZa/1jfYC91x0J57hIH73/Ii2j27UMqrEC14IJagu4xDPjlcUttxReghKQaZuksIwY5e15JLXe3RS5swcdM2lvfQ1yjogJ8nH9tdbrcrp0o6QHFCVK9wsPkVeKlJHYWuvDxeE8Xb1ez44AaAJCTycLAOHyCl+f5Dwqbq62LZtL1uyGiVtktObrD7s6MfJtxovyRSuEzw1XfHUU21WoxUzbLolCssACKSQw7UsTy+91CdfiJVKF315+N4W+UlUCQYJnvAOFkQZbVtrNKUxpc2itJFQR4NbGnznSH0f0/JVnAEJKPrT2kKcsurqq2x4cPnsgkxF1rzdabqDl9VrGuHUG0dtm47F3rpju5QtySTVbBlaiZIQ74B5QlcJROFtPLNr4ojOibj43nkpaAvWrikCduFEAbsufs7mTvsP7LEfffqTfnjVgKZD2NnxdoRsOMHL2XKa5Zdpfn2zdOfnXGhFxs0MBFbQXSy5jJcIVSoVygF3vvEeAowQjUgrFjQy8iEPwmpCLFtpoENBVbZNLpHQZfR9XfmQE/mck8DkICo2PGqTolGueMJxL5PyvCzFy6U0RL2oL9pZ1F/JNxQin3xw+ie7ttjjMuWx7TMmU3wRBD4q6RTr5OuVTupNfnzWR7VTjE/xCTiFvi8fD5SEZk1d3C9N99G6Knt9dNKXmXqk1B+EDWG1dq0H2aJ9aTitVBoylc/U2m/ewKQ9dWWantH5Em4+pW26IEhXoLyhelZfXZ4ctne1IyQnU6brfSv45Bmt8edOwmmNonN+DnjnwyfeM41To7MchrTSAQfGD93T4KNBR37hO8FRjDt9kbxavhNB78A0RqYoDGPaOVCyxFrkJMe5EwgkAiZyXw0kOrlfu0U+srvOl2f2andItplG0Ee4WXyK9Bu5rwdOt5s/rad+N4NPbW2l1tyo0zxxfPKeS/gmfgel6gtfpSCm19JaZg8/XC+FodidX4FBwisYSOksEu0S+vaxYXv99X7RfVLbgBPTmvg0PPRwq+8E6Xih1OwDgRLBZkBtWlrpfgvq6016D/9kp0j2aMAvibhYPnC8ZXfC5tZ6TVEMKt56ILMyzs3AaWUOK9uX5k98qdTgc0F+GOzJcOjDD6nuCR0s0YXaHr+RJ8CDOPAmSIZGueKg9nZqamIks8VzY1OdfD3qfCqAcrAQ+yF3koVHHrpPFqBHBOd6bfo0oj0ymNbJP/In/VrhTsNprfKzvwc+pfmTS3Y6gJdUGMQJ7RwBxHMI5Hgm44iXAN+z8XQI5CBe8mN1BunXG+g/wlYpBbuk1dGZLNUakRDt1lwV5ntG2l2akyFEfH9Y5Q9tpB7M1a0mWFfJwkeCq8EJAuMoberIBTJ6/USAWEowM6EYgHhwX6zGQAannRIRaJk0WhwhQV7mZ2sFv2m1mymZTlkeTmrqoy8HUtIerujg1dqw1rebhRN8BEfJGlklvNU0niA4sMSyhEOFkFJqewKBxGoFHiXREry73fjkmWf+fBDglK7PeumO5ZUTk/N+ouW3X+7RMkk5pcozOoJDVXAMWDoMhVPc0wG4T2kvhhGNSsFFDqca0rQA5ulSn0sjttJIICE0pjTf3ibB9LNyoPvHn91rz2iOvEM7EJYIT9cbbhaf0vmvF070b8DgTvGndL1uBp84iKpO/gwoaRnU9yxRAhiTMdrnELEmKRWPP94oS4GmJLAwZPelugC2ellOkHwnZMOps1NLpLUMlekQyoKvwHocNlIEamvL7bEn92jrZJ1nIFyg7xldc6Q6PJw9AQi1GqzMCE/g57WyNmw03Ayc8pWRD5+63r9gTdp6+f23T9rlsxekFK2yKlBwcHhmYAo8HIJ6ntLKhQFNTWCNQZZx/PVmTbGWyIcgcAvsJ/7I8IhV11bbV37m8/a7/9Nv2Vd/6afsvvsO6dTSynzVX/X93YDTqhXI+piNT6EXFGkTi98JoR6Exkd+O/MRZpI4Rue843JAZ7DeO0AFxru4R3ryT5cRdctlaYhv3Gtlo/PllSKkM1qZMMTOXJkIOK80S9FhmaIq5PlTripxg6WBsmkD9aEdHi9d0Bq/SQvBpNsQACQv8i1VnI9qeeQBTSUQLrBRh5gY9QfJuFyTdYxDcPIu7jQBuGqraDFrLCkE4rA51EWfspi2v+oftUvKN1egHgFnkC9X4DvtSBjCjXHywSmxNGxX/ZPloUnNqJ2CbuJ3rhg0///MvXeQXld22HlJgp270bnRyEQgCIBhGIbkDIcz1CSlmZUsB0kOW5Jsy3a5ZGurbJfLu5JD6Z/1usq1Wzu7Knu9tmzLctiRRyMrWDPSJM2IE5hJMIHIje5G5xxAgPv7nfdd9MOHrxPS8AKv3/veu/Hcc84999xzz20oliVyH9EgWmgbC5y5yBZa2+i2oRPTI+nYOBa8zKJtu/XP/eJvQ36X777PbfSe48TDBv+YV87jZsNpg1UIXFwPn3JfZLprwyNkC74aznJuRAPahofu7YhjqmlOEejzSo/E78A6O4YQf4noUtHZEVTSaCzERTUHLkG0N4Pb/Bbs5udSRdEHCHI8e3WwPfL+/pZ0kKWLRpYwZpmRziJUXA8+RaU28GcjdFcNJ+vtlXEm2m/DCPldvn8/8AmWle67r5ltdTg/Y1moXId6DFO3bIGvsUviyJFWPAJ6qBdOn4iXaS76lR7V/4J5/P7v46GQ7au18GmC00kf/kBfeIb0MDNhZd8a1Cw04DCsCbzqwC+DGgYPuJrHkdP01EIJVtpE4ICLSYs7KDzwaHK8ODMhMtrgn1tNdy59drPlcuCdU6mOnXhHH3so2mDPF1cxGQt4B45U6MLvIH3RD2iHOXdiZPAC8AFWjIPNLRh0d3ewbMHEGt4ZBtzAMMvNamAUuNrb29IHHroPeB9NXV3tLD0txsmX8trNhFsNp43UZT26A48K5mvjqmfhAtIMbIgM1ns5+Nt0OV7OK8c3P5le/p4r4+/1g4MNR+Jiu9BGHcYsp1JX07r+P4wQsZFgvSzTula3Ya30prPOXrltteCkk5qP4w77z3W3h7Gmfhasn620vHzlssrtz7CKAYwEDZSlc6QoG4FBd7vHWVN0yeXUKgKD+eb+Me9c11zeRu+m2yycMka0s1OiUaK6giO0u8KgFBxcbrqbXSIBFCpUvXPCOpr21uFTAYXvF5wsPfp0A/hkH1TTXahbwQ9h+VtfPZsGRhdgYkV/ZWrKeJbvlplxzbI9mnqE9eroIhKZbh7Piu7ld+ar9qGhTluSYnnyygBDxGW+K2buw6HQTz62Lf2tZ/akHznSxZkiKxoPyyuH68En098InMrlvx/xqQeBQJpxt0Rmg7ZXTcPM9EU8ONYx+LRhsFgsI+hLo6E+D/aZ2oTRHdgXLLOejtZoFf6kS+kTJyf5XuCJ/S5MJEuXQWIpBMGxHpf1992/I+3EtmEJ4aEcpFN5uL4ezp68gMFkZ8zCFVIybpXjr/Z8q+lOWLrUcgkbqee/8o00fHYwhJ2oDx+jrkbiEorZMVLQCr/9fhHt9dgFll/8HkRCP4Ub6eXYbeC7enYfeCKoStPYSUZc757i7KmUu3dtS3/+p/+H9Mu/9LfSz/7sn007dmx7X8GJ6q4aNkp3cTS2g7vMuhwEYkbG1QbbQECECRHC+BZaHUwrQC3D7yJbloqjI6sTlH+Tp26ZO0GGIxgCKuXmNC5RjJJneH8rp6l6tsxcr+o2VkW98jO33fZn51cSTi04uU3ysz2d6Se6t7LUUAgK4aFS/LySY4GEwsu8cxtKnwNJPYXwLmfeMATL1kPkIHYRnq2hx8lyfuW0+Tn302YJ2vTXA6col0q1sFPC3RLOSOMfbaCpVwHANjWwfGHbw2+D36vCLcenSnm3G06bwacc1/7I9bTaM6iHHdQVFCaZEf7hs4P0mV9qANK3dEC+zNN0Hkw1yw4D1dUGB555BFy04ZGL51h4BkUTrkvd3umy2WW1FayPi3wKESE8wDF3s+viZx/flv7eMzvSU+zq8MTMcrgefMpt3wjd5bjVcCrX4f2IT13dekgoXEbbBi+B67bKjvY7Od4aZ2jAX9sSg5+b0fK4hBQ0VXmnVuKllyfhpaguCKvxp69//WzkoQGs8DCoVWpCaxXaJXrebXto49N9R/rZqdEe/RwRK38cYHVr/C5bORdZIm7BfmBTfLyST8bnW8GfxM0FDMjbOD56EuPEr33hd1NTuwc8ITBRfgHnq+mi3EbxaA6jw1mMDn0W2KZxqeZdxhn5lwdJeW1hHGpta0XzglvnTGdkJngVHDxgaufOvvTX//pfSP/vv/qn6ad+8rNoe9qu1KFcbq3nWwmnWuXZTmluw3THGv0/qpWRgDMTgwiZg+8tJDMk3/vsey8FiNWCwDCYr4ijQ6OHWP/pAWPdPWHnloO/h2Bq+mTQ3fQicSZ5zhKeS3l6WGxV6iWvIAriZENI66kNgsGy16qbcYxvGzJB+FtBwXS10lr2Z3s60sc7WBMkvfWBz0Y7dETl73KwfubpFXUtf+Q5VMYgv8swovo8z2+yni3UeinrAu9Xh27RD7kNZl1dRm5bNSxMsxacai1PuMxAhdGM1KXOOo5rpbzovyt/eCDfCLaXFqlpsJfdYnd6ZjS9zu4Jl5kyPHJ9vV8PPuV8ikJX/2v+twJO1SXmMjaKT6a33bXoDrkxbWeWP41twwKzwWk8Hz50qDO1Z/fLtIker3RCURNkt+gCoa9DqBN4SlzUi6B9ZyCNJLm9s55BQ5xEMOD3soURGKfC1bPtUM5QbKXrAq+MizybOjj86tEdrWk/J026c8Ejtt9F0LDNhmpci5dVf24mnISf+dnH7zd8khUdOtTIjgUnafa1zJoTYQHq9h116ckn2LGCwydpvJgiSD88Ec/+uegyBW3TQFGPkZ///Lnwz7AafxLMajSewCalWKMnPfm1bm1Ey6CBbUGf0qTP0nTr1iZU6565MBNwFJYG+asDqIZ+rdg1jI2owSj4eIZ3RFzjz62muwbGkkY8V06PT6QRlhkefPKx1NnXhedMNNI2nRBLEd69gKt3+0HB6PyZgTSNnUJuM58izjZsJercrafLe/BK/wjm55JFI0sh7q6IvgRG4rt5el9kWbkZvz1PP/1EevTR+2MMmZiYpk8KHxzmXyvcajjlMm1nHhOkV3+vNd6ZLvhT3j2RM/JuYgeRnEkmPr/VIsqcpvzNd7WCeYnk3uup6MNIrfpcUA1foGeRyu70zAa1CVQkZtrumMB/Whql00yvsaHMbBsdZ9lRT95locF3AsPy7MS1gm01bm638b3MM/KtSqyh5p/q7UxP4W7Umjt7Jmo4ZlrmmW3XtQUhyrEsr1r5OojO0G41Ka8gObvU0UZftOle2vUzC1kjmGduS4Zzjp7hYbv8lkN+vxqcqoUGmZZlKOS0s1OiHuYR9aq0iw4jay5+R/A9fVGkgaCo4zszI7HlspbQYJqIW0lTC05FxsUAltuZmZjf1kqTv99sOOU6ec95bxSfcpocX+Itt8GtvC3soFAonWIng8sJ3e316dCetmIgl34q4L5SD1DFVzK0CYwfT2EPwSNXIeBbRwWEPpz+NMAAVxhrYe8gySjgOXWI/uCujY1KBfMVFcVG67kN4eUD21vTdtTYVmQRf+qL4O7NpjuKi7qsBidx2bpapzL8ov6lb+ZTK5jmVuFTW9sd6Z69DencALNVhAAHaXc57GT75WOPtTKDL5ZBXZJYCUAaIBeCJE6a6JMmNA8n35lN3/jjYSZ01y4b57S2+Q4MkPu3t1AGjo8Q6Joa6zgB0u3qlmEvmn1RF+0eNFDq6duKgKDgMB3fC3gWtg16imxA6zsxziFbVEZ4vR/ozjp6HHY9fn6W5jiDw4ku7w5/8AOVpQj4Hc2zxfmSGISCOLOEb6CBU2dLuySMKOxxd97bHbYNbrnMabV38HJCbTRhoCF8I0sX2QW478Wld5Gu+xBeHnvkgXT40IFYRplVq0E9VwvC1Tbl8auMy5lfb5aPl8vKeWc6Mi8vyymXVZ3G+Nf4aTBSAMCBoMZguxpR5kaaNhNducDyc66YzOhhJEP9NGidYIcYvKt5GGFmHbsQ+G2aOjplG4Ong+oEDMmgsNGLFqIZwSP2nxJPocFZug00nfXxqhUy8FyG8Dm3ea027IdofrKvMz2IwKMo4oBp9ho96nhKfxLWzjZUhwwny6oOvlL4X0A16XbLE0iq5t1L2y5yn5GBA9/1gnkbL8M5x6+FbMZdD05ZaAi/55VZqnn7vsXtlVGAjKe4ivIcWYo2Rlt5ljlJWHawhpCvT9TWNJg+w2kj+ETk2H3iEeoG09wonOqwvlYdm/FmI3CybONJ6JvBJ9MZcr0zDhZvi78KXcJuZ19jOjeMxbyCJXhyP4dONTPbV6sA1MpJ4tkuEIfOjSykqVnUrEWXxDeFPvtkK+6LWxvBF/OILPjjnbj2g/VxCcOteqBgCBJmo50KY18E8V/bnu3stjja25z6cSKk0dgQSymmccnOXRc+G24VnG4mf7Lthtwv8WONP7bJuKbLaY2e6e7IkQZmcmhjYqulws1daS9CxAc/2MqMFGt94Ks9ST2GrkXRAregKfO4C2ArJDSxNPGHfzScjh8vBvXVqpTr7U4bvUOqTWipCHWFoFDk77P5LyFULC6ymwYtxvZdPaFmV+MQdbH/MIBVkOjo8hRMeCy7usptzeWtVp/8fj04lQdD467Hn8w341MPxpAKAB5YNXFhNB24/3DqZNDX0yWQ5F8RouUVocFlv1GcJ40OXYj2FFCpRKTx7pDoYFtlFhr8YnlFPCaMCE8eqa23zMsc8OLvot76Oio0h2oyPCxsB0dcP4bW4fC9B4JPjI5OxFZN89JWorD1Kso2j7Xw6UbgdCP86RqhIQPfatcaOFcjSuPnRvpcJhp/1wpXhIYYFCsdAaAk1Qk6WV8FAjMHeZpbEXcjUU7SMRPMxhQqnOn2s2shHHDwewDJDoPiALht8KoOua5lRM/SVq34prcuh1E3/TRS4x7OKVcwgD3EX5lhC7M1T/GD9hn82fMcxfr92mD5hjKcfKPqWKHnOVy3KhAZ2mmfJXk09pUZO3DIeUSkqj+5fWWizswrI5txghmR/1pw0vfCh7p2UjfiUQ8HoTq2IXVgFBSzpSi7YG4rdaoIDTTqyrtKm9vZZbG7tTu9OYkf/MVCDVquZ25KboO/y3DK3/P9B/Y9kv7OR/8CP/HIeeFUvM54mu85bvU9l1Euv7u1M/1PP/yX0+H+A+n1828zYOJGW6a9DpwyLnk3rIdP5bpYD4UNg31R3V7Ld1BRuyBzmsXIbRohoJ8li/3MIq+sgedMC/QC9gih2DGcxbtjXnYInK2gJV0Z9gsdaDEsM1ih3yrfeRl5hEBBZtqtqE73t/WhKjwTmXjihVqMZgaXXQgP9/c0pgO4Jl4i3qf2daSfPNybhlleGQ27ihXB7mbDSViW+/MKSHif+6YavjlO+V7OI+NRvpfjlZ9r4ZNpnH0+9FATZwjg7wLGcRlNzMGDONH6EPYgDWp2CpCrFapjkDcfr5Xy/J3Srp3A9EBreuutmfTKK5Ploq96Nm3Gp0cf60s/9VP3h4ZhHtuY6Fr6KZYY6XF7HdEmjCDDFTXCxRYGuP6dXQg5l9OF4aIcNYxqF+4Ev+lq3EvPX4Fzhmeub75fVanSj9XgZJ03y58y3dmwRpYo7mCgdpnBo7HvIr/7OP3SFnoZ8rPLEwqz0tu5E2c4lGpu5VsRNX43ob3o6eu+Smjws0K3naK2IvKWBiq0YBtcyvG6FBoKyqmMZ82cOrl3z470OFqQ+w8fDAdOn/740+nv/eLPBzzfOn4y6mQZtwJOmQaul+4KLmXtCBlJ7XDVLma6mSDwTWelzCsj0pp5AOggTgd2O4BLd8pZYAgEzxnwfpkOaAARPtrRxjHNl3Adu8SugqV0kFk/9kPFeiB5iHzmuxoDto25nrbTeq9VX5HiCALDz/TjzhXhQC2CyCKpZ8HFAXWRdS+1DXeidoQViMfXhGgv6YXRVXCiEBn6Wdrjdk2DW0q3kJ8HWIUqjPfWOxOl6W2jVw7mb5tyvFowMK5pNwInVeNRT+om4ivKtSM0bbkDAq/ZwlwTyuCfAwm3uJtP+92NqbuhLf3iQ59Ov3fu1eh3B6HCtSkRjW/9aLsMwLY6UBawLGAWGZJXMwLNpw8+kY703ZMe2/VA6mpqi/SxXhnLKORFQjU4WYonO0KlDGa/noxnq4STLODDBx9NTxx8hN0Gy2lgYih98fkvbQhOm8Ena5CDMLGNXmvRnYO0R1nv7m9Ow3hq1HDxa88Pp48yKHi0R/QRfZ8DTeYdyxkIF/Oom/0OEOJzxkF/ZmHCvhL/Ip8KtI0cdAEO6ldEuApMheJiuAHLYZTFIVp8J50u4C1HNftjnDz59C7OzcBaX8FmhkHore8MRhka4K1Hd1HZyp+Nwqmcpvxs/1pe7qdoVzlCjWfjmMa0mZ6sh5fvvHIw7mp0t3cvZwWg/p/n6GsFhgMHmtMTj7fS57iSrxg/CX9hpPDlDioHdcsxeHaLxpC79zTj1Kku/e2/dSj95m+eRWtRaFxzHSIuacr49HM/9yAq9qbUhDv68Ql93dBL8KfLcZGCfo2604+WVrTZA6vuTg9/8ACGgJfSG8fOxnvX6KcmZlJ3X0caG54IOwfLvFlwMq8cbPtG+FPuTw0Wp7Bn6OjtKWiJ369/78V0nmWHPQf2pEu1PJsC54XJGbxgTkUbAHgu/gostE1wXHI0lHpWYvhCouCNd8KKHriIpXdP+Y6bASKALvPshpOWmpj8fuiJh9PHP/phTrLcWuTB9+8+/0o6deZc1Gc1fCoyK/5uFk4bGe+q8y/j0zVCg6ogMy0TQzmDtZ5FnExcdnb1uuyaafmokYoD8ARIeomOsKLm6WXI9yXq50mXT7E39uvjU2mU32dRl+1zXTbSkRbCsKNyOwRsvqybz7bTq1xGFFT1x4H7UTwy/uneDk6nVGDgZDTSm07BMrYTgkoabJJzpHZIMo4MoFYwba5PbpdMYxoGtWCmldDEoOkhVucrg2Zx0FORVmKxLbax3Ge5PZlBGs/ncrDsjAjrwcn8vQBDDL4d7JRoZCdEDPLkUx1sh6/jE4n0+qgQNHdxLs28uxTLN33NHWkHp2D+3KGPho/3u9BcRH8XK+gkpjDaHrMhCyYzhYgi44oQ4wDGuy0O+vSJjPYXP/Ln4x3ALwa4EEAUPsQNamo+5Bv3nCcfLnPQlkxh8eJSmlqYjfsQSyjnxt2lUAzo68Fpo/h0Dbyox0bp7gwnFG7r6kjdHfVplAHgjVPT6buvjqVPPNqX5tA+2K+GwCmeXcYYQdAQpeKL38s4CdzmMKzU65/CbsCX9JFPJV7GxgJnSR45Vd6axH+AVI5alOFMWudQXAjRs37ng/YQnmr5M/d3p1eHZ9PJKazR38WBGbNX0CPwolw121EO1mmjcCqny8/WXzzOdLMZ/mS6ov2FtmIzdKf2oLOTduJYa3npvXT4MALDE3pjRCDRjgDBtaDHAv4uA3pehOdRLJJmFkFjcgo/ClNuj00IHG3pt74wwFJC7UldNZw+//k3UltrAwPRTPraV8+EU6fOblzdI0TU4XvhbpZmhb944S4LccV+UIPkhOHRJw9RvztDcNiCFkn4KdzoVVLjyHK4ETiV8yngsXm6G2OJoYPliBbGBndRjA4Np5e/9R2EhntATnigs4ccaKNtGMZocomJmksJBl4XeBy/3Ha5EMsx8oECUMWHTGPxC9w058CRSrqaNyMBa8vQpmF6eha+pRdmjCpZnrjv3v3pF37+f0zffPa59NKrx8CZpTioUAHb+OJsOVwvnKLu5YzWeK7GpyvLE34QGfIAY+fXCgLOuBZaq+D8rrwOVSsf31U7d1JV5LKESw9ibQaI9xycCUUAiV0O2Eqd9ZI4w+teCM0BfBChY5Y8ZOKmzflYJ4k9M3fvub45/+q78brVSAAAQABJREFUDqY+DgL+eA9rx5Tl4UtFngg0RLbOMkO3fgoxZ1q5zEUYskLQWiHDUzSSfwyztGL7PULblO0Qqfdx2lTukQx/+8k8bFcgdaWw/N3+tD7+9p7b77PffL8enBoZ0J/s3ME4zJ5xBuhOfDJIewX9FcQCeYeQFBI5FV1mCJ5GQJhYXkjDDMIji7NpmiO2Fy5dTK9hyzDL4KyXyFlm87PEm+OIdL8tci1zgJf3xcp9ieclny8Th3j+XrwEMSGMaICqUKIeQvjYFgUI4e43B6/i2bjFN2GmhsTvSyw9zC3Nh6AwMHkh/fHb30tfe+PbnImxnP7lV34jPXfqlYDrRuC0EXyqdM+VW+6HjdKddXf3xPbupjTJDgp9LExiGPn0I730rbuXwBYRhmDeahkGsGeI98Xr4m8ljuiprNCJDUIdTDPwRPbH+6A67zyYvuhpklfSOrpYhnkY8nfzMJivBpYuVyCTpDlmep1oHA53NqUubChaea/LanGmyy2eJJCeLpJvLiIy4s9m4WQdcj1yHt7zu43wp3K6/Jzz3QzdtbXdlfbta05nzy6mffsb0uOPb8WYUe0Zg7RtVmiAmDyxcmaW8wamLqYLF5Y43nqBw6gw0BtYSBOTaIs4Z8IzJn77iwPpP//nM8SvhlJtOB07NppOcYCVuyJGRsF1tt6OcR8dnUvjHPQ1OTmPxmI5nDsVcGYtnn7zOWxp4C1qFhQsJ0anERSW2U1QF8dnx7kUGTil+/XAyfKuhz9dRXfiHlf/3l1pZmIqLSMMLOFr4b6HH8CbJXYJCNEGcc7dD8tsIT35xvEQCrQZCpznu/d4Jp4I380uuUa0q2oN8jdFjPIzPwnSSTkU6csInb9bh0bs41pbWiLNOEsq7W1t6cEjh9LuHdvx2dETOy1sX293V7gcUDuxwLZPl4h8n+lCeOffvnMsuJ7xrlxzn3P+Zf50RWjIA48Fe60WjGdGGSlqxcuV9m4wbq1QFhrcLeBsdBhJClqqhOKhOr/81S5rQ1JsB6kHKirETn4PMuhOgQwG02r0kQfIrGqU6NcLXeT1o3gD+wGWQqzrRRDGMkNtDhZ46qbbRrU9cGBSFWWI+jLAukW0eldIRKj8MZ6XQeah4adCE9lh18AphHxzx4jnUcwoSNUIwta2eM996D3D3Ltt953BZ+Obt89ZcvX3anDKhpANbA/rYDkgZv/EFyb8D3qw/2YZaCcQBkaW5rgUEpZCOFjCOMhBfQvCxzRCxLm5SfqtMfU1o5IzA2CqiOTgr4fIClmHpqBY2iBOgMl7cTkrUMPg9/eAnXdnaAZqdSVePPuS5tvG0FYAXwermeXZNE5dZhfn0/D0eHru9CvpxOjZ0DI4bH3p1a8z2BXLPBuBk8VsNuQ+2wzdzS1cxBhuS9rKjgWFAs+k2NbVlA6yk8JTEG1ztFs8wgnUBEJF/F6lcmKtQkNj+ALwF32qQMA9YOZvX3Ple5G/cSpCQySraNZI6zY0jZMb6Se7THgvUjd/K2z2YNC8Z2t92o5HQrovnUMAEu8VMLqY/YpPChqRLUVfD5wyDZD8qmCbzM+7YbV4VyWq+mGajdJdZxeDLk6dutA2PP00kw8OrNJWQIFvZgabgaF3ERCWsVOYT6+9Mo3dAwMd3jZnZ12+qfAcqqozJtAxPfvsWJpCsKgVasFJ4WQWHNixsw2alzeQGW1X6JgLD5AYXR8fSa+9ej4ND06FEDE/zw41CtAPhANUA32yfXdv9L82DjOcgdPGVnO9Q64VNgMn87ke/lRdvkLCFnj+tj07k5qH2anp1N7dGYKDBov2egGnu3ACdS4NnRsMYaWCDgXeE8d44oja3U68PLbha0HX2r43XBEaiBPP3CNN8bn0F0hmROatArgCSwv2F81NTVG2cJqink3YO2yBz/Z0dqYjaB327dmFo6/mWK5wibaR73093RjL1iEEYlNCfhvl46UKbfixFj7F8oSAsWCDzOt6iKhcC9M7OOfZbyaucpzys/KdpDGq4QgPxfBWELN5ZSI3jfX0XVyATBa5B2lNF5/fxZDFHQZ2siGXb1zbZT28NhL0wfBn2FLpllCXGNy9oKMbVeAeRgUpxTLFIkhkjllgWMlboYJfpFstWC/rIyEvwBxCu0B0D+KSkRo0/DyJimqtkNvnXfgIL6XM3F7fZybpN+HitywcbgROVqeNZYl6lxGAuTN1Z/yzzNRnmP3P44kNJXi8V6godloUjZCUlKrfRXgYmp8mJfXMDYyGCSPXWO07GCV9eOddLDe8x350mFYdviAs0/8OU+Z9d7ST31GE6ekF0hekHpkamZ/Fuzs14kQgmV/isKaL89gDLDIwsZxE/hdmJ9L3Tr6cJpdmQhARl4RjA4aeiwhCm4FTpeQN3a6X7mzmCDYN9+xsSW0YMKpp+M2vnEmPH+UETAZdBwkbr6Om8Wn3hIuf8eqaevk+78SwPqYTX7wimJYHv9lv5eC7om+BPpFCG0G6Roz+PEdFOr4cg15hNOnhbQrXd9Fpl+mXBjQj96MxOdjRmD62oy195exU+trAdJx8ebCdnQbgwRCGk5NoKL6f/Knc5vKzMMr8shbdyRPcSvmZz7TjufEy50iwRLFIm04vcvQywvUIPmjYdacGYBkhwVmsMNSguwfPkLABgtA3FAPSLEKiniNrhbXwaYqTTdUmNLDl0m6Ovov+9vlOhAq+z3KiKULE+YGJEBSaOQ67hWXZvu1dqauXg5vwevvQYwcRvO9Kzz/7evrpv/rZdPLt8+k3/uVvX6GRWvVaD05+v1H+VC5X3jZ0+lxqdxmvvy+NDAymb/7eH6ZnPvPpcMjk+OAkTX8L588U9jUBZdE7g7uSoXBS0FjEjXbY85QLKj3Lu9SSGUxzhX5KcXwkGlomDolDYHASVZzH41I5Yx+TxnfhqZffYxcFeKC25yF2f9x/6N70wz/wsfTlr/5x+vXf/O00zHECB+7Zk3Zu60tnBwfTWZZXDBvh4xFxg39Ww6fQNFiYSF8eSFbLN3euQFkNMKb1Wyak/Ls6z0LT0BKzaU+v9DjsGByqI5Z/VxDeVxnxFRxU49+L8PCRygmT79ABHnRlL7mfNhg/z3brateTW1vS39jRl7YzC3qcbTYPQzAuGciD9cjYApwaYIYGj+eWqVmE7LQccr2WYY6LSIdFinKMleeICwKfwUW0DqHMnmwxhlyOrageWBXLNStJVn0q94n55r7y7pWRKtfPjPI30wqjzATLhXgI1Q+yk6CjriG0CaPLi2mI5YbzLDuMotqfB9EdgA3usFDNZ76CJXCEuri9bGhhGsdV8zHo9za2pd6mVjsx+jEAWeTA3wJiaieWyTeWH+w7mFsddalDwxCiZQDfDlCQ4MIw02dfh9Tls3hNPlNoP0Y5WfPCzARLIYvEcTbM0c/s4PiTE8+nGb6HcKLABlNsbWxJxwbfZuAtGPRG4BTV38SfG6E7BQLhu70Xh08MJDp96utqSAd2t9KHMmH86E8yAKBpEBwB0avR9EpN1di24SFwK5d5GlSX+xgyV/FEHpHLSpyICb5yF2e1iWjDJbEaC2MGPvqBvFy+W8DGoZmdAU5PIi8++fkOJI4OZtGP9LSkD/a1RK7PXZhLUwgLu9GmtECP0pIHbAUdR4zaf+wn8btMC7Vi+n09/lQrXa135bLKdLd16924E96RnnlmK0L8nem//JfxdOzYQnrtNTRbwy43MBlhliTfvQObGkkmIAPwdPK0hTTyL98JJz1DDg4uppMn8UPgi6qwFj6ZzVYEsZ0Ypc6i1cnLD2odrP8o8C62fLpEbf9hE4ah7cz0Qhq5MJXeeXswnTw+iFZkPOD7Qz/+dPqhn3g6PfXJx9KJt86kE2+erarNtT9Xg1OmrevlT9eWVODe5Oh42nVwH/YKi2mM8ySa8eL4gac+mJbRRMijJkZH07lTZ+ADTLTIJC7+2A0rv4E9fLGxqYFjyruhhxW453i5fCdGJjTt1YGxEiKxfW2MK15GzTuenNAowExNzYSmoYFlkAixy4byKLMT75ZPPPxQ+nOf/VFswO5OL7/+ZhoaHUt7d+1M29A8TOLJMsN3NT5+dZ3W/7UaPjFxLhi8yL4eQa5fzNUxsrYhCyRXfwW4EjcvNfxzYPS3/4pu8e8K+GVM0WHEtXPM03uopblrnPgEhj37WWvbh7OnczCcAZAltA4IFFeHlXzze7UCP9HTlT7MiW4fQ+12Xl8PSH8yQmMrOLhjQlrVEFNLg6DxnEHpbufZFvewW+/q0ktRo7UjCAhTMESRV6ck/TDJz7CGplL/91hDNK/NBJmQdbBv1TjkPvZuyPUzX+Oqes99X7Msip+6yNong+00WoXwP8E7Sc116CKNdZRhF/2ay/FuqTOkHWV7ZZbGfV8E0xlyf+e77wp8CKGBaFikRN1jyYBZqu6NLdsUGVcs3+UKJf/lS4tsTVxIs2gVtH9QeNiCQFAH8ToAvTH0dnp96J0QeBrQopiXgknsvPAZeOWBZUNwinps7I9l2R/eM+w3lnIlludIOBjt39WS3jk3m77+/Ej64OEuBAA1SSldGEf3I7MCHgDOjikSFwDLIAv5ahF6CU0BUYS6WoVK7EgjzgSghUv+wN3XCrqeWaFWzE+Fpi8XUhQr01TLcBFCYsWNSDkTvkMgrr6pZerFZ8TPHelNn9yxNX3p3FR6aWwBON0RwsP5mQWW6dBYWehNCOvxp80WUU137lA4feZiuvfQZU6jXE5vH19m58Nd4ZxJeFq+KudygAXwDtzFYJLlazQywsnZLv4CWEI6f34xvos35bAePtm35wdm0pNP7k6D52dZigSGZCFLUNNxMfhvKUe/qS3iMm99DFzEzuqdNwfSzj194MqlNI5XyLsZ4EZZrqiuTymnax6r4XTD/OmaEooX7qYYOHk69e3cAXKl9NUv/n76yI98Aj8TnekifnBGWLqoFcQuoZuxTAFLnxTL2nKw5PYe/D+HHNffBV/lAXgVvaMm2fGKbcgtDRwOxo4zJir6jLiSeRE9dqi4nVU/HkFUZijjBBcU7GI5Cz6mZ8+f/4s/nT7zqY+nL/z+l9OXvvFNDCTn0n3796VhhKChCx6TrhBa1MBsrieshU+40a6cBwAggjFcTwmrpMnIIeNVajGUy3BZoQNVpjNs3M6EEGAceZxgt9kOuDZAxiRLciB2iUB7Au8xqzUiMbULGgfw59Ay7GJGs+PufIxr7n7jXRskW8tpRsIeo9POq7ZCaOglD8spyLpyh9iNu3awQiwRRL1Wj2m78sFbMVjx2+2kH8Hw8iAqrJMIPX806QxgnYxWKcL87YNMlDma7+0HLwcsf9s/5b7JcbXZONjaFTguHMyLHf2VzzIUHyv144ff/Z3z8ot2CgoMDhoS0FUUE3mV25fzJprfIJg6CK2Jo2kd8C+xxOGAdvmSAy54ZZn0SBgxkc0ygt48/ac2YQkjS9fS1TipPfD4cd32+u01/C+cHj9PndDu8F44ZQGBylt4wMX7RuBkvI0G4S2cvAv/DKuNps/xrOYQg6qGdPt2tLANcyE99/p4+sTjfbGzYprteFtgeAFxIyvxGspdQKc6KCMzBJ67+ycEBuoWsVU1OMAXKofokiKTotcla3cXxVyN/AufDTlGAUPzse8NoZ2jAkXevCheGzHKkR3LaLejYfiL9/akjzIrfgGjvWOc2NiB8F9PtAm2j6q5uNGwHn+63vztV/NeYuD/yldmWXpA4IUZfOLjben11xcq2yRr051g0tYAjXiFlgAL8HfyqUvo2dkCT8t12yg+afQ4wdWJy++FBfG+6J/CPTT+F2S8leBThrBtcUCrwxfO0Yf3p3sO7kwvfe/t9J0/PpZ6+rvSqbcHgnZy2o3eM5xuhD+tV9aCnhfZTtmPfcPQmYH0jf/2pfRjP/OTCAGzbM+cqvCjlbauQGAlZycPiziM0ueCwtNqQTqO9OJyJRhfPw8edCXrU+Cw3cI2xyr6vDB8dwJX5JO/5pyKvlLIVEOxracn/TWEhx9l2ULB4dkXXmKcwB0BfHJwZCTNM1m63rAePhUjOblvlHGZoWGj8SMyfwJQArUE0L+zsz9tQ2g5iQQ3ivTlACDTchIp/iok2EU6PCqSObsvBip/54HWMuwEfTsMIQ2/yEKh27iCN9oj1aGqP5y57MO3uOW/wLaWZ6dRVVOB/otb0l60Fp0wK3lU5EdJ/ls7FN9lpAoOCjOmLQerICPV+HGJemv5HvnzQSFKzYkCkEy0DLNyHus953T5vlp8vweiFkC+KtrRtp70N/c9mpoYHU7Ps+bPAOvatF4vPeo6wMuAUoh4VyW98mMSO4IZjCKFh+NPGXw1iqTBOSmuYSm3cUtDQdwxeFVwz8GOwdLyZ1kiWcBwqx7vlNpWuFSiVsE6KSyIPKoAFSyGOPPixYE30yS2FeJP2fbCeGuFteC0Vrq1vm2UjnIfVsd3VnoOx03dWzniGIdKx05Opx/Ab8OU6+TMTj38KBs1XtM+0ZQmu1TjcofaGbUs0ae50hWQBG76TcmRd2qMGshbOrE/ZWRXpcvpufte+rE4cV1hr8ADM/dtJVR+hjzgaxLuxlCyH6PPDzLQvTQ2h0OwxTTA2rw7L6ag9VMIFeWwGpzKcWo938y+zXXQVbTXt7/NTPC+hvTAA40cXIQ9wHOz6QL2DNK8KJfjW6/8+yI2DpBY/FaI2LG9MXZTTLKLohy/ui3V+FH+rk3D8IXZdPRoXzoBnijwGd+TLRXUXJaoDvadAkM7x2c//MS9ac/+7WgYZtLk2HR6/eWTadvOHgwEmznoaa466bq/czvyfbUEfree68WrlV7cH8czpFqH3QfuSa9998X0zGd/MHZLeIKlPKEcRDvR8EqgbP8tYVj/rpLcBoK2KWqNXWbQcLGwhZA+SrhuPpWCwo8D9fPnMprcmMDIt1YJ9tUykyfHwu3btqW/+Kd+PH3yqafSd196OX2H67W33sZLLIdpEe/Vt9/CqPZqGlkl25qvr6kzsbaoIsuagCx510x9HS/zbMqCLac63Kf+jdB76a40AxNQOKjMQXgrCAGy//Msx8jBZPgW1OWvoiM0UnQpwd8O0jI12+N1Tah0lu+1ObgHjcdR1qw0cJSp6TTK+dlptut4SNR+BId9fFeoKGxvKbcaAa4pRCQHwPxxdpURJEeTANwRMUVZGU7W/jxGj/8Zo5sRkGgEJJ0nzvUG+9XLYH0z0eW6+9uy7ZuacCJdO0aIu7E/mMEgcJKdD3djTxDug8n3IjBfQk3pNlQHaZeLfHLGEmVRpks54wzqgqsAu3+LPrNetYK5UDMs7bUhKdx7r8Sjn60DwuYYQszp6QvpleETSBAY1fXeAyPEpTinz2n7IENQMAvhgbqdHD2Xnj/3OjBluyd5CAeZijCozTCLem4ETiv129iT8L5ZdCdzGMF+QbuOJz+xO+3qaeakSmxIRjFswy0wrwPkoQXI1RMnDdwVBJbRsC2xvl7fUGailTh2HkHaEpoaOTahJt2icManyKoSNSJe9adY0lPQVChZQjgxj0CIq+Jl/FjBDou1RDF4G8sW23a0pyd72JKMpqET24kF6vsPXxjAruZa3lKVdc2fme7Eg1r8qWaiDbzMdOdWywZUI+MT+lng0L2+99LOHexSaWhN3/4OO0bOLcTAXSvLhQX4BrCKg8SAwZYt77ENE+3ZKm3dCD4Jz3Nnp9MRhAa9Thqcueo6uqxlKNfHgdLtlk9+9H60Cp3hInlsdDL8B7R3tWLPcDYdPLI3nT97IbRm5bTrPWc4Ge96+dN6Zfhdbd4YbqIXmEz+xF/+S2nv4QNJDYRLF1PYPbg7pDqIzgW/Kr4I33m0DVu3FnZYtfBXhq+xdQNL5K3NnAQKj6qkjvZVflQQXMymDHioQoNaDIMDvH3iZCYqIDk6hBm5KkhPEp8C+Pa+3vTjn/4Ujt4+mM5gGLl7W3+ao73/5HOfS1959tmoV1XyNX+uhU9bsnpaxmgnGvlmBVXe5rvaoPS/4LrTY6V3olJpBUhxMiSFF2yrVI8KwGIgsieD5wAsgBbveOGAq5pU4Gq4YhK/yRhsk3HLwZ/uiNiDhuExtrSEkMHvOxVQuBvfergN9EUOjjqPpHmUeJ1BbHb01fmV887P1sqZGP5ZrgrWS7sABRIFnHpUyJb/ztwCA9q7HMjlcdjXxwgtyH603V5Z/e27DA/r7nuvHN9v/q7u/z8ZO5f+xckX0u6mremVqQvpEJqH3obmUPvrZ8FdDBfxVreg9a+DPUZtWQNk+eMM7AvM/s2/ZhCMlU9x44+DXJMGj+xsiMBvk5ufSw1Ds+PpzfFz6S3qNoFBpoJB/1b8y9Prc/yeZXdEA0abLfXNqZUtoiRMrw0dTy+ffyv6zWWtsKAWJhRm3Wz3imxq/4sGG4dTzbat89JyvW4G3VlfB+RGziVwdtvJdkbh6M6Ieg3qCIL6Ct6awMDdJ6KFh8k2ZvURh7QKE35UgPMh+oVzERrIX0Z2yS0TRaaF5oCf8Zs2ma9B1e4lBBLdT/taAUPNnnnlOBGxUo+ojd+KguOT6/rZRbxbMrfSHgXUFmbqHQgP1ys0rMefovBN/Kmmu56eYhDRa+PUJMtiLAk0NWK03XFXevqjbek734Hmj7u8JL6pgbGw+MNAjgdY1owcPBQ8hKZuo6vps1y9jeDTq68Op49/cj9HO9ex1FHYVKhpKAvNRddppHkp7djVnT70zP1pK3Zey0xkFnAgNsE2Sy39G1lCdb3foKvktepWrmc1nMS36+VP5XzXe57F0LARj5YebOWJu/VoAhS47wCnAsLR8AJvr8mLzpljHFAoCNQlguRRUJaoTDri6HOhhTLkgSvwKOdpPOLL3n1NGoX5ZSZlvrc+7qCoZ9m+2BobryMqsYlepPe5qK5COGNZhXe7hfMDh+9DI7wlLTa3pM42jgenzit1MeXGwmr4FMsTZmiEPNBcTwHV1TAv8xSYq+X3TTqxBcb9o2yN6UQqawDxpplZuw4tAO0cg/lcuVdemu+V/Hl2m6JDjJ3qNweSYp27YMq5Ht75T4e/l+5Bg/AIuy1EGRmZA7eSXzn4y4F/BAL6Niq4vWgldpOuCaQwOLOuFSxDAzQ1DZZlGTnIMMeYMWjPoKAj/ryGwCBRKj2qfbiekPuvDPssGOT88gBln+QrE7HwzO9yn80x4H8Bdf4n+vYmn0+xA6GTAVmiEJaGOhib6jj7Tc1DzO75NI9DpnEGcAcCIFtUoZKm+FH6W6FAd180cViUmoBi+YBBh7TTGAENLkymU+x2ODs9lqbxrWCZjVvqKfNipe8KXHGAmie+bTiPV8eXBt5KI/MTqR2NiYKISxbWvMCrol7GdbblvcARLPUR3LIg5fu14FRqyYYfzdM65H7z942ESRz//OZXz9GGO9PrJ6fSG6cn03Z2VOjToZmrkQH/bgZay2E14QrT0sBYZqVxaPGSG2ChagEno7o9shFclWFYzZjl8Byh0rXxHPn6J7KIP7JZ26ldkulcCtF+yJ1JWfshWgSN8mD/Qcax9TZXIOrHezVXiwpH9NV5zlHQZbX5Rnui1I39KdPIjcI99185TzlDd/ddaBjcfYNDrhhs2fLYj8ddCB5b5/ThD7XiqXFLevNNjizHu6MDggxeoAljNT91aH48KGpyAidoDPJrhY3i0/DQLEJAU2Sli2i1TJXeinfmY1vuO7ozPfz4AQz42EWGACM+6J9hDoNU++NO+rCehkxy4uXOPf3pzImBtap3Bc/LcLpR/rRmgTU+fuHf/MewzZgem0hvvvBaamMbaUtrS5xZYTsbaI/ofLlKwyv+6jVSPC14mThuTLkb9KF2gUllA7zLdxvBqZiwMN643VLYys+kAW1MWhjwL4so/DZ/0UJaCRqhf3x2SdB+8Mju96AJl5GWMKqfxxbuDt7PsNQ+NDoSfCsOcySfzYTV8OkaoUHGWDBNq3p9QQCrPjYfkcJ7reDgaTiLTcN9lKvLZA0P9eao1kFwOaMwvxxy3arfyUQKebyYkWaGb7xM1OahUGEv7KGT7wdJssDgt5VS/HV1cOlDC/x3WAfziOqdINd2VLRuxSxqenV8f1nXLbHkUtTM/G2z7fPIb4UUD0d9c1YiZFCiXto4XMWQzWidkNuYBzXLzdqdTKDm7+Vvv5nG+PaPxje+d+bl5Tu/G9+8fPaAqrvupN4sNZyem0r7ONQpW7EXcRQe6D/iKTQsAecL+D0oZpUVyF4FYHEiXwXsFT4aw+ARtARueogcm51OJ6dHcRY1ncbQIiwhuJA92/ogzqvyWwGSdhe2562RM+lLb307nRwfQBBpSN0tHWkbGoneti7OrJBpIizSVgU/22h+WSq3DE+5tG0bhdNKDTb2JHwt17reDLqzzq9wZPKxk8cYCKg7+Y9y5kAns8pmtjQ2cbXi18HDqRrVmNlemQ7V5RaDlPeABXflZ5UU+n5gc0REqoxpRuKFKY1Yufsqv44vxaTBQX6WQUeth14hHeR349bYnRQFIyzKjz3r5BX/vFMBacF4y1zikgLFWdbmtRWyKNd1e3E8NIyK3bpvJNi+jfCn9fIq9519WKY7nTm1t1OvNzFIQxjw3Inx8YvhTroO4U2nTZBfevCBJlTeW9AizKUJBIOwwanAdRk30pca3+OExbr0rW+Or1edoNdynayPV3V47nsD6TM/dgTtB95VS8sdxlU13sTR2fc/tCfde3gnLqY5MwN+ZV+YVaFlKOjCQautvTl8GHiuhS6Za637l+tUDSd/+/1G+FN1+9b6PXx2IH3ul/7X0JC4k6EPu7oWlhxa8cTokd9tPHexi66ltTXwy7pFw/m1AO/3BMs7K9oV8VS6bUZzoadGtUIB7yASSUQMNeS7zxBUIK4DP1lDo3MM7tNMSNXIzVOG77dSH3drFEIBgM9Cg0jOcwTu9sG7aCk8H8OlDbM+c/58Gh0bTzt6t4Xh5u7+7emds2eKulWSbuS2Gn8KocEMjOBgITHl541kXCuOiOBV3spXK57QU8bV++FuLHNb2WcvM2gH+eqpj0dgeyabaO9sKDqkAv/cITIRZ/PKhyK1cbxcp4plCp5tV0ZOejztJv+wYSCdA1w5VLIvv7ryrABj3h4eNct9iHrfg/DRgyppZbazkp9ts255hpXX2D3F0r6foF4nYR4N5OVgNUCn55MtrxS6xoMw8BJxHeztN2Hu3Xr6zfc+Z0HB7PxtHIPfc5osPOT8TJMFCPtK2JjnCbwodrNE0YbhoWvV5aBQpOAwxxZNz/9oY3lgbhkjItoaOdQAsK8awbtmNBiqoqewnTjBUsiZ2dF0YWGq0AJBqBJQaGyIUys4yMXSAx+/c/a19I0TL6ThmbGo8wJ2DOdnRtg6OpdOTZznYKutqbelK7Vz17uas6ZwPhSz7SJ34WT7DRuBk/G9NhMyrd1MulNj5azDcIZjtN2a2YWRZDtb9vQOeQGBoZVtmV2tdSEQ1If2wbMiimUE0ynsuo1SD45qzBzQ45AqYCzu8ibo0tbaLzrkeo+1NtAZupOXFAOQ/XUWt8WD+JKQHhdgjOJBHzYKYo5CwRWQmRn5h7DAo/ZFCgtqQCzTesxRhssROxAU9iMMSZONEFibs3Hqv5Gwcf5UO7eN0N2hQ814VsRWiFmg2kuNGedZppiY4GTSbfWB5woOOjHbvVsL+5b00ovz4fAp3VkI+Mv4tRA20tSZM04v1g8bwafzgy4vaHyNHxk0INGR/LE+Xd2t6ZEP7kvbd3ZTcEFzflcLNzGOTxZU9LFl0A5hWbIVTe3IEFq8Lmbsbbg2x0Ayh43A6Wbwp83SXfBHhDgF1mG8Qbr1sgUfDp14jZzG9fQYZ1Y0IgT09W+jfWghYjnjbvpvASELHxd3oWmlkY1onFuwXahnPNEez9He94HEcReX5cX2J+WB/3GMNnCWFuIIbXDjnZNn0htvngihQz4pH96LJ0i3IEtTIoE0wxO8rMjeunsWzgJbR5dZznYLrHitv4Y3T5xIPR2dad+unakD19njeJrs7+mJXRU3gz9dERrMLIDJ3cLz70rbN3wzrYOOzNb81gsq+acYnM6hVnkIVR3CdTD5ZgYJfeFPM2MqTrwUcEUQGQ2BLIDS/eFqAkKtSf19bx2U4nIdvGufsBcEeBCpWI2G8a8JuZBrPpReWAY/R2DMqt/VWuzXyxf1KOrv1yJvl39D2Kgk17hRwWACRniMNvcpnfPtBKqvWtWpJLvqVibGaCf1yQN/wITfBr8Zcr9muOV3/tZ1tH3lldMaP/djcXcNuegXvflpuXsKweHo1t7oq0pxZCtq69AK5siOiSYOYvFoWs+u0H30PMTgwH6R9J41IfydyXZiuKhF/QBLH29MDKYTaBZmcSBlXJcTnBGYLxWMMqx/OXhOhMsV1BJgp/QHb30nfePki6ixOZ2ugo8ZTrMLc2ma9o3iNvr4HWdSJ66s92/bk7a198QujeX33M2Cp0u2iM4QV1hsFE4Z5zMcy3Vc7dm4uX+sa/69WvzV3ud25jrkeIJsHtX3Iv1xnu2ZnQgKbY24qeWI7RFmmtu472RngksGu/DO2IcDoCkcRTUhvbt0prDgbCa2ekGb8L8QSHQE5EBo3T3hMk4/ZczW5kTVrkxNqaCOgWUGIXkJvN+iAAJOzlEWmvficDe6tehX7vSdzNWjtHU5rcAgGfEfhuq6OTtFWJKQj2r02QrtPIUzqN86PRFCyKyZrhNWg9M6yeLzZuiur/duZnsVz4200bpfYuv0FLsfuns8Awf+xMAlbGVnfX116cNPbWGnxXQ6fWqJ9XbORWCZu6urPg0NLXFOxNpeYXP9M/54Xw2fFnFDPnBuOm3rbw0jSNNqDLl9R0f68McOoQ3BfoE+Uuj3JMzoA/Kb5HTLZQQ2BcIchEnrVpcvLsas1t8G79JcprtbyZ8yzttmr42EMpw8n2IUI8fR4Qss27RzGmhT2rV3N0sxb+OZsyft3b8HR1Dj6cmnn0CY2pEusvRZh5DqVso7KU8auAzPUBC4k35+D/5WCM6eTOwY5KDOe+AW5Qo/fssvpYlpjDLj+GwED/OamZ0NYaAJ43tEiIClfcDISnq2GyO4LFLnRe56XJU3C2cFjrdPnQ7NxfaeXrSKTemxo0fTV7/97fTQofvYhj15RXt6PXDK+HRFaBDQZmTnZunPBmwmZKIy84wk66UXxVQ7nsLQ8H48MDobz7MPbRS66Jx6EHAagGi4qDrScopOL2aeCg3RB5XCot7EyY10ScKZ0G4G98dwC40h8hUNQ0byDMQC5derNX1OfZzVulb0FtLeMERzHwYw/RqwUHbOVy0DZBfr8towjMM8z8JEFRJ206nTdPwZ9tSW679W6eZr/9g2QyYY25zb4Hu/i0i+N075m98L+BXfMmHnPPyWL7+pMlVzcydMz2N1dSQ9zFJBDyr+voaWYOrmaSAlMz5OY4NQPLlSYmhCi1DPwD+/BRe4+EjY39qTHu/dm1rrmsKd8FtTw+kNbRXQCni+h0duq60Ii24IybaYj7lnuIYMwRtane7t3p0e3nEvz3ekf/HtL6SXBt+KeHWUW8BpRf0Zgxn9L8m6NXMU4WfqzFyqP8/WPow8t23tSbu6+tPHD38Y2KX0H771X5npFhqX9eDkdy/hXQvmFFkzCOtbTXex5AUI3WXh9c7gXNg7LDE7P3lhIf0AJ08ewS21yxj1SLoTaAfcUqtTIQWGYtArBjlh6Bpq2GSBj9JX5M+zQZgTM3DIpYUlhQhxCoA62Hs89iLv2xFMyJq+kh4LQ04Hq9htRPxw5mZHG/g+wLbaCQTtOgZcz7awzEe7mtN/OzMZWomtaFCm12BZ4o6X9dsofyoKLwbBjdLdrl2NtOsyKmfOb6De4nGcZklm2iXMzbzL0oV4LV4WuBh2Hs13po89056ee24mvc2yxvKy9YXWhl2+FA5i7fphPXzy+zhag07OK1lECHAp6+C9vemJpw6wts+ykcuXinTASp6gMavHObs0YWepgbzSLeSlLYBnUKht0L5BwbKgu9vDn24W3dmucbQMXudOng3Ngydcnjp+Mt175GD6MEJDG16DFziuYHKMM2tm5kJ7ENoExk2XZu6w8fST3JneE1zxWzzIIfM1P4knCgEG+8X4ChHz83PYSLBtEhyRzkKYZmKkvYJCDhAmgRMaPpqI/0Mjo+zUmYzx4W4mW+LOI0eOcnpmfRoYHk733rM3HT9zJvrvRvjTNUJDHjjsdC9/bzQYX8KyQhtNJ2LWwWjH4B6DIPAuBnbMTQomQ8ECXqMpbQemicP8M0gn94EahnDAJMBLFbUzFEAEqOrO3dggPKLAQGpnKgbLzqF4Xvmd39e627k5RBkYI2i8+D3WpXZQjsaSHpxl2bJPEUgnQudBjtfxLObSxm4EjEkEjUEQYCMCg/WTOISxz9ZBGNfqfL8bz5D7M35U/TEPCcU+M03O12h+y/14mZ0MvOC7gkiBwKryz+IWup0lBe0dhIh9Nces3+2ZOnEKOPEhDCPJvxk7BF1Af2rn4dTP0dhn0Cz8zplXWDJgKxm2Cu7GCBfRxI3caENYZ6tyIL8I0UWVulKeBpMf2fNgeqB/fxrERfTwLK5Vu7YHrHJ7JLgrcCh1ccCJBgnXRTQfMwhCSusfO/xEemDnoXSof186ww6NP3rtWxuCU+6ffM/wCzgUta/51++5fvabl783Gox/PXR3geOWRzkwydlOS8NUegDPkv0cuf07zw3DyC6n/dhD9KKZaGaHAsvwLF0ivKE6V20e/sain6Q7/4EiXuKJFecPpMluoIrGgK98AnkQkGjaMrT8Hpkq9LnrYxGi1ObBTMytoPJKPvyexMJ/EA1IYAFxXD7RadhenEAd2tqQ3uaMjTbqhyIiljytQnW4Xjjl/lzBp9Xpzl0IfX3yQNoFDOvqC7y1aaAW+JzimOtW3ERLTwXUABRtUsByCeaJx9uYJaJ5O7+c+vvr0/eem45l47XwyaWGe+9lqY2+OnZsgj4qhLZa+GQ/DLJE8eGn96beXizsEbwefmwP9cGYmeUjfZrYeQ6GDk726TRO5lSnKzB6z0Haqmdp2XZL8+5IWEawyzh9O/hT7p98XwtOud7ecx2914LTONqFGYz17feZmZn0rW88m44+cF/6+pe/kc6dPpfuO3Ig7dy5PbVhANkIDPTL4CTxIsux+TTNXF5h5ApuSzP8Z7YEvLBpY8K5wBhgnxTwdqvtu9hP6P5doY1lCL7HEdlMNou6VuiNbiBZ5DlN/c5iyyCrNDM9V3rWz54dO0Jw+J2vfgWtwwMYbNanhUp7rxdOVwkNNtBKmZlMyE7YKPMKBlxheErx5rNWMH4gGmkceNU2vIURSL+DbYCiSF3kwuAAEncQzwZPA9TCs5ze6GQwVwfL9p2XiOz6pzYMEqTlFL1WtNWU1iVfxheB/L1WG/wmbDKybfE3WWvUqUvs3ZTnGRZdEFMbsDyDscvbSOuW3gBcR2CUFzSsWWdwsB65jFwv+8fBfrX6GS/33Vr9l9vg3fjeq/P0t+vjzjZ9LuoQQIujr4cX59KepvaYKaKEwx6BNoUEXDBEksQM0zMgZPJ6ZRTGExhU/t7pl9MfDr5Bv1SWkoxcCbbbpQ3xcBnhKhNU/h6ER3SFjH4MG7tYZnjlwinWF1nnpv0GBQBhtdImKWolFG0B94ijtbGkOM8yymvn3kqP7/sAthi4zsbo0/TC0fvacCoMTK2zl20wXb5W6rFSh/zkt9tFd7Y7X9ZRQ7fn3h7DHe0SuyzuSt87PhkagT62bWr34JkUD+5qS90aUfK9i98t3FFEkJZ6xxq8HV3QlHAMvAXcahTiADLKEfrOstQ8nJ9ZinNclklfLENUhA3iZDiRJNLoSGwQ3yUhfMZ3JwQhf5D/5fRYd3M6NonPA/CIlRcMjVfwKMM36lNp90b5U4ZRgSdoRTZAd21td7MjAu3ABYw1NdDKgSrFbgiEiBk0DXp3bGBnhPXKcLOxsIUwiL73vma2ZXalI0daOfOgPv3jf3QctXMxkAufjI9m78By+HBH+sf/+BHyvDt97v88lv7kT4bAVfAQTa3fQztAXJIif9+RPvPZQ+nHfvxo+sAHdqZ33uE8Cb5J505zrJPVCo0P7/UhMIXQEHY/aHvML+od3AzeDM/2qGyFh3ruiwyEt5c/3Xq6O4vm4Z//yv+etu/qT6+w62IWbcDOXds5OXR7bD09giZiz96dqYedgDv6WRpAay7GZ94VPEAhTPhnxOa+iICxiPZAAULaUKvrTpsTCCU9XV3hGyK0YtCR1BCaBZ5ysAz74zSHcrlbwjwc/eQ/xtfW4TPP/ED64h9+mfNpZqFbvYG6zRdrI8rMvKmMTznv8r3Mn64RGoyYM8hE4+/1QpmwMtHXSlMgZDEQulZtOuO/xyB4EqI8yiy9G9ebxeC+koMgE7AtMIs61NcKDtoG6GjI9AUSl+Lzzu1Z97DudD95av1dbfSYY0f51gFOJEEpxAj8DIccr/qe25nbpGrKemooOc6OCHeAPNTdjjvq99IJrFtjeQImx0p51CVUutWZVn7nPIVP7mCZltda/WG6jfaFRdkG89QQz3JWy1tEdGuQqwQyo4hLe89zBHYPRpEtd9XHssQ8rpupQRAHDxFsp8iro6YDbX1h3/DshWPpC6deQEOzFH0nkymXbf5ehrWYvO0de/G/p6+dfikNs61ydH4q2rMROElYlqFBUbns3335q7HjYmZ+FtX9majDhuFEW62v5ef87Y9cn3I5kXHpj98sx/hea8XNyTba1xvBp1fPrBixuRxxFhuIc5ymaTteO49hK33YBCHt7mxMnRhS3oN6+/A29qUzy/UgKhmYQvACM2xn1pBQbI9UKGhh8HIXxQAagbfG5tNJjDP//JEeVmkLulb7Lu05k7WuBW35ku3OMNHpmAEXg55EpoGxeKbQcKCNnTEMltK3AvosuFQdbiacqvP2d6a7Fo69ZsNBGD3GgVOlyJ4nkTiPS/fSc3OXGGAdoKEVQtHeIrI8RNLZtRNeyC6MZz7Wmb73o12kYQYJnGkmuBGJ4lkB5P4HOhAw2sGbu9Iv/MID6Yd/eA/whIawKxKGjlfm6hLeHfDPD3/kHlTt7iC6E++QE5Ef0SKOfx2ILMd3nny5wITHNmrTUOCo+VB3LoWJZjSnM1Ns5cQeYvTCmFnUDBlO3qWJcrtrJfC78dblT8S7lXRnPd55+0Rc1lO+cX5gKC7Lffab3wsbBw+22r9vNxqi3rSP+6OPPIBdytY41VKtqXYNczPzLAlhUIm9jzskXJ7QoNL7mbPn00uvvh7C1wP33RuCnMxUeBVaBPElj8do6eHbZ4eG0iD2GPLZ4JnEdSeLOO/S00P3HU6H7tmHTcNEHLk9PDYa2ozr5U81hYbcUVbAzpKprtW5Nsi43teK63cbYp4BBDBZhBBXAQkHRF1Ox1HF9DJDlzGUg/ENLjUoAHTCHEKw4H1VVPIuLK93oIp5EANFbSKqhZBy3leeAbrrruaX22P9DNXt97edZL7vQTgSkFKgZan9cPuNddTeYgvvZaCnsdt4jwHXtqw3EJbhZB1y/Op6ROVKf6y3adeS9EvR49HByct6mT63uTqevy0/+oz4ljOPCmwAweEQ27QmWGaA10Rbiw4s+kx7hK2cA3J/R3/YMYywDDCALYFLGdH5VQXlenjfCD7NcjDVsbHTUa/c7huB0yIur49xNoVlm18Om4GTce0zYSRMxfn8zrrVql+GbY6/Vtut02bhlOnuevBpcnYp4GsdTyNMOGRrDNbOumsDmoYnWNq4r7c5daOF2MFODVkbPDHtA/HPTi2mUwgfr3GS4hBun9U8eClMNLFzI8PDXQa2qcAJnslkBpuLCxjuVRO5+Rtgp0lbhnsRHL47Opd6m+ExBdoVEfh7u+CkP4WODpZS2DVRLTBYmbwbQsPRqWntGhDUKw0pBuBCgIqdFvNof1iWOHGS80SeVxC+zOmIhWCmYGB8+ZTvG9iWqZ+Ht96cSvsPsK24vxEDPma6LDN4wYG4w+qBy2XS6dr4lVfZmXThHNolPGxi36AxY+HB0HwRLoIvM8jxbxa/DGoh1PxpqS88Ld9Bx04Sr9UEuuVv1162971xyubWDLeaP2Uau910N4udg5fhzOmBgJHGrq34gOjAuPLJJx5OH3ryYfqmJx3Ytyd2XKjB0RnTmVMD6bU3jqfnXnyVQ81OAuOLqauzA4+Oi+H/wYPPggDEazu9Eu5CMFgE5m+fOBnaUmGb+UrYNNCPHu7X2bE1/dgnP5U+9+//XaSsR6qdxWbievkTxszF7DIXlisk8AV8vtYaSMxDRDJOdT7m57fcid7NO/ITiXnmI81jwCLuGYSGI2gH2gB4rYE+GEzkyV5WBmCHeIUN11hz2fAi/CjUpSfZLuNWzKytrIK5VeNrEeyL6A/+uB518Y6COCQU66j6WsLI8TWCbPKC6bVgdOKdCUYIDW5T09mUrRoDMZz5fAenKJcgMH0zbBZOtivgVKnrarfcV35frYxaac3fwTFLnpaVYbla/Pxd6fcsKnyNVN0lIYB4LC4SG6+nviXd27EN5t7ITplF1J6s9YIzmfFXl3G9+GRZ7zc45X6wXvZPPYKs77xqwTnHy31pvNXC9wtO0b9Qi2vw0wxWozCuUwzYBrdvPszhWR/a3Z4+zQC2HQFiDzs0fu2FodA0mNbgdkrdQTdjLxO4JM5IgfyXF8gz1DoMog73cKqMKyZ3mqDn1ogPvjmUHmitT8+OzAYdSmPlcLvgBBvAKLCYpZfLj2eqpDDgIO+y7CxCg3YHjXiIVGMCavAdfxbA08Ok1AwMDCymP/jvIwzuy+lDH+pM29iqqQwbExQSuMznEaEd7VvY11+Xnn9hDMt/7Kk6GsOeYhmBKwQMrDzuhJ85ualjQjbMFsn/+e9/CaO5xfSJTx5I/dvZlofg4CxZi32zpRDq5fITSxMT9m0BU/Ezaxrtt0v6TeGrM1t3DEyxw6J/V18aPDvM26tDxmnfZrq4OkbtX5azWf6U88/0dDvpzlaIv8Jsjm2aMxhMnmRb5X/4jS9E3z/11GPpofvvSz//V36arZU70wMPHk6/9Cv/nEG80LYKJ3dGnBsaTocP3BM7Ja6GTIU+gPext99J0wgr8m7hVFz0B+On+bwXWs/L6UMPfSD9i//0G+TLEiTjq0JD9F9lzN4MnOKUSxPYKd5zyBnaeInOb74rhwIwxazcb+X0OZ5pvWxAuZyIX0Xcel5UtX8OgB3ZwjY8MgkmURVP9YxDskGDKNWjMhaldo0de1ne8KsGlAoMxdKibwqgZgKo0EHlPQRP/A+y79gDqr46OU0e7AGnTnFoEtJ9A/Wog1k1cm/gN8VCjLyjbZYteFSRqoHwLjkNIjUeR2K0CY10rOuzm4VTNdypcM2wHnOsmajyMvdvJuy1Bqucj2lcR9ZL5EtTQ+mH+u9lEMAZDNKtRm2ynZ3YGuxt6UT7cjd79Dl9Eu1CnCVi51aFG8Wn9zOchFUQMXhhO7Pm4ftBd7cSTho1Pnt6Op1jh8Y2jBQPdjakdyaW0nYGdR07adDoMoXXGFaLOzmQKocQAqAhSCzoaYC4jK2xTTP2rEPjhsowm5PF/SDCST++H1xWkdINtxuf4MWome8KXwxFDa7+K1+ABJKH7y5hTDqFIWprC8tj7FBBucUygBpF+aw8F8NvvruMYXj11WmOxu5k5srSLcKaExi1NT0sX+zd21JxOyysjM2yLUyP4ipCRkCWd/BDyvqn//SP04kTEyx1sMyLFmjHTiYyRHYrpk6oPJnREy3vxlB1bmIeL4M4ooOHK8iENoj886BsGbbLHRb2jLPknm2daejcBcov+ssaGb4f/On9RnfW56tffTa9+sqbaTtLGJ945imEvVfSnt07CiEZnxEKD2oB3jp+Ij14+OC1QoPjDnzXZYmz586HgFBA2L8K1CxPOIGLoOAyn+7btz89dv8D6a1TJ0PYlDZy/1inzcBpi5GrmVjOzLvfy4N+pSZFdSjYb4ZccPzgjwwyp8vfRbSrBiPSVwcH6jNIQx4ipaq/jHa5XqYp1jSLcq2/SwK6uW1h9Hbw//rEdNgURAn8UTpXJJL5qIkI8Yj2OVMWty3nUaxgd6CheBjBQy3HHPV1r7rCzBbVfJGPhGNshYMinYZ/jJEBR8kzSJRvMjcNOMcRhLbjH+LC5UV2HBTujckgwobglCOvcTefjAj2xfUE+8Y87DfzKMO7Vn7OdBQC1DTM4BPhtclhtsDtDFhqkLibHRLbcd1s3UDLtIC7Z10+a7xo11tWAcEi91y2v64Ln4ps1vz7/YBTrlBuU6YZ21sWHjK8bznd5Qqtcb9ROJ2bWkr/8ruDaQc7G14aYlYD3fVgpejyxTnsGhQaRrFVkJKkk4wHPokWLksMsCSi6Cnd6WhIYbPY6lx5V0kmvLYyAO5llv0C5e6ijDcYvG4nPln/tlZ4IXWBjGoGyXIZoaAFXgJ1sYxxEdU1KuZFBnfTyDOCJsR/nFiNuh+/oGW3ar799mx68MGthUEig3snniJ37uQcBTQcajDss3LQ/kHbLAUV2bQuxP/jfzyWvv6100Rz2+kltnPOpMNH+/leDPpuG3QJYgtaIDUPk5Ma17EUgSZhjv5wmSLw2I6LYCcQ+L21owVHSeOpgzX8BtIuMMvO4UbxyXw2y59y2e9Huhsbn0yf+9V/n37vv38tvfjy67EjZcf2benwoQNphF0bQxywdfzEKZoAdYATmTcIbV3tz+FX4vS5c0EsxfeIGoKdfalxaqQhgXYUhqcefTQ9f+y11N3egX3DeGiR4kPlz0bhtEWJRiaWLytg51iglxkF0jBLdlZUDsY1nfG9DMYtX+Zhuvy9nL7WswxiDKTVzbIDeMFQyjFdcUMg4W8AxTufVUkqcHhy5OdHxtNvj06E9qFIWViT6msg1zXaV86W5xea5tKf7e1EaGjiXAoGeahNDYYdpQmRMwBD0QWWWzx5z/UUJjmEvwa+RR4MsLvYDjUwXzCBMox83iycchneLTPWF3nOHV/+vtHnnDbjgrAqYHxtDtFOmnoWw0MFBmcbb0xewDtmczqIr4MDrb2pq6EpZjBkEstHOnSK4EyKQSBmJyUB51bgU7nm3w84lcvPz8JVWGc4e7duGd7C/HbTXa6b95sFp+MsWZzy9M2gOw41w1K8lYFsN1qBC2gZRnTUJH1VSEYa0i5ID5Bn2F3habNqErPfE79rpOwWUQdDQ8CK924Jdevl8wgNLhUabic+We8dO9GmMci7DOGx7eVgG11uyVshl1iaGH6HHRbUdWsHLvfdgkfbMiwUAi5c0I6kwmO4nT+/iB0EwvhuXIMjMNyzryXsSowrHGxvEUzjs0JpMdlxIPnu9wbTF77wNrglny5iDg3NhPFqPvcg6F0+R11HRqbxUXCBJRec4aF90FWxToWKQ6pyWUU+/tUNs7zeejTh7yELDTcLnzbDn1ZqtfL0fqI74azRo1cOx0+cTn293WknwoM9eOrMAHYSs9BPsX0y4gFbjY1PD5zHCRTn74jrBYrE5zAkDhpxG3wxdtmdC0imjxw+krrwEKlDvxVcyaWv3NeDEw6tikE9G32JuM5+JHSfDWaSf+fCvOfvdqbBOF4OYH5XIDFf0280iIoLzEp0LZ0HZdMGMlcyEU7yjBiqKacOxqJ4oYrtJQD5+zje0NmSSx3FhedGfk9wzRNXfw9TCBcejlW+/mR6Nv3d42fSrw+NhlMpnUG10xboJ7YfqRK0rbkuAQvqkWHi+/zsHT5CXOiPervm73bSZgbLmwGnCijiZj94Wf5mYF3OIz9nwsxGc/n91fdCBeb2yiGMGhUYDBNsUdTI8UhrNztgGmJAkHEJi0X6wt0sqjcDTnSgdS7D61bgU4sgxmYAAEAASURBVLnetx9O5dKvfhYGMtj3C92Va3er4ORS4Rgq8GMj8/jsYEcJMFDjIM0XISg6jbIsMc5M14mAPECczIxMjeHdDIBX2S2Qr2Oruyj2sNzhjgrx6nbi0913eyQy1uosO1DFa4Ik4qTDpYWRUfyzDC7H8sTAeXYlRGxaSiR5g+nnsWuY4KyKclDgUNtg/AMHERgoz3xzKPhw8SL4T2SMcTYOu8YxRP03//qVcBQlXDLdTbGLRffQWWgwLwUyhYzJcbYcY89wfmA0DZ4fQ2AoDOKtZw75KWgamHd2d6Tjb5ziGO2eK2XcKnzKbch12cj9/Ux31k0NxCvH3mTZSsPUu3D9PBr36HT60x1GY5OT4cjJEbBW0J5BT7oKC5m4zLu7oys98eBDjJ2BGLWSXnm3JpxyrHIkCdSBPwsPxpHB2fmB1BWC9Nn3BuMrweR3MsPyABuRNvFHu4Z5ZyE10iCSxHttCZxh3KmZNiP0AsxFj4K1QJkHw8xMVkM4xZt/Nzwe/hbMvxe15y6Mh7SPsDZx0QHCy8t8ynnld1bb2Uc4fyUf1/kND2zFV/lNhJNlC/PcPsu/kZDzMd8ycynn6TedO51mB8SsOyAIzggP41HxQz27QUraC3PMMFIy1rW0M8QMK42mbic+fT/gVIbZas/CKAsP7we6ux1wcunvDEsUCg2gUgRIJJiZh7kNYfzopKAcxGpxUxi5IAom8bdCezwqNHhU9lHcYMeSBhlmXmQ+N5s/VcNp1y52jNCG2dliic8yDUGO1E3nS729nPeBVkE7BZcfnCWOjHB+wIK8oaAX0zTgA2NocAnPgFdPthzMm5p0X6xHTJb8bHQVt7O8THc+C9+7KMfdEoOcbpnPKBA2tmFpCZ8ZuJTOTqgKmiwmSoPn8NAKf1eTMY3w0NKGx9sdXWFMWa6vdTZI054/4cFL2kuokaiG0+3gT0Vt1v77fqY7t14eYzeFfEHNmrYk4rrnWzgRP3H6LMJpxb10VTNtl64MtqDRC9yTRsBL0aQeQSI8RKJF32g/1IKT2V0VJMwyExO5FB4MPmdhQgEhM/0sXJTTWdhGK3ZVBfihJORhVQPMNtxeuZIPAAGIxWmKzjYKokhsSWGJLwQG0/K6ZrBteTnGuq8Wlon3B+M49alEaEEgcvumBpbaTsiUNLiKNlbuEoeXIT87eCpSGd8Od06hrUYneWQNzI3AyXJsh1ce7KMCN/hnPTg5yxtZmkvDXIZGbBQex5bhT+06yrHZTRwoxBp2tBoY8c/TKpe5AFgBm8qIcLvw6fsFp810w/uB7m4nnBQqB9l+6TkTko1UC8mnIbw+6hBqNeqUXoICEcj9Vw6i1SPsHOjEiK+Vw4RuFX+qhpOTlp6eLaiL1cgWPECGrar4boQFT7HsQ2Bwl4MOnRQgDLIgvUYqOBTpCq2KAsGFCxolFhpc4wojfTZ84KGtoa0YHsZ/RtUSiPGqgwLIKY9Jf2MiPfBAHzswmq/h48McanYJjU9hcS9PSZQ/VTh0omBhrgDQ0Mi5JZxq2butgyWVVpYsMLbjm995iHuMD0yyFlhz7+3vjj643fypGgZr/X6/0p31Os6OCw+gUusjzrmke/LM2TSOpqFYnivwqNw+acL4hcM8kdC+IR7/7YdHDh9Ne7dvBw8bysnWfS7DqSZtigRK9AoBXiaQwXtlgvHZSmSEKMctkGjdeqwaIQBC3qdYP1uxKXAXhNscNUos5hmF/t/Zv0Z2tTUM5UJyu3xnvW1LrSCYv4WjkgHUcQ6QrOzHzMdtoNsQHLpYZvB9IRDYL5lwyrlBfMRBW6nHUMpjuYY6LjKTuh/i05jyRuFk/SVS+8frRvPLtV8LTiHtUtY7sxOhPelkG+WnceH86W0HMEDFshuNitoHt1bafpcuFBq8F3CCEfIs/G8XPn0/4JRhuZl7hnuZlm4n3d1uOI3Ov5uGERJcXhRXxrHS95IqpcF4qAFABQy1eBElbv6BZzFId6F6/LH+lvQjXPXQ663gT9VwcttkX28dRoNucaQm1EMBphXDyF4Op+rs5NReZj+8FvWZhMl7ioaZ1xgHW8WyBu9s1zw+GkZGrp5Jejz2QxhBdnTVQeuJ5Y0FfD3oB6SSUZHdVX8VWGY51fTLf3iaMuYRXurSo4/2p+3b24L3ZRq8gNDgMoXngoiD4t/wIIcbwavM3hK0jbDO8pk6bLM6ulpjl0QrmlMHKdMZ/O75DO648OAntzreTv4Uldjkn/cr3S2xIeD1N49Ha1w+0inT6XP4gKBTxJtawbaE0ADuu5yuEOE7L09c1abhL//pP5f+3s/9lVrJ13yX4RRbLteKaeUycvlcrqzvozIgiu8dwDYT3FkQTNEBhIQyDoN5uR5zFqANLtenfew8ECfdOqnAgNOEiJc5i9sYVXmax3ohI3AWevxdK1xgtvMsXh1/IowxK0yMiHdT124kvlZUfuOo4TyBMzQJlUwyjFy/dEKh22u/2za/qUHpZxa0l0NezqCGupEg/L3yUtCN5FWdtgwnHYWoJrvb/qUNb3MK5QKi1I6W9vRDffvTfraCqUgt1M00mjgT2DtsRevgzhLdRxd7yiulVGCRYZXLvlF8yvlU328XnCxnNXyqrtN6v4XNkf3t6Qc/siP91lfOs7aJiX0lXC+cnjzSmQ7vbk1f/NZgGuMwpepwu+G0AE2fZlB7FK+S06hdB1HT60vAwUuCdxhSNXuF6fFetb64yBAWg5m4pvzALYLn0OzFW6UfvzbG4T7S53Xyp2r45N/VcOrHmZLOmhSMrVUz2y7b0S40NK7MyRQYDN7qYGRX6suzzqBm2B3RydIFTUvjCBGjo6r4FRAux/vHn2xnyyVnWjBTUSuhgHQePw7NB9kaqX0IjmqksUxTxrkLBvTl3zmXTp+eZWbp5IIlHHaYPP7E9vTc94Y5PXM26rSAncnY2Fza2s6BgQgAMxihjiNk6LNBQFpnd1I4cF2Gr0VTKKuJgUkjSU/InMHN9OysO8Pei90TZ08MpmZ2o+laegnj1JtFF1Fh/gjr3j270qOf/Fh66avfTOfwV3Cj4egjD6ZHPvxY+t3/9EX8aBRnTgjPHK6X7nL61e7V+JTjuQTx3Euvps/+0CdY8nk3vf7WO7FcJD8Wv+PippAq3IXxEmkADX1fjMWBDwoZXujvXBq/75570j2cSfFP/u/P5aI2dQcP1h9qMyJW55zf22ifNxucree0ca9koMAg+bWQr7sh6kFQ5qq8yZAKtI0yw5gKgBXlF+/Xq4fAVcDJZdeKry3Cy2yP/PillnA0JePKQfnNrZg7kLg1qByDkj12u1jEybEQgvi3gMdE2bPMTI7gVtFZ4h7Gk94Q2hxkk+sOGf7lul13ZjUSZjhlAeuu9zhYDGPHsxwbvaO5Pf14/0EEoFa0QXAy+igEg8hHLcy7xJ3DaE3ktX+4BVMrCqqFL7k9a/VLkXpzf3O+txpON7Pe7Zz58Mt/48F0eF9bOshA/8/+zZugT0EBkoHHT2srUrNNJVwVUv7c0dOY/re/fjQ0ZG0YC/7qb58MNXcZkrcbTqJEE1q7Bga4s7MX04K7DqCR0ErRSBmhw67v9OYgDTGmsSsH+yk1nbwLDX3AQSwDxYgzyjr981PYCsTSxwqP4fNNCRlOlrh3b316+uk2dibMwpDvZIDfEhoGd0/knQ+B+1dKZok1hAbbZ32dnac0yhJF+1YN0FM6jz0DrCEmVHqNfBKBQSFE3w6FZsE2MSHBWNIdFjt3NsV7scP8vPTT8PLLY+nZb19AiHEpufgmTBuB3yOPbkvfZUvsCF46SZHO4UJ8777uqOXkxEIIay5XiDvuXqnHTbe7nTwuu2BZ9p7PCkk4hUJ4aEFomBibCdsGly66t3Wl9u6t6flvvhSa6ysguAkPTXha/MGf/en0qb/0U+mxH/p4+r/+9j8Inm4drdk1ofSy9BjRFDq7t/Wkv/b3fyE98Cg099CR9Cu/+A+BAR1TCrnfbyadm33OtxYtu8zQgAfHYy5VTE3TxuIIbPvRyaLBE4E9qKyObe6dINCO3r442dLBRRffIUwakb7Tf8Pw2Fj63a9/LfDL15sNW1SBrBZyYzKQqgUMG5mXMRxg/F2r4avlT2vYt6wHMmbLUEkgvEhIw3Ul3cosX3ftE3gd2+ogT0aQ2pXsgBuMwcUDtRT88WGdYJtsh/X2st6rhVdQ073A4P7x9tZSqUVsy1bHoGOpRgbGSdYEp1zKoYZBStTnPTQi2kfYwf6zPOEzz9VKZ/YTxyOyN1DtmlW0X7Qn8b5p2NfMceVlGU5LbJXTIGp6aSG9yhHWe/Dw+GP9h+KEy4WKRzj0DCQuyFELd2cl70zjoQ6Pfz2NHJ/NlNH+VXCI/fY18MU23BA+rVT/qqfbBaf18OmqSq3xQ9i/+y6DHx773n23NT18uD393Z89lIZGmTmzzn0RXJOhBe4CM8MVBufPyjtG3/hmmk6EkNgKiGR7kT5bjj69GvNuN5yOdjelZ3A/3cYg1gwBX2BpqwkDLoUDbYf0jxKO06RZWuJJtyj4WAbDOlxmIOXw3+U/7x5IN0Vbf/3cbHo5jqW+tfj0wAPN6Zd+eUc6dG9D+rf/diS9+KLHGRcDbRYYrGU52DXaNECyISz4jWaFtkH7Bo0jT550xn4J4QPDzqOo+BvwGYNxaKav4g6XIa/h4fmwk3DpQb4jDallGDg3l/7oK2fJT7U0/jAuObETaJ5SyjkwDDIPPNCDYMFuDgSHkydH02NP7oo8LwxNQodM06iDQoF4IYBdtrBM3xXBEv0WhB2CRXdfe9hC7D20O/2Fv/mn06EH70v/xy//avrCv/tvUbdKwhu+SSPLbAFdwnZi/4NH08/8yj9Io+cG07tLwA4+a0WtVdbwFjXMNS3Gi/xO2vF0zo7uzqij9h2esyMnL4fbzZ862remv/MLfzV5lsXA4HBs421vawshoglX4PXw/gY0OQoCTs70jaMWotlvLguhCY8OqzRCwXFiajL9s3/9r9L/9we/Hzy93L6NPnM4I1iwShBZ8oxchMkDidEzAL0bR4a5aaaJ5CODUFtgPm5H7CCvDmYf9U4p+Ka72RFUM259LGTISn1J6yls2gyIxgU6+Lx6sP62ycv2ZEFntRQeivVV3KI+tbW1EEpqRBR8ag+6WfNrgZm5xXOed9ZInr0cbVM3UcwcLNMZonXX1bV2E9pjXE8wL9sh/HN/XE8+1Wmq4VRnX9AOt1Tezw6Jj/bgOx0kXVJXGnQl4zDYyoLU3F0xxNHZGu+0sv2yQY0DcDJvL+vulUOu/w3hU86s6n674GQ51v9Gg/g5t/he+n8+r4vY5fTYA93p8D1taSfnCYyh6lWYGMPL4hwzzSUGgNibDewBa5QfVfBPpSo6dxlmy93xgZm0F0O44wyqIXhUVfV2w8lBXvQRDfbiatptmGodYrmBuiFeBij9Hhdtgp9j9+z74pvpjW9QQ/Es7XQJ8HbgU0cnB7WxFKEXxb17GtJrr81HPaMyQRfxdM0fujcG9rJgodZAQ0rbOTR0kdm7AgNneXTj5dJGrxJ0PT08vMDgwYyULZgGlxu++a0hljg8bKxYyMl8zz5WeJAHtbPT5Oj9vemF5wYQWhbS2MhcGDvOcUBVgBR4enew8RKm/C9B3ucK8Lm7m8MJWUtrY2rvak879uo06o60fc/24LmODzcjyD8UFv74878dBpqPfPKZEBz679mdZsbG0+TQSJoaHUtzzMwvsexlpZ3EBO+xPVzSSoF9/OD7EgLIGfwkdPV0pVe++0IcJJUN/K3z7cCnaj7uYVSeGmrZ+/fujja0NKJVovJqIAqBCLwHB8T9y2jq3oUn28e2yXSF7Q+NpZtc0vrmi8+n0x6hXflu2zYb7kIi+UfViez4DDAzLxCtoAJ/ZwHBdPnZDjGdl3E2Ev5Mb1f6VOdW1v3Z4wwl9aOG2QqSu2whmZinwW2UPQJQxPWFMEBoWOR9IQsXcY2t98XvTc/hi+FaBJVwbFduw0bqOUk+97Ket1fHJZQXhVuHHKxL5VkBSK+UUU9easTpWRr6hcAhRpRrm+xsVX4tEJT56yvieoNtEOY5rNUm258FvECsnKjqXoZTOydT/rV7Hk73YrdgvY8iNCgw6HeCnxVw+JBDwWBGOfp6aIHBCeObBrQN7dg3BJGSiBhpYGEyvTV1AQ1T4fgrM5Qbwadcg1r3Ww0n670W7GvVqfpdme7UTg3iz2AMNXsdNHFwbxt3HAG13M1JdfWpr4tdAqizPTTK4LHLDiDRJyJkPMQn6pVSG8dab+NUSqPbj8dOTadZPDJWh9sJJ/0p9FAv62eohx5EqKB76Psy9OYnQBGXcQyNwEEthMG/kqXNHaA9vzs4G8LGhZiZ3xh/igJW+SOclpbu4DTDLWxlXE6/9mvDGAB6JLqDa6VilbQO0tKUaQocgXfhBEphw2DdNYRsbET1fPHO9NoxPD+ixejjrAlAJLMzVuXiFs/57rZJ+55D/MCLfftb08uvTKTvfHuEfKV3B8sCR8Qp05qdl1sp69HytOEU69zZCbxT4rqfNGM45dKhUBGY2LHU4FZK18VX6lF+NqZ0b1l3puOvnybfujTLeTtvvXI8/d5/+XKaYjeaoWh/PF7zZzP8ST42jYAwghvlSzT+/qeejPxa29tS57be1LujP3XjplkNgjW9iEZdb5d5EI0BtwJH8U37i74d28KOpHd7X3rx2efSNEcJWN/MkywgP5tms+NdVHCVP5ZTzcftnyZ8k7e2tMTk0MOttOfhPzUvJl7vwneycy/zsF+bESy8ioGp6HObqg+IX/uv/zW8QY7gEVLBcTMh86eMGZE2d5oAsQIOLF4+5wM/8mDj3UyMKyDLvx2Y/Z3fr1axn6NTFRa8jiE5RqNpqc30j781inKA0uGTLqJtvA6CluEUztYpfkPBeto+r80YDrpv/Iujk+nD7S2oSJHQi9pdU6Z1tubSlRoTtQ4uV8jt9HDnrAqghDBkHYwvYe7HIPICyOyuiusJwkg4Zyk198/15GWaajh9sHN3+lTfPdEXbncdYjulwlMIADUKsTvcJaLAEOuL9NnQ4nTqxfbB3RVKxE4NXWezrmpKDGX8yXiT8Wuj+BQZrfLnVsPpRuC+Ft05Q/rynwyyRNGBoNCAS2BoAiC3YezXxn793dsawwvh8Oj/z96bR/l1XHd+BWLrfUNv6Ma+AyQBkAQB7qaofbFEj2xrvJwZj+OcZCZzTuYk5yT5w+PRX/FMkvGZk4xjT2zHHo1HsWxLI0s2LVIiKVHcwAUkSIDY9wZ631csJPP93Pe73a9fv9+vf70AAqVXwOv3fu/VcuvWrXtv3bpVpY21+uQ43DOmkws1/YCpWxHpMoz21jTIzK2R/IQ2CNqzuToc2FEXnjrYbvtpxFF2q/BEd2jUds/Q0TE53TWVrZBjrVbf0IugkTzB6BMiiwf9Rggc0e6TF+TEt12HN0FXTj83i56ibZh1CqeWR7ZfwZnwRrjnngqZka2rxyGc9qxuZG3iL6kuzpOPPloTtm2rCI1Ny3UmhPaqIKLV1SvMXZcxvegdf5naLtMW3fsP1GuUv1x7PExIAVkh6wNeVsaVIpyKby6TAg9+cTglL3VBCdaK8N/+dw+HAw9tDieOd8txsk/4y/F3xWVLYnNOVYqpQBtRenS3vq5GPf7OmXDxzOXw4BP7wplj58KRQyfChI7Vpi0odyH9hLKT/Om6nMkP/t33w0Nf/GyobWzQ9ISOcBfRs3KjTDv7Nq1p0burYbC7N/TpAKjOS5fDuDbxY3UH9cLZlKlTfBrK5ScxNjoa1mxYEz73iz8f/vT//GMpGtEGWz8J/tSwqi7UaYriyLGTgWmJnVs3h6tamWaWuMl+Mr2v0J+w7k4PbFWwPJy9dCm8cvitsLpeG29Z202Ple9Xkj9BOUacCB0uGsUZh5vwaXACnS/eofnNNxOCIgjiexwviDyN+C2H6X+Oa29yph9wdoycnyIS9FgGh/LlNEkUBxPY2pMBkXVVv9UHig7AwOXwFZuQJjk4OBze0UoKH91MSzu9zawLATeg1Ul5ekTrmnfKSmFlW2ePBCRxsKC0qmNXi3AL4WlaeSk/vE5ex5QoRb/yPDzPC7IIDOs0nVHNcdpR1on6JjOGfvqvj2uKRp1StMESzRFtH31ptE+4EW1FGLJkXobnwe+F0JPnk+/u5Xkd88Ur5r3n4XkWkyYZhzxm63e1EoBHTvWFN7Q5DxY4D+DR+odMwiXa8W/Tmopw/1214RMHmsOBu+rDxpYKM1mPyymwXAKlTvmI3OQTIa98jdQ/vb9ZlgedsJQSvE5ex5QoRb/yPDxPT1ip0etuHaVdJkUG5Z9zJsZlLTGG5JEmf4nFqe5cBL8LAYYDXg9KyL2jw5V8SoN4lHmz6IkyW1uXSuBKgataFu7bVxna2rQpz3tjgJVgydM7DfCzgsIDgnvt2tKwb19V2LGjLPyjf9SsFQzv69IJudOu61qhoHd2+fP72izqhhSNlcpDiqF8QlavLjOhP6KprSH5dnAo1bDuxGPqYVAbaw37JSWrX3j7hV+8W6ctrg73H1ivY7XLDXfAR/utlH+Z8SfHvwOeu3t7nH7vvI7FvhDuvn+X/ANqdNx2pW0EtXpdk7WT00Ii+Zx+eh5OT+XVVWZteOnbfxeWC04Thjm6YNqOeMs1v8/UxZ0H9oVHvvCpsO9jj4QNOzZLqSiXQjNudcMqgbLBNMW4Dhh85FM/F+7et3sabDeTnijI60QdUWieePwhLdmtl1VqIrRdaddU5bBglSyeIp1p8PkPU/CmdSSsdh+GZ195SQqm+LL8HqZTpKecfgeONP5kqyf4SOcyQSbNKq4NeqdDIeA7F0Tiz8QlPXcuKs6ddFwUyjuCp3HQfufcJZ31sMpWEDAtwUZOcYMJ8cEQR03ju4A3tBRyszrMx8oA3FgZonwditnvTCV8vasv/CvNzcG48cGYLdBIxCuVafBRrWVu03kaWFM65cMA7BztSxxOztwrrfjHmlK5ngdPs5VFfXxk5e041zpSBvihLeN4OjrYE/7l0RfCr6270/DO3Ga+QDpcQfuus+Z7uhXqsnaPrFtRERrKKi1/aEQNYW1BOuDl4v186SkfXP7+ZuLJyyjm7ngupt+hMDTLwvDq4Z7w+P7VoVRCgfXzQplC1BbsxKeuoV+iJ33fLAVi4+pybQyjpXtafw+fKdWmQjfUiaDcMVkhNun756Rg/MlT52asorjZeKIP7ZLlYzXOmVjidFEmmz2t1WmYMH4gBU/UyutKHL7YW72037rDH89J6WiTQGyWEn5elha+cd0semI5Y90qjcCFW6YWNm0qsT0ZzpzR0lgBuEvCnzhxvwWBORmiFRQSFFZ3jfbl2Tk6+kE4cWI0/PEftYXv/m33ZNzZHsDToUMDYbMsSB9qhdN//LPT4ZVXO6zuntZ5MfiAH0N7XJOCSnzqn/zXD0pL0HLR2rJw4Vyv+ShwlDYCDIEqhmX+M9YCwi0h8nUImpK4GE5JaVihOfidezbbCL1MTuQVOjX4mjbpW1m2MkyMii/k5AxtM9fg/Ya78/G+zq7QuLY1/Phbfxse+dLnZG2oD+/LyZfcoRPu7+PQKd8fLHQoFi1yLGzdtDaMay+eHgljIlVUVgl36lfib2Pi09Vyfv/Ulz4TLpw+H/pkpbjZ9AQuKAM+zrLIA/ffF/Bj4N1VDbomxq+FU2fO69TLnVG/SMWfqUzhDslcq7jlKQVVvy8LT8+9+qosFpWhq79X5UQWFMpNBsdzPv60tKKi4qtEgnhcMfBMeE8jc2cnRQIZ8TuORI/DOw8QJxfBCda/+Z0ZSxwcEa7ss1At4lTm/tkUCDymcYwkZ/VB8xcYFZOEIqZikixCWJpPA4oLMHiHmSxglgfypL6k71eH2SHCb9HmTnHFxrKIA5LLk1coBaNKB6Or0WRyizpUuTj4qPAyJnyDL/YxqFf9Oq/qXAyloaz5BPKijsDrbZPMx+tCW3vbxOPkwxPtc3dNozl8TtU91wBWd3Af4WpQh1f1XNNoS/W2OWk1HHhkFclVdd4mnXqJBeLCSG84oVMxMUcvFj3F65Lv+WbiKV+Z/j5OT95nZut3wxKG2+TPcFbOizs3VYeWptKcIIKuIpr3/OkkairN8eqPGqpMznFMaTRWrzRlY7loD2diji1HcG9oKgtHzg+KicxcQXUz8bRW8DzQWhWqZCEZlCVEpGKCn50gK6T0lCCgcmZEgamgHkQkaEV/OZAK52PqS0Dp+P6VoXBYZyis0XHc7RNTy1Ghc8c1dfLAe+8DfJ9rv6vR0sqHHqwSg4d3LpED4dIwoaVeFy5M6JwHLbOW1WTVKkboQEzfiAZlwGCgC5TBwfclUD8Mu/dUhSefbNSBVFfDv/k358KLLw04mAXvcXoa00F4L73UHZ599nI4pt0fvW5kQDzHQT4+fvJEV3j3cIesFXXhoce2ysIhJewi+Ygva/8GTrk03wzhivoQbFMnPZ88ekHnTVxUXa6bwrBrz3Y73EqbAMkvYERbUA/bkszBvqFF50/Ube22LeGCzmto2rA2rN+1LVo9MQkl9Y8uprCMZtT2tEOJ9stZJSVj9doWTWeU21QFdOCrL/Bx6LzcrumWC5PK1c2iJ0Oo/gDXpk3rwxOPPRBaVzdJ8R/SlIk2ypMyM6TDq6rk31CtaRTr6yTK0ZPViz4juqquqrDVFPAA0rGt9F/+/VPhu88/F5o1NTGsKZiRMaTN9BCnJ6eXNP50By/R2rjHOxXZkZDLvyW/8xskckcgETceeI8iAqFyp0H8fAoA5B/HX/PcqThdMp1EJBkRJXmxiZLlqjgI4EHBCc1OxYiXaDg0/PlbRwS/qUexgXTAy3ab1GtCfgff7x20lQ7TLD8FMmQjFGVj8DCiKpWpfps2qnpCW7DukRbOeRYTes8qjd3lcnrKg6cCRUz75O0EvMA/l1AIT2QVN41PzzdqPxgISiBbSF9TfWw3MrW/B/whBqRMtMu/Aci4UKriYaH0FM+r0PPNwlOhMpP0BAzF9DsctyZkpRqSSfrguxohmPPc9LZNa2tQywoWiA8ZjAWiWma6Bq1SaK7TunopFPUS3v/s57eYf0Qa7DcDT5Va6re/tTLUyAGPw6quif49sBFTjzz/eQOzo17QBJWwv7moVns9Q5eKplU974e3tDkRKy+uYXLJxbuZ9FQvhaCmhoGIihOMHCa1cWOJnBG12kEwnD07odG/5s5tGWXEB7ye3KkW7PLxn6sNX/lKk6YElocf/ajfLA3xePme0+jpypVhTZGMqHwBFQvwAy5vzwinUxH4jfUKxeG1g+fN0vCLv7o/fO6Le7WpExtMic8rT9KzDBNnPHzc6MXvvnnarAwoDFgWtu7aaMqDtwFTE0Oa3q2QIFuqgRNlLSZ/Qv5ck8/CUikobzz9fBjuH5S1ICGH4DYxfggMXNex2KkuKHTLNbqvkN9AXf2q0CxloVIj8tq6mvDFf/hkqGuoM2SRZiHybgrj+Z+qVO69e+6UwtAsxVObZg2PWl9AvoLTMxcuyofpamT58WysQ+hHrprmkGocFhrTXkLDw3KA/JZZHKAbpiiSIY2e8vEnUxocifGMAJLLERX/lnxGISAQn8KTAURDcCgP3CEanNsiz151KCWALbDSgF0WEVCMKZihKjdkSSlRg10UYZ7ShkusUMgXUOwxQxGAxQk0IvjpnSmKNf2vI8/P1gBmuwT3O2rA9+SHEQnQHGeannzaL4RoHBtYFahppeq/T53o43VVOotCXsZinqWCdYdWaSwVrmbiKfI1mZZ5yg/wzEUd8rVFSrJ54Yl6TJVj1QqDWpI5hGkw1ynjZaHl49R3YaRPJxiOaSMf0YLhIx4rep4/Pd1+eMpHT9BjKp5E2/F+x/kDI5qLxmLw0qEuW3KJoCSYKOVZV5zO7JuUDZxvudQcikt/UB8VP8UhslJ+DqUa6R+Qg+Xv/PqucP+2WrNGkNbDzaCnu2Xd2Kb9GVR70YuYthU2RUuDMvUPSQBTR/BDiO7RM/Gt/lFC1e+O8Ia8/Tu0cqJJUxPj6ktYLeNhsekJPG7fXqIBEBbYSAAhWKuqlmqkXqL2ixwM29quhjffHLFNmOKOhKRh86V/8AsN4Zd+uVHLNjlR8nq4dGlcwns67PF68LxQekrmF//NQUmX2wZDn/C5Qkrmp7+wO3zl1x7UyoKVEszRtC715B9KwruHzobLF7qNvoBr3UatWGistQEixAb91GrpJRs/0YYlGjAtNn9i6eWYdm9s3bIxXDp5Opx952h0KmQOV8BFsD4g1DpN0SGYclmhFXsMXnjP1v42MmevA43mKxDgD94Xfuff/qvwyCcetRUW5LXY9ESeBPr9DtVj7+5d1s7tnd32DgsPgVMvh6QAXOnoUkVm9nmrqqqb6xrWTvDdv3/hR7bMktUXDITjVob50NNSCcevGkSxP54RlUgKWxdGINkbgDvvuQj+Ppbl5Hv/RhkrxME2i5AQwpiv8R0YFTNl5QF+QmziUqlK0o0YkbwnhWFY8TZqOQ+qBu898IwysVlOh7Vq9DeGR2T65jz5aImlN7THT969ziCVZwIEHq9/nb49XlsV1sqsRd+m81gTeStZKv8js6W+4+wYD543GxxVSgvcoLxWSMup17THP13TJMfIFeFdKSej0oIJxI/jNp5XvmfioywBv+ObuLynfvE6+ftCeKqQx/X+uhbDObVxmCbrwjtdF3OnXpoZkNiGx+huMIn42duhfOnKsL5ilSkQI+9zvgdGc/JQXe05UjBQMvw3efI8dRE7KndNVWN4cN1doWT5SgkcaeYWj/jJNJ4+ek/+tjW2mtHrhJbOZimskaZ5N9S3hke2329ey8MT2uFyEelJ4E8LwED7gCtvIyiMo43LSpeHto6x0FBbIofHeltiSWInPbAx2dZWH7YrFh2oS5IHf6b3GKXQO5ZdbdY5DaymuGejzjbQCgYEw6imDUgDjcO0FkpPCHqUhc9s1pbjyr97TOcmAJeCtZfqTP35xuqbGgktnBq9TmIxUVz9Lcf6SNsinPX+P57s0aZO74cq1feqrHtjGumTbirt/PgT7cCVDPiHPPCAVgNp9Qr+DB7YzplROMoCFgYCp16Oa7/s5maUCUb0LK28I3zsY7Xm+HhV+3FgVT59eix897s98mtIt4Y6bRTiTw6H3z1NnJ78G+/4nsTTNbX7Xbtb5FhZY22xdl2D9i6o0ZbV/XIQvGaC67osX+++dTZcOt9p6cmLbabv3rddh1mtMvpR5kY/y9lnQI108sgZO+SqXyvRiL9QevJ6cGfL5Br5xnWeb7Nphl0H7lf+qp8TjeJA+9Cg/keX4CuRtQQeQDxwQUtzV6UUJ7pDZ+s3rw8PPfpA2P/I/aFFSzlRMlhlQdwkj1UWkyGOW8tf9abu+cI6rfT45S9/IVTJQbPtSofVgb5hdDxFZtqb5aqdIQEtqFpRsHvE16ql7OBTRlqmIn/3D/8wXOpoD/U1tYqr/XYGo8MYST8fekqdQKdiXAAL8zKg89U09554ICaNGOJJyQsBTv4f2DxZxPxJt5RvYhicObFBDVop5yAv+7KmUGzHRaW7LC13nUYVGpBMBqyS7JPA2RB34oAjhKBozFaHeGN6gyaVBQqB2Nilcp2EPAGlRv1ddbafKX8iR8jkB+ChTDgFCgW13ykNsElMkv0dNip/fDh6NR3ieDLcCD8EYPQ2cdzEywB2LicGykqL52n4Tv6z4YmKRv9yHUsZkAZaVbezFRMDcoCMxL9eghc+6k51DQ79hMvvqGkKe+vXhe21TeFvLh0xHxF2ZSM6F4nMbEiH1j9zZPJvZKZ3MForWx3jE5vvCwekNPSMD4d//9q3zKHU8hJ+BWIEhqUjKem5R6Y76m74JBaR9d0UB7UB9fvVB78U9q7fFb75+vfC//rd3xd9RpuY5cMp9aSN/KKoNHrifTJ4mmRb9Gv5XXNDeSjXEsXvvXQ5fPmT66W8aNUBGzspk1yNctkhhDSSFQzL0RgI1IsbMR0h9obqCr/qPBWartjWWhG2t5aHwQNN4dTlsXBUWwsfvTQceuXJP6R9Bdil0toxl18ui2k3vjs9MTcs+W5bPuP0+OiGap1gKUdZKQy2sZMakXakjS0oX6a1BnQGRbcSrpZpXAZha4d4IZRBEpTCVztHwhnNv1cKH1gduuTPkMQIaefDn/L1u9WrV4SWNSt0PgN8LILd+oJou7lZO6DqkCpWPtioXKi/cuVaOHx4LGzZvEzploWHH64OmzeVyfys5lAdUN7OnRu3XSHj9eSZujpdcCcslJ4skzx/erqHwqnjnWHPvRs0FaY2Vxtu3bHaph5+9OzRcP5sdzj5Xlu4eK5TOI2cljkBs3H1qrB2fbPlau2jJ7jDdVWSTZ4OHzwiJ8ToZOTF5k+9ErBrt24OVbU14czb74aui5fCmq2bwgeSGbSLtZD+eF/hjl/VMg0ucwBHd/4maNs24pO8KdHS+I1bNsnZdFP44pc/H07rIKmT750Kb71xOFy60Ba6ZBWY0KA2GSg/Hx8HDyiZKzRgrNb+Er/wxU/pULEK7fvRZW1ueQlu6x/AT11ED6OyrlxReZvWrp3sj7xn7yLdjHdG/eOO8MJrr4ZjZ07bIKi1Sf36wnnDA/JhvvSUV2kAQBdOSUSk/QYBXIzEAIb0XPkCca9LMFKGjSjViMrAouPo2C/FYsOSlTaiGFGcC5q6MCGrLE/qebUQ7YFScIxCK0TYsq8Cu8LdkRMIlJUMIJkLWJ05+LRAWnzKOKPlOH/R2Ws7RO6QyS2NOcXLQZEpFKKGpmuxIkR/tO30FVOOpkYbwMJleIpphvzmfRqOPY0z77Q4DpfjwPPz937379zNEUrQWrm5CLxHdLVLYNPB0tYI++Yy1zQlsUKj+ApZBFgp0lJWE35ty361W6QV014SBcKD7iJ+Ub91AmWqZ+sNaE36ILK1YUMEU5lMjKxf5jCzB1p3ihFLaCsv8Op1B05La/mQOdkrf2nkvKIVjFz1Y6mYCXTRPzYoQaTzNkYGdfUrHgI23Yk0wk/x9GQAJP54v6EMh5so7N44LmFYoSmFMxeHw/OvtYfPP7bGmHo8HjAwCgI1nM1gtXIapMp6NmrTM4LKA+9gXozyx+Xpjv/D/Vuqwx45YPZpqV6b9oB4T9sSn9HOg+ckpHslpJfLOrZLvgm9GkW39UZ74JMfZvhqWUXEAcIy+S3USBnhGOwdWi1BHx2ckG8To0DFpb6CJMKp+qs5Owp+gREuj14LtfJ/wApngOsvcVl1ZE/KCx+Ip9oGrE44R2KdY2l2RDQWbfKP94m58CfS0BbxERknBW7bXqo5fmUNaLGAEGVnxm1byzTVgLUh6seAdPnyNQmcZeFTn6qTYiH/JZuGiBR6PPbffnvE/CI8u5tJT15G2h3fhsNvtYUnv3K/tQ9twqZIa9etCl/4B/vDf/qj58NFWRjcbwIcLdUy+KaWOpn0mYZQn6RdqbTC+8qvQiPn+qY6WVHGdRZFTejTSjRLRx9VvDgNJ2ECD9DJbP2uRw6L7NPQdeFSOPLSa3KO3BrReizDCCJeKE/xUuiEsimDb34ZxQGXRc31qVx/GpYzYqn8H+65f2+4R+dUfOrzT4Q2KQ3vHHonHDtyMpw6eVabY/UZzWzfvkm7cvaFixevWH2dnlZp/4VSLOzqBzgtInd2bNsc6lfVhq7cSg1gNNwICuiDXV3job2rO9TX1oZaLTm9Id7nAR5tOFOdmG567pVXzPGxcdUq9UMtuR2PlpgiGwrJO88vfnf+NENp4AMXFeSaS6BhARiASFuIGDxfQ6R+MA/JSAFmzyiJyiP4mf+/qGWKHAwFM1TGoUPPPboaNRrEwZBRS5WYBks2zwhRL2nzjhvkYdFnwkH9HE7uwAACrZEER77Qr87zre7+cEjTB7+7Za05aYqfz2Ae09KnZOeEavEEZInqykmdLCllG+0aae7dCWcVhxEcg18YGfl4Z4rjmrhot+50mq9e4IF8CKSJ58E7xxPet+DJyjNuyVcFvYOH98mXYVAmM6YZkoF0XCgJbCV9f/16CYUPwuWxfhtlMT1wYwl+LNo/XbgwgaK7bT5DWmtF2isqL45sOhN00js2HDrHBjT1oT0IVMaE6s7mXxH8QBQ5acLpbWRHZlyiryWKh7OQNZPwCaxj8rno0xbYXVpu2jnYHUZ1YucLJw7aqKsQnmgX0ntb5cN7EkcGodoCeEnLFQ8oDWwb3STBy8j2L546Gx65t8kE9w3RDOVEeFIqPYNDgSIhHM9l+jPWiHhAL6ssXxbGpJxMaIRpDnwqq14WgnpNWexqqQzjMu11aQnnO7JAYDm4d11VONk1Hr4hJWZMm+WIu2m6Z2koxeFNbTEgc3anDqKq0O9qKQDwPZQTcERAIEG/STypWLNIXJHisKEqWoKp2JbGprKUnn8ntKX2Ce1BwGm5LMvukkKC8zHp08J8+ZMzV9oXpWPvnopJPwWhezJgWWBTpA1yiKytXaHtnSesbvg+fPITVeHLv6iTKuWMysZbZj4XnOzX0NNzLZw/z+Z2UVbe724WPU0CnOfhzOmu0NUxFNasqxfN0+/VHlryR7P9/JcfMJP30995PYzqgCoCUxNrNzUb3ao5jQ6oA1RJYnjRWvHL44dPml8D7b2Y/Ak89elshnWsnFCRrz39XHj0Fz6nZZ7aDdKRapBGVET/gKcZSalSoF3JZgTe+0U9KrUsc0KKz9jYqDaHYvnoEjmNVmuVTG24+67twsdo6JeScPjwUe3AWi6L0n1SlMbCv/zt/0NpxiZ5bbl2eWRp6qj2/mGXRgbN69e1avWNVjGpQPoHYIMneKVNNeR4g/V1fR9X3IuXr5jSgGWU96R1mlmiOrKZ06GjR60O61taQltXl/KLBn3FyLs4QmhP50/TtpHmpc/ZpjEvMiFOVKl0DZFvAE6withT+h9GHnGfhhym7NyJJpnpMU4PSDs6LbMPo1kaFpMkZzWUq9Gb1YGlK5gPAwoDjIQVGC9rz4NxIRLChFF4ADYuhGlc6Drj8niF7iw/HJCwqVej75HJKhrZpKWINqCikfIFYGFKBTygNMDjq8R0WUKGw2VCubRsjJAUlzt4ph7kw+8kvnlPe/k3nolPfWlffoOL2fBUJuvAfVpyCfWp5Fx1IlwqJ/kyDAr+6GwSARN9p2wJEUyXHEZWq22kH2vaol3/pBnDXNUZbEmmoosc7Td+Ldcx/8viQjvzD/P1hzkpAH5AJ6MZxgEoFjc08uuUAjKoVRvgGqEEQ+CZLawJ4IFONBlyIPKb/K0dwLvg7BzuDRd7tRe/lAbM9sB4ZaArnO9ts/XSi01PwEA7zNbvrmlk2lxfGsa0uqCtczTctbU2bNAGTpHjXK5NuKmuODqql6py5E6IV3jy5eR36ANcYz0Av8NSHEiBQsLSQboQijmj/goJ/w1yyty/sSbUaVdKlIFOHW/dpz0WENjXdJ3RAUjtg+OhX86JY5pCeXxTjfbn0FSD2svpEfpDaXDaNDD9jwoH/jEJYBQOFALaExhL5OmMVUHVDH91ti+c1SZFjbJs8LtbSgP55+sPZM+3YvmTg8MdOIF5166ScJcOkbp2DQwRYvjkl36WybER/o+1Af+FJ79UH37917X9up7xgYCumF4CluqaZeG73+kJzz8vJVq4491C+BMQFUNPhfA0IRqrb9BBafevF6yMtLW3hxTACeGX7aF337M1rBB/Pn28zRwit+7Sxknam4GzJ6w9AULBLJPiUdSLjZROHT1r0xxjI2NmZaauTg+k43k+/Im08DBWUJRpBcSF4yfDup1bw5a779LeJNFyYhUleOgJ6h/mywDf9He8h+aiO8926U/Eh6LfbOeONXtMikBED7JsyTLMngfwnRJNX2sLg7Bx49pw4MDesH59a1jLss3OHvm5tFu7j8oX4viJs/a7Q++xvnzy44+GjevXGk5U9DSSYvdj8MRln1RXw6vKYwlmWVm5VkWVizaFe+GfqY5K/cZ6+91nnw3f0bVp7Topq+Xh5Plzk7we+IsNSXqatDR4AxIBLYQOMp9AOhqQxuc5zmRny4+K8G+FzF0lekZR+Fb/UGAiYJ2QwXwycRC0F2VR2Kl9E9bqZC/wGbEURdQPmMIHsgrE60C9eG/fcjC68JwNrvh3a0Dl9YPBsfApbQDCiZyMapMhEq6FGwa4GTmhMNiQHQJRRg/WVoSntVd7mywsaSEi2Mg6Qr28UR3f3IlD/bzecVyQZ/x9/Ju/j+PpxhItoRRRGtlSJXsA1Vo7LO44zNamVCYWIjyJ4ehds7apvX/Vem3uVKppBEkg1dmDWYqWKm+1OVkjHK6p7WzrbU0TrND2p8Ak9jJZrqdFhRkXrQ5r61j/qOSKL8dBCZul2sVyQo6W+ESgdwATeUEjxANHYJznvtEhCbru0K87o3m8qlFITAmBlhVpNjzNl56AiatQvwPG9u7xsHW9jmF+t1tH214K++UQSb1g6hb0zLQEinQKSRqKwAH1NmTTDGI0FvSOFqyStWFEQsNOxFTm4xL6E1LEWfI5oFUcWBtGJDxWV42GHdo58PLANVPysUTgi9CuDaUaKnTqq/YNQNHZ3lgR1mmzoMgigqKoHi76jOPSyqdwr4e9iEDrkP9DqU57hFlH9RSuFPeclIXjOmSJg+3qpLic1ZRJInkul+k3yp0vf2L56+YtsnwIb5jxoRP6CegkX/DKhS/A5s0rw/HjK8NnP1ulVRJasif4UcB0U7+UYjbyga22YJ+Hvl6WwCEwIx7lMN5MepqOlZm/8G3gBEWmJgaFW1bxMM1oU5CSGl/6yiOhSlvr/9nv/23YuLXV8OBTFkZfag3a2Qxa9EcNsFbL0XtQ/BzfhjEGRYvEnxxPAzqkilUU7BL57P/3rfCYNntihQTLRT1EVji1mV5MoxcakcYpEODpKD9lo2VyCtUqOg1ObsjCxpLSMVmf2QTKnmVxaGpqkEVqp/biGLQdHfdpd0mmKs6fv2yWAywM45oq2LljS9iizaZGc/smwAeAa5Ke9Itn3yzP+Sx36n36zDk5RXIuDYPBKaW5S8dfv/jmm1JaS0OTlpEePn6iIH/JV23nmXH+NENpAEAHOF9Ghd5DMKQnGAJivwul828whhp1RCwHh9Uw51liqd/sGFmjRuKAI9q3Th2MVRZMeYo0lRxUG1+0tnfzCzDQsbkTnMDmW0dH4jnB9WzfcHhSnsVTpVsR9gcYufIGJcKSgqWCfzbkVWR+N0pj/oLm/v7octckT0/m4wyKelA/ryPw8Y56eltQd5S4qDPTNyLhyb0YPH2wdKrTORwIW5xWeySwqScaeTwgHGDu68qqdTJms0aMK+SYisIwFS8nsm2EH81do1ErM3FlYGUODkcszWyrU0g5/ADh6ukjYd8vi8B1WTlQFDyQFm28RGUi9Mel1IATpwEEEHAA/9DESOgekQ+MLBXS2aLVFLmMqCM4InoxeHL8OhzF3L0tgI+rUB6DMvUP6VonC8PR04PhvdMDYbeWSiKcaQQww2ZC3I2mkgBQQfALivmmO0/2rD+MgHmulAXh3XNDYUie/BMypY/Jz+GaPOYJTCGuVN/rHLweLuvQG5QULBulap+GiiVhaz37SpTLH4TpCi0j1pQK512MSwGDd0d0mSva4VC+OVD0AAT2y0Z+gyp38NoyWfakuAl2WCo4OqzzKoYkyDZoOWCPlBisEsUE0oJnAvQQ/z1bevZmaNJ+CsNSoKJ9SCKe4iO/KC/t4CdrQkPDsvA//c+rA3s3oJcxCvdAmy/VSgqO0cbi8PmfbwgHD46HtstXF40/FUNPDk/yvmZdXfjHv/WQzsOQ7xH6zFBkinfZi5/C+x9cC4998p7Quq5RToA6/GwYPkBfQcFXUHWNs+W0V/hBY0tD6O8e0CqKah1mNWLtAJwL5U/gnXBVFoDhfuWvI67PHT0e3nj2hbD/44+FUa2kE3DWj5fJnwoYp1rDktqfae9y/T7+larAfxjdnz5+OvT39dt0xYR83ZiOgyaoO7y4WwrE9773Q+OBduiUlI1GrfC4++4dOjyLc0q0GkW+edu3brRtnUdkfcFx2E80heeAT0Mkfw3+KcsMcLHh1uDoSLh0uSNsXreGV+ofOEAvCyfOng1HT50Oa5tXhyualhgcjg7fskhz+JPGn0xp8A/cnTnOId8ZUamgmYuEvKgjFdehMf2zzLJaAg5HyEPS4NjgAsI6NbEkbJfzCKsitss0dpccEcUfNRpEOIHcXNCzXlkaGs/rBhwwLK75Bs/L8fSdnv7wkLaIrtOoNmKpUzlDgNOIcOqTcezlRriCSZFg2xGRwBBF/Oqdj2sDqB/I2nBah73MFqgTOHLFwe9eX+DlHXG8DuTpbTMfPIFxzqTAyjAN/3pPO+K5v1NLIbdXciqmNryhYhZybcVPe4xGkAhwBLwH4CTQb27IYkB6NPul6phLOT9eFogxlT0s/wPwlwwwLN6zzzoKxdUPdIiTlJZlyhBQRpSuV46OAxOiMdtSNVruSLnghbtdJlhuDT1RbqGAUD93eSTcva06XND9xbc6w51baowxsecF+56gROtRAZxMz081szf2RZ+s/dUdYFToc4wUeWaaAktDu47gxr8IPW0Fq0nURgajcGOjYk0gYymzaRxKk8YPzcFYW3Ry4sY6bWCmToq1glH2hO5MV+AzMao7DpL0XwYKtDxwTQNbL2j3Llk+quSciZMlyxZ75WB4RLs/ssSSKS18GeYSqMNc+RPk2KSDpOpqNX8+gPN2RBMRnQjsHL2A8aamZeGeveW2I2RXF6ugoN2I7lASwCfLMtnFcffuSmuvJbYcc/p06lzqRFxgQABzXwgfZ48GTk+9oWWshw+dV14fhg1btIW+GgclEsUTWmCToH0P7ZTCcD28/cZJ7SCpra+hYZAVC8TFjF/XUGvbSfOdOX32foBegHcx+BP8re+KfBs0NVEqc/yzf/GtsPvBfdYvPmD6QrKDizZyCO0ZmHPBfJ5yRGj9Q8RJvuoYanDxBUWN+OUdWkHSph1Bl9tvlGmmRa2PKD48cZnqSB+M6C2SOzj/o1Y1aMOoLVs2BBwUrwqPvB+ThYLpinHxfLayxscBi9b7+qYeqnpoSgXioQl0Y/qXpeFtHR2yNlTbbpHs5UD4u+eet7Zg6uRi7ihs+zCHP/noyXwaQAIXgc5UKDhRggiufIFv5OnafFrcaT4Nig9aG9QIteqRb8jcc1yIg2nQaGOYXoSpz2izkD05hQGBu0KNZSNHpYXx9Cjey9JiR5QOJFM+hLmQTuR1TOIJ34pVYqa7tMQzIgmPGTG7yIow9Y4nMMb0Cm1vm9DoBY0TDzjzcPIn69Ff0TasxQbwZASuBA4rePfG93fghEBcnmfDU3KfBvoU7dIugTsq839caOOrUKYR/r11rWGnFAbajFGGUTmFUlerb3QHNi6i3MEqChCjzqA/Fs9wY2k0OtArpqwom6mDM/3ttu/DCikGEQykmSrD0uonyshKwYTyMKS9Ftq0ffUVTUWMaIdK0qGMRMlyTFcwgBe8wHGsHBobkhm+097dTHoSqHmDwSM84GiHubhVUwMD8iXA0lCt6QAqXqJ+A6osgArhyVDHXfgFx4wWEWKs38bkzDTQdf1G8EMrKBxgnx0je7TUE0FPk8Cg3CsenPlcK+1reLb8VQ6YVNxVOvKalROYhskPnwgsFGwTXal9J9gREkVgpXBsGx8pPb48RiuKH6uGnTuD8lIhgYsSckzKzEH5TeDrcEnOktCDB8eT1SX23r/7ne+z8SePy71EezPcd1+5dgqMTNsOH98ohot55Q0bSnTSZbkdYqXuJdzyXsorsGtfh/6+98PTT/eHb36zL5w8qS3Xu2+v29KmAABAAElEQVSE//dP27VPw8ydHMl7LsH7N2kWwsfZQvrdw5c1Wh4O3/qL18JLPzypaQXtEdJcLWFXo7qy0gYhtlx+Givl56DtmJtqRUNy2O3hCOxIcYmIcQpTy8Xbu9o5U0PTmpqmICwGf7KMcn8YrV+Tk+KaLZtCx/lLYcOuHTqbosWE+coSDTRzFkmgiuha0DgNI+ClPX+oetzQeQ83pOggsFGePlC/QyGgg+C4yAqIrs7OMC7rBvyT4LQHMRhFqhDKmcKARRNN3JDyWR3WrFltZdO3cAgv1elnbBPNioh6ybka3cs0UF6pqVLClAyL+hx9G8sCyht1IF2jpiKu6DTP/+0//D+hrro6tMvK4FMfUenF/81HT0u1TfJXXWhAaDRioeCIma1Teh7eIE4c/ps72pk7QjIjyeibfRDYKvpFBL8ayeMzPfEJbax0j/YIj5QExk1i+Lq0nYMFiIBVFa/plDI2gUJZoE4IR89nIfcknmBw4rfhvirNc6kucczx3pwkHRG68x3YUZZs+1w4eY6kHC6PjkLRrE52Tn4NHTLR+vfZ7qSPtw0w0/h+9/YjH3+eDU9MLdxfp82dlIY6c0dZuCIBbDVQu+mlHVZVrrgPNawPmyrqTCniOwGTYO7B4lq91V4IGTcXKgtTHEzw0Jjghpd2Rekpe7ksDe2j/eGtztOyNsikq/alIy9fqukIfUe5sJwtXZQncKMwXBnqCV3alZL5STqrB3ARvyK4IksFykVbf4c6e7Qd+s2iJ4cl7e5tRdtOaKTNiopSmey5dmysMsVoBaa3HBUaaQl/YnM2or8qxseI8ZrSoTDYQUl8VAN5GxnO+K0yyiTYwWtnP0phLlu9NxzBqiSwDUfRV8uEtlEUTQstCa1aXbFMQJCXlWH5kpHoTn/pAygRNYK/NqdAVEqJQPEhicA0uACR9r8qgYySUKE0P7o8HPo0l9wpC8NVRg6xEMeTlR37lvYIzBHcEV377+S9QlMJ+/ZVaIScq3cuXZQ2OrRqx45SKRY6aVJxPpADIRVAWeCI8gmtqX7u2ZHwJ3/cHV55ZVTz2zekWNwRnntOjrcXoym+ZJlz/Z3kT2n19XeF8ITwb78yGI6/166tssvCiWPter4SXnnhuE1DsKqiRpbQlXJuZXmyyMQc8Fq0TwO85vIl7Vgo/NghVzk8WbvrG1s398tCOyEezeV8ye8OF3X359n4UxJPHJc9ql0iV+vAJ3aL3Hbv3Vq1oRULcvo2qQFMQoRuaiL1BVmzURCuy2kSwWwyQ7LDCFExjP4VH7olDf2fKYey8pJw4ewl44mmPPOdeETimXL0GIcPmsQ/YcfOLaYQmB9IjoSx1JEB1gRkY8kKbUsuC0KjpltW1eqYbO1DUaE9fcgPZZwLBYQ0nIRZJgfPpvr68Kff+GtZHzrNUbKnvx8ApsEQh6fQcz560pkieB4LCCGCazEDje3aSloHjsyNmOtUKSGTA6tYYvma5nf6BQtpCczxf3FVdbhPCsOoNEG8tPFzgABwQlRM/cuFqL0m6wLhLUZwAo7jibY+K98GlmB+oq562ognp2tOKxo5GK2UgDh0RdJtWhzawkOZmM3HVlVpGamOpRaBzCeA9zhhkIf/5tnbvBCeJp1whHHaiuViPbkVLVE6WuJDOTqWyeFxjbbzrVS7YLEC92Bpqk76EQt8ywXByRTFsjtQ8GJtFk+uZ7r7NfkwnNfIn3g4x/bIr2FAx3FXrSjXJkVloUydzWhH30k+JItIny6cJvFzaNVKkIFxrYvXlIXDBp6MDmP4BzKHvBg8Eb/YkEZPxaYlHlaGCq0aqNNZEuwWuUQMh7ravChmf1kRos2FxBbhf5BPjoRkCc/RHgiNGJtVVDjgE5YC8LFeR2e392g0LPOz44EITqOT70iifLyPN+nQqJVSYCjf4hJRV4RaSojoBXhwhAWsUvX90mU62K3kw9CkTayuSsEZk6IzKu2BraGv6sLyxmFWWJtQGHi/kDAbf/K8gZvtoTkCO6qIYck+wzKxjt13X6lWVpQanpA3pLlDOJBuHV5+eSx8528Gw9lzmOMZzGgzLfl/wJpYZeF8zsubz32h9JRWJk6DyDGmoqD//r7R8I2vvRB+/Px74clfeTR86gsHwtKySEFCKb9DkXft3RqW67yeI4dOafpBgx3jvxEBgBPOVkA4bti2Ibxz8B2jGedHk3SliP483353Tfyp4/zFsO+JRyTcy2URkTu9YLSN4nLWhKhjaHpEdaRPAKVxHr3gOQrQatSeUeeI4k3IH6GltVXTNuvDuVPnLSqwmjKdg9/GPaS1r1N/Nm1co0OnKqW8MxjkfS6GRxScvKM/MVABFyslA8ux6FTX6tC667YHA34Qwwyux3XX1EbJSilGineH2ot33X1986atQvQkhSZi0HSguQRnELOl8XiU48+exgkDzIGvVmmC7WLsx+RV6u/Wa17oSzLV7JCZhtE3//CVZ257hczZiCYOfaqQgE0G8udKlpuMN9tv8siHpwFpzq8OjoYHdXY8OzrS3Pzhbs+5zIEONce2lc6jMOSiTt6uqr53S5vdqesQjkaTX4p7cPw6HvKl8u/58GTfc4kx9Q/KdNcvfwaELHoPbdK0siLcW9ssT/ZyKU+M4+MdL14yyNFlzZVsMw4w0n4OatfJjhRPSjtIoHXIytArJQBTo1kL9J4Oy94Kw1IeSmXOW7lMe8orLZs+XRXnBhprQxWJo1BdeZWmJzR/qHrMxGsSrgiI2fAUB7XQM/nko6dC6fjmbQQKq7R/wnZtwLRSI/QJjbz7tW8BGzPBrGgBGLmhWr9tLlScMa48eFnUdhIHuR+kK5G1YQtHbGt6Ju6BTjrqQBt74IlpglVyoqzTJlQWFMcA0A8e+UO+lGbp6QcQgl7KximgI5rBWlQmawU+C7Qh/g8oDRvZs0FxN1eVhGcuYQbPHxxP+WNEXzxeGn/ytDiX4gTJ8dU4ORrsAhdrTWXlUi3BLA0bdTQ2GzZZjcRSx7WDZvel97Xs8oZZFi5cZB8Yz1FHMctygcIhdmf5TX2Z+9Ni0FNaqcND40ZLtXXlmnYYtSiU1XmlLxx84aimakrDuk2tYXVrYyitKLOmRBBu3rHenAWPvn0q9PfqgDr1U8dZhVZcsAIBRJUpDdYGvnHlC/7d2ypfvOR74m/efVco0+qCGxLyw7JwlGsqGaFKY6DAUaxRq+5pEFh7krHi8+wXcVF+tu/cLufOPgnvYbP2EZXg9SF/i6v0KNENDatCa2uLSN3lbUqphgvRGWCKRqgHB4XZ5ob6Rt7s9VCtqYwl2uVxRFMkg7KobNnI0sqy8LnHHw9/+J//YhKGCKLi/5J/If60DFMMmi6RilEcHBnFgEBcLiqdlreaLPqm3lOh8kuFv78X8oc0jwQq7xQCfqm+NjRr/SvOgTQYgTv7y9+hkQkNjtKgk2mjxieCAuUiSFxTjd7O/y/55MPTO9L4Tsr/Yq86AczPCSuCNCrT4OGbVSKFUHKgxTuGqiVlSHOpIvRj2ghkZI7WBtrUG598gSEZisETdadWGGbxWWD3R0b45KYWDpvLtblJdZOcWKNlsSooKsvq6hWzyGk/9C6KiMiwswfueD8s17ypFZBLwU1vtHpGh+qM9FgnwiESuKxeygL/A/Z5ONfXrk2F5J2sqYtyWT8aK2pCbZmEqzynKYn6YKWo0DfWM49K0YiDSlnTgj5SRtR5EWMLD4XoKS33tLZr106NL7/dZT4Bh0/2arvYwbBlbWW4W86Rq2UlKJfwZhqD8wSo32Tr8+AvdOdxKuijKbW8WRJW66yL1rqr4Uz7qE0neCZGp5MZkocOJBIzXl0TTRExBRJZ0vjiYepp6k3sO0XrwwppPVgg2D2yc+xGuKg9IPgNk66TIoMTZL6QhqdCcb1d0/iTp2OXx42bdNqj+pD3T/xC6uuXh7t3awv4Rpa7qX+IQEe0lJLdH9sua4nqgN6JbtatW2H+C33yZyBwWFWF/FC6uzGFu/Dw0uZ3Xwx6SpaMkBvR0eylOlRv6dJooyrwVKmtjtdulLVOloe+3pPh3JmOsEZTEy3rV2sZZpXa6YPQ1LpKFofl4ehbp0P7pW5zQEQDwQGSA6wGegdCg1ZTtJ1ps2IXwp+ScPtvDrN68/kfhyptvnTl9Nlw4s3DoVn+DXcfuC80yp+gwo6Y1nSdTPuU79QZI2vPKvVuSrLy3rB5g87ieDfiEYpJPk4n0a+I56xU3deqXJxioZ9cRMVOlBgJiellKgr5iqPbUlh+sJyTvR4OHzshB8pRKQ5DYeeWzeHbz/xgwXKvED2Z0kDHQSByoUQsVmBOhLwhtLRO+b4EA8DRseo0f/8uwldaE8KBUyCflMLASooJpQePzhBAMR14XIyJ46UR1LLGauQZjWQgWuJ6fBqQchYayC8NT+wU+QOdFX+vNGgYG/DF213JLEBkCNlkcDiT74Eb0cwx2s+IIQ/K4aWYgKLg9bc8clak+DvwweXvyDcfniKTHg2gw040Ou9leaLgYkR4p1ZI7KhqsDk4FAqvYb46FQM/m0HZ1tJq23iHAo/dGvX2aWoBPAKvBd0xEfdpZ8iLg12arhiQ6S9ixoNjWlKpDZvKZbprrKyXAlGnEx6xhpBWI1o5H62UhYvDqCiXgEIB/OQfXcXhyRLP4Q9lpNFTsVn0ybLwJ986Ff76+xfk7KQ9/htLwxtHe8PX1a92b60Jd22qDnu10mJto0aBEmqsVnhfIxzrCdTfLkrLMUx7BV6ii7/LNcresaY8dPRpDprTGaWcg5OIxu2v6IiEshRqqqREPARfCA+WM5/tAp9kz58oHzLCSMiqXqa9RmRVOKn9F85pp8d3ukfNObJO+7G8L5PWG3J+XCqlsFdm7ygHy2bef2bjT54xAr6mhkFVNLXAMdjrNF1xz73leh9tEjQhy8K589rZ8ZxGtFIcPpTzo7WvrCW1dXeElpblWmYXrQRjBQibPnV2RngCnzeTP3k95nqnvkOyNqxZs0qwj2lvhQnxXW1s11ilo7yrVb+oDbEmDPSNhHOn27UzZEvYqKmHMvl5sVrivod3h8OvHwvnTrZpmiPacwXl4vypC8qnXspEdPYLsIEv73dz4U/56vW+LNY/0AqKN37wo3BVz83r14Sjr70Znv76N8PGndvCznv3hD06xXLjtk3GP26wrFjyD2fIYgLthqa4WasgLl+8LKsK0wE6INF5q9VJcYxYPwyrmxtlmSo33hR1gRwVe38gIq/4nfsEHDhqL9eOuWzcNK7lnUe0edWxk6fDG4ePhB4t3azUYBWfrhcOvm73ju7uVHlLXnMJ+fiTWWYQ6B6BZ0PGXHJPiUt+CC/ySlMYPAm4YYMkhMBznIWu349KW/2yzDjMSHPiHYH84nfyZbkVr8slMMa1hr9EP6w8vUf5iTtykJZvXPMN+fBEji/0D4dfalwVtojB4X8wZRehZrJ6qLNxLxTSYDNtVpz6EzpG+/x4zwznynh+4MjbkbqTnzn1CB88+zc6JHXhzvvi8ISVQcvfJFxpE04oZTpiW1W98sFUqz+5NjKYhBRrM93njHGhCV+VaAPhXGr9ZrR5RU6M17QE07CqeMCBU+b53s5wcUj7WgCbMSdoKgoomAPjcj7TzpXnVlyW8lAX1ta2hJrySluSSduskBPl4FVt0iJnqCXsSKl8EXgwTvAEHt1y44o1uOOab8hHT3PJD98GLsKIRuXbtfnTHar/M692hO/86KJt1rR3W1349IHmsHdzTWiU5QBdbHRUS1AZ5TLiKRDYlKlOKyHu0jTIG6cGzYky6q30J+gtGkWxO+Qq7YTIigy1vL0Hf9BAdI/RAXQqvJWYBiKroRSFC9qs6fX24XC8d1xKn0bgautVspSwjTQbPPVcFZxKx34RC8G5VxW4iuFPxOcYbIR8Xz/r6GXy1lTEQw9X6t1SO8XynBSF4yd04FT/h1pJEC0NlRpgeADFbEC1ebMGRe9GdFSpzaqG1WYa4MrqIOtcbqB2O9CT48fvHIoW8Y3IEr1Cjqubt61WPbVnjpZf4rNg/VxtPjw0Ft4+eCycOdYWtty1MWzattH2ZHj44/ttCeTxw6etrvWrGzT3rr1XNPLmGtG2/9Q9KidaGj53/uQQT79PaBDaoYvQ39UTtu65U2dkVIZ3Xn49HPz+j2QNWRm23rUjPPb5T4b7HzsQmuWnUCFLyKhG8b6bJGnpJcmeAn9BQaiUn8adu3eEF59/xX5Pp094v3bElUxrbm4ojnY1OIP/lJnzpvZi0PQ3W0K/+Mob4fW337UDrRgUrZJj5J06Y+OKllwefu+48XFgdV51s+jJllx6JelEBP9tPxJ/GBnRuC5wEp/tJ9+LcbDEKXCL9gevkxPUIW3A0aMR+xNaivIleYtqgGP+CuQVv+Kw8R7DK8yLUS8+BX3qpQdlsejLrQEGIB/NpcE6l3dedhqe3N/iQe0SicIwIUEUMU9YZv5AHfKG3CfqxhTNoeGxgA9FMpAHMCH8ufgN4Tgzov4EOiLx/D3PvOMi5MNTpTbueWBVq87/uBouaKRfKs33gfo1YatG7dEgkxqKdgxe/bGfUbvxbrKO1JUremnPPqqn/Klv9kM/WU5LvtGIvEt+DOcGdRyvCsU5kymSS8M94WSfTpnT2ROUg79CFFR+7okbdV2uNPhbjGg6ok/xWU3BHg34RtiSJzlQUqbt26C8wAtTHuzpcL67zZySyCsfnvg2l1CInpL5UCb1K9TvpN+EYR0gVaWRcWuDLCga5Q5KOJ1pGwnPv9kZvvdqe7jUrf0ptJSyVB7+HICFrwOWPgvcYsQKBikT8qhGaOrwqhFtDe37abijo9wowtpqbfuuvNAdyYNsovSWs/2Cu/BO0WxnyeM9Y+HltqHw3ZN94elz/eGczrVgd1RWVKyVssAW1Wf0rldlEmhDguPNfiT+FIMnoxMJa8cnOM0X8Gd42BQEHP4+1C5/5WH/fh0yJJBOn74aDr01ql35rkmAalnvSvAVWQ3I2+DVnWWylXKivNQ2oR0Db2i5HlMd8nnojvZguV3piTrAxqqqy1R3nXQqpaC+virsf3i7RrQMStQWikOr5lrb+A8HJXVe7g2d7T2m5OHDsEZbK5eI1w/04OMQ8aDzp87bcs0x8TXCfPmTJS7yz4A2XVqivtS6aX0ol7Afk9y5eOZceO25F8Pz33kmnD9xRj4b7TpPQyclV2hQIdmE3xTVtEvleI0pElqGw1drueOw/Ar6NPJ3OrV4+oMVYJN2fcTKMEm73s90j/KGXpBjLEGODpM6evxUePrZH4f//JffDl//5nfCO++dMIfHKi0I2LJhfVhVVxPeOab9Mdo7DHez8fEiUTQZzWH1+vjvybMnIBAuhH0hxlRMp6QQ8qESXpFJSGIPmCW3yNN2XJR5TgeifFIrED4tRNAMLFd0mIx4oVC+5O7xipixUrCv0GWOiSJCllxSj3hdXKiSRyFGYQXl+eMwpeGpXdMHe2Qqqheh2amVwAuJ5WBOy5L8CF6vaXGiT1iWQ43yZH+HN9Vx4yyO9LQJ8IAT6oVS4HinzgR+Uwa/+c4z8Uk/G57Yp2GPfBauyJeBQ6celsLQWlolOPjn1B9TGlQesh5FIqofcVQZq2vuzrOudKUhek8qBNodKhPl8ETflTCs6RGsCV3amOl0/5XQbpYH9vBgFU4klqxXW4k5BPKsfMATJj4YHg5bQ5q66BrqtU2esF6AjxI5UJaovsDGcibSDcrBkiWX4PBW0pPAngzF9jtMmd1941pudTXUVC4PDTVSHuQHgMVgWM6SR84OhoPv9YZDJ/rDUe36eFUjSebjV2rUzxJItjUG55jXvWlNSdNPVkT06Mhn2xJabQANMaXQJIfMGpyKFMwdAnrXf5QIqSU5XH6onTevh9NSFF44PxieOz8QXro0FI5JiRnRKgmmFldp9NooqwbnTQxqCuKspl9saTL5CiautH5nBef+FIunYvgTWbKh06OPVVl9dkthWCv/hIsXr4W33hoLZ85e1VJK1VGMbKm2QkeJckUqzp9AB06UssRL0RiX4NV0mI4bH9HOkrc7PYGnlVLecMQbGZ4I9z2wNazX4VTms6K2pY/SV/Rn8mKUjGIwpk2Kuq70hm4pDyhcDa0NoVr8HY9/0p05esa2l8a/YSH8SVkVHaDZkcEhW4pZIaWhRc6DTjPDen9aO0kefP6l8Parh+SPccTifihLgbYm0CUHa1lGIoVJXFiVoOrQ/IoVcgCW/Lp4/pJWNshJXPUnsLVza0uTnB+jY8MdULAFL2awAl2z0qRb22CfOHUuPPvDl8O3//aZ8J2nng0vvfpG6JYiwiZ1TZrOqa+rtYtzJ947eUoWQ03nF8nHvey53NP63aTSADKJAALjhJwswBGcLw55uKBy4ZTMw383yUS1V9oX5nyE7YPS1uRjLEEkBoEKR4soABtExp1AGXyzd/YmskpgNiW8q121ZCmcJERLn0vLd5BMPeYTCuEJBseJe/vlj3FN5dn43WCP4KY8qxJg6sGf7SuUZ+/5lrt084AStV57wbMPxYQY9oSi24mgOWUBuFxZcDxRRy5+0ym9bXhO/iaOX14meGJP8zvls7C5XMqc4LpHUxL1OkPCDpwiolXC7wBO0J3/EuLWjnoT1TF6P/mdmDkkRN9zaXMIoNXZ8KlSDoudE0PhcPeF0DU6EE4PtJvvAvsnoEAx/cBcPcqEXVJCo2e90zczgki4oeDgKMkuoygEmA2Jh8PkgBSiTu3h0KstpYlXtlKjK+XD8s1KnZ3RKYvGiKY4HEfcPdwsevL8uc+1302ICfXJooAfAysqmupk0dPonWV0jHzbeyfCae0qeUhbUb8hBeI9HbndK4WA72WyUFTKCkEPQaFwB8AyMcZxTT/0Mh1i9CJlVkK+WXsy0IzgxGhGfYBtwcelDLQLhrfbR8KPzw/JqqDy2sfCKU1B9GkKgkEDmzw1aolli5ZpEkZJow2bBnPHSttL/SFvaAU85OM9xJ0rnuLt6GXF7/fcUxH2anfHlhatxhEujhyZCKdkYRgdUftTaf2PfB0YoNCH4Et6qcuUCKXRC70XXrU8UbJHJ2BqF7829WM5elK+X17u7UZPtvPjA5skFCvD1h2tYbnoALoQ6KIN6ha1j9VfleAd9aceXKNSNjq0JX7XlW7bDGqVhN8K8TKUhjrtjFglYdunFQgop8iOufAn2ns+4ZoE+5DOf7imVRUrZVWo0WZNdZoSZ7pEnFnWhg75XWgrZikOh15+wxwdL124ZAOTMqzjUn7whWKnSVqbLaTLWc0g7nFZ2zrzDjqtlFVg+/aNmo5B8TLESPFYHkq10RQnZV7WDpavv/lueOp7z4dnfvBieO5Hr8h6dURWKW1cJxhbVjeGluamsH5tq/rmUlka2Da6XSultH2++FixfHy+eErrd0sqKyujmqiSLlRoaBdAyQZB8yQe30FKMgCcj2apUKHwJ9s3h9VqpFHlg3nfkE8PozNaT+PvJHiTWUWChijRV2K/rzRV0nBZbXBEh3/87pUe7UnPNpzT50C9Q3InUAeu2WC1yLk/hfDEkdkPa/kly2NY1WFnKcQT8wzAudvM2kXfrP7+qDv0xuY243o4IYekP2rvC+e0fwPBO1mcAQIjbUXwtqJtOOHtmjYy4R2//ZTLfHi6p6Y5/Pa2B7VD5VKVzTkQuTahjezy0T2VylWMu33WNxQH/YuOutZvlEE+8pf0jEoUx1ofS4Epi+TJ89JQrhUPpctLNDUyEf7yxEuajug1RmQ7EnpepLMs9Sd3R1lhtGOmRd0pCqZkAhAFzSICmQSRGBWUhAIBDsFLRWmF7fnwiTsfCi11zeG/vPlM+P3vf01H0kae1sBPuNn0FJUSzX2DL29Lf+/3Qv2OEf8KKQKlsjhsW1MpepGCqbr2aLqhTUdbR3XQjoXydi/XnHyDLBSP3Fkbdq+rDDtaK8xagPMf+OuXteCl432hX4oDR2DvaNEuicqbE/YYSX8g4XhBB2sd6xgOh6UkdMhXgf0WlFzlRKu0alXGGikanCrK/hKXtQPhmJQRVkih5Ol/aijU7zzBYvInWMS//tfrAj4MHZ3Xw6C2j4ZOMSMDSyTsoRkvPaJp6I4AvogDDeqv1vUvD5s2rpRQuR7+3b/rDIcODd1y/uSQzgVPDz26LfyPv/1F+SdU2oZPXZ3DZv2jj0YDvKh+/AY/HGxl0xa2dBrrJ3wWxR6lUn1a/LF5TXO4ePZy2LZ7p/G2//1/+N1w5PUjJojnwp8Wg49rsyJrT47SXr9VTpFC0vvijyOabuiQ8L4uCzI8lh0tKzQgbF3TEh76uQfD3vt3h/v27dWGSyVRHE11fije+tyzL4YL5y6pv+lEUNWvQQ79sCWsEfCdCxfapBgcDW+/9V44e/aiLDITtmsjW0lTzipZE3bIOfOq+DuHhnXroCscHtmL4bqWu8Mv58rHFwNP5AH/8QlgoyUInJcIEiIgTHlXbCANzIs0aQpFMh/8Geh8B/tHwt/KCdK32iE9yEuWTVwQRhlxQU+57AH+aXnsfobtOQX/Eo3IeZ+sh9eJvMiHizj89m/JcpNw8z0fnjapkaGQ1zSN8F2tqBgWwSXz87LJN1pylQ/H8fdLwpcaqsNntY1ri4ixCs1VnrTgKYlr8vc6pX33+pAObdVx4PXnuz/XyVy/anlpGNJo/K+vnAiHcz4FUZ0cPpPUnm3urnf2WsqL2gaHocikSRr/xnyfSFBtmmxvmE6lLBq/ddfHw56GDZoWWR7Oa2XEWTZ1UntFIVdurhzeRXVX24o56Yf9hnnbChCj5amyLS70JGlHfSP4GK3qHYxEoD6w5V7N51dpZUCTwXqr6SlX0YI3YKINaRPqkQwsYx3XyJ3rVU1N4MvQomO26+WHsGuDLEhK0tYzoW2jJxTnWjg2MBre1rHTTFmskYXiid0N4QGtxmiRpWKV/CV2terAnnb8HNjvYrkOttKupQNXwztSEl6/OKIjsTln4pr5JZVqeWGplIoGKSyt2l+BZZn9WmkwpvFEtw7E6teRy05ryX6SrAff8/W7ZNy037PhaWaaJeFr/6lXI8LIgsLujgTg9StKE9Gh9zvagu/ASuA302K//mt1Yd99FdY36xsi3vRRoKc162rD6pYa21/hzN+8Fb7zVwejaqsfm7KvX9Qd3oz1U4/Wp83SYriK+IT1fH1kzw9wc+/D+8JjX/iYKVTV2osnwmIua93A4Wz8iXLBLxe45DfpoJVi6cnbYFyDzX75PPB7044t8sEoDfsfe0AOryVaGXJeW2B3Guwnj52S5eGI8Y3NWzaGh6VAfOwTjwSOxK7XQYN777nLFA+mMpo1NTGqpZAdHT2a0jqiI9BflaJwAQTZVAf7KkAb5eX1OotinbZvLwn9A0NSIsZDZ0d36BQ8bn2ZoqcpHPF0q/DkesE0S4ODApA0AozcAfVvhTRUvpEWTZG0s4UvyuGxRfNEL8px8ayEK2VxgYS0QGNShjMPjwesaF6NorrPyhHxvCwMzwnxOgbM8iLPfATkeQK3m3uc6NJgiL9Lw9Pj2ur6Tnnfvii/imMS6mn1mSuenBm1ini/0lQTLsr/43s9A3mXYHqd8uHJNXnqQt4QA3VOw1ONzPO/uvbO0Ctfgh/1Xw7D2ulxMfDkeJyNnvY0bggPN22Td313+Pbp1zxZ6t3x5O1CfdLw74lnwxOn+e3fsDs8tuNAePa9lzVyPibFIsrzVtGTwzobnubS7xxPzKdW6ZTID7XDZrXORaiSXwKMHsuEHzKFolGuKYSaipKwR5aHvesqwl2yLmBlGNYKjJc4bbNtOJzsGJHvB9s6a88V9UWcI5fI2gaeEAYjyqdX8bEocrw2SqH3g1tJT/PB02LRU1npB+E3/6sG28fhqaf6NMKMBmZp/c7b3WkUGH5SeGpsqgpf/MX9oa6+Mvzf//bv5YuhZR+x4PQ0VzxxbsXnfvULpmg881ffs02S4iNoipiNPzkYNwNP5InfA3TKvUmrPmgDaTkm40Tcmt7QgX3qL+WaXr93355w/4E94cEH9slaUKUprNHw/e/9MBw7djocefe4tg7X3jHaqRLfCHbGJB2DKZQpdpi8ePGKWThQGOxgq1nk3Vz4+GLiKVVpAFkQACHJdPMxL9f2aGQQ6wLdgY3fnchcOySuj4jzMWPSED/eeTxPVxriSOQbcblceHj85J36ev48FwMPeWR4mr3dMjx9NOmpZVWJBL/MzXA09QnMyhNikFWaWvjnn1of9m2oDu/ID+L3nmkLw5zEKv8Q9SL1I/qdrB761SHLxYQGA/lC1u8y/hQfXH6U+Pha7fnACguCDZI1tcCAAofFf/rP/3H45X/4xXBSysI/+2/+F9vy2Rwoc/II/weUgg5ZEnBkTAsuj25HeTdtesKBR2hyxYV0PmHuaYhLRVEYCsWFUbjiQTyPT3mFAukow2ErFNe/QZCkIS1XvjL8PfB4OcDIe9MslWFanRyWDE8ZnpzmuP800NMVOUoSnLY//FBOlerbHVIH/v0z50Or9nu4PHAtXNI8f1JZhw9gvYrm/7N+Z4hM+XM78if4X8bHC8swmrJDDozgyuWXywdw9wf/15+FF7RnAw6RWA8Q/LwnjluVnEekkIW9cjnkMiZfvPj7W0VPdvZEWgUAgIq60OV3vkAc4uarIN/ieZEP+Xl8R3i+/EkLEgkgvdjgjUSjASO/C5UFPB7HO4+b7h3eZNkZniImk+EpSRmR8vDTRk/qQuGEtpTmok9hTk4G6kw/zfpdEjPTf9+OeILvOV+eDm00VZDx8UiRzocn2vTSpStaHdM+qXCDR5cfLmOSuI3/vt3lnfo1S0EiMzMV9sAz70GOIyj+nXhUjncukEFMMnh64niAoRSDPI9PWoeBdHMJwOQwcE+DMZ4f9fEGplwvm7pmeJrCVIanqF9k9DRFE/GnrN/FsZH/OcNTftzEv2R4imMj//OtwJM2ZYysCS4U48LchSSCk+9pAaWDbwAbF+i8iwtrfqMsEC+pfKTl6+88H36Tdj4BuMiHesTrVygvYHR4XXlwPJBHPB+egc2/p+Wb4SkaeWd4mjou3ullPvTkacEn6T14f/G+97Pe7zI8FdfvMjxleCpW3i1jPhKBxkVgjgZGhNDkgiFBUHwn03iAIfE+jXEl80ymjeeT79nz5+6MNV/cQu+BDybqHYO4xSouceUhWacMT1NYz/A0ZaWbwsrMp8XCEz43Wb+bnT9leCqOj2d4yvAEtyqGPy3zSAhlBCuCEeHqDInvPLtjoLNBBDkXgbTE89EN6QmuufBtPoH8HRZgWEggPflRD3demUt+GZ6Kw1aGpwxPcQxk/S6OjfzPGZ7y4yb+JcNTHBv5n28mnsy8AKOnEB/NI6hRHvw9d1cqUAx4RgATh3R89zRUI54X3+YTXGHwsilzIYH0wIXjlsM31/yAxdOSn9fZ3zusrjxleJq+CifD03SKc3xAJxk9TcdN/FeGpzg28j9neMqPm/iXDE9xbOR/zoenaUsuPRJ3BKILbrL1d7zn2QUid0bvxHXm5/f84BT+Ql5cCF8X0oVTFPcVuLF+xIV6cSmnxyIf4HKcZHiajh//leHJMVH4nuGpMH78a4Ynx0The4anwvjxrxmeHBOF70k8TVMaPKkLfYQr1gTuCEaeuRNQHhCcfCOQBoHMfaEhLoTJD6AXIziMKDnATb4LyZv8uDI8FW6dDE+F8eNfMzw5JgrfMzwVxo9/zfDkmCh8z/BUGD/+1fGkg7OmlkL6x/idiHGFwZUG4rjVwZWFuLCP5zHXZxfC8/E9mK0slATqBOzAy/NihAxPxWExw1OGp6zf5aeBjD/lx038S4anODbyP98MPC3jnPDZAp2cKxl458I3+W2hv72y3BczeL5YG7gWM/8MT8W1VIanDE9Zv0ungYw/peMl+TbDUxIj6b9vBp6WjY+Pp5emt87cGfkjYJNWCQDyFRJMVRB4t9BAOT4tQn6LkafDRJ2oD/D68lL/Nt97hqfiMJfhKcNT1u8K00DGnwrjx79meHJMFL7fDDwtK2SeR7giwLmjHDgADiYMAIHOd+78LpSfpyv2Ttnkt1hKA/Bzka8rO4uRd4an4lo0w1OGp6zf5aeBjD/lx038S4anODbyP98sPKU6QsaZOyC5IuBKAoLWhS3vAI403Hm/UOXB8yBPrnh5+VFU3BcsGNRnMZSRDE/F4TzDU4anrN8VRwMZnjI83e7ybprS4MKfkTjPBFcAmJ7wZ68UwoDA6MEFg6fjPl/BTP4E0gMLvyl7oYG8uBbqYJnhqbiWyPCU4QkMZP2uODrI8JThCRq43eWdKQ3O3BH8rgjEFQQqwnuELXG5qFhSqPM7rjzwTD7E5ZpLcMR52fNVQLxMYOEin/nmleHJsVn4nuGpMH78a4Ynx0The4anwvjxrxmeHBOF7xmeCuPHv+bDkx1YhUmMi8BZFHGh6sLWlQh+k5krDaTjN5cLZOJ6ntxRNrBGzDVQBulQHDyfuebh8V35oH5zVWDIg/p5nfid4QkszAwZnmbiJO1Nhqc0rMx8l+FpJk7S3mR4SsPKzHcZnmbiJO1NITwtW7FihaVBOLvQd6FKQlcS0kz6xPMDr8iE3355fqRHYHP5O88/Ddj4O+KhgDgM3IFxroGyqYsrQ8WWTxqCw8+z18Hz4l2GpwxP0MFsIaOn4qyNGZ4yPKX1pYyPp2Fl5rubjSdbPZFUFhwMF/guINOErX9zwYmQJ7jA57vnw0idgOD1ePaiwB/Ph7Qgg/zmGhyJlJtWh7T8qA/pKJc0lOtXMg+vH9/5lvxO/v4tw9PUipgMT+lTZRk9Zf0ujSfF32X8qXjFKuPjccpJf54LPS1DeCPQksGFG3fipDF4f8d3F+pJZYA4LjBdeBMXxpiv7CQspOciDRd5etnJuMnfXibpk7Al4/Lb6x0vy+Ekj2Tw+BmeplbNZHiaohKnj4yepnCS9pThKeNPaXTh7zI+XpySdCvwlHefBi8cgTmbgCaOM0XSJYWzC3kX/K40wCh455cTSPJOeuIQn/yxGBQTgMktBUmY0tJ7HfxOGi7KzhcyPEXKX4anmRTidOT3jJ5m4og3jh+/Z3jK8BTHAHSR8fE4RtKfbxWeojWTCRgoHGFIKNakj2BFuJOO9PkC8eKOkRADlwvfQulI6/mjQMwWgCOumOSL7/V1WKiHw1hIYfB05JvhKb9ileEpo6e0vud0kfW7aOCUhiPeZXjK+PjtJO+m7dPgRAuRElwR8PeF7owOSOf7ORSKi1D2kSnIwBkTxoHgTXO4JC+3Nrhiwp0rXyBfFAwvJ188YKZsYKBsXxWRL378fYan/IpChqeMnmZTuLN+l/GnjI9fT5Vj4MXlL3LsdsLTDKXBhS0AF+r0caHgzwjoePpCQp00/h1BjQDmQnhTbpqwJz6KBcyGuPngcxgogzheDr8JfPc45MP3iYkJi5svzyjl1F9PT/xi03jqDE+OicL3DE+F8eNfMzw5JgrfMzwVxo9/zfDkmCh8/1nF0zSlAUGIQCbMRxiSBkSSh4/ykwI72Qx8j18IceBwiwX5eR7cKYM78byMZJ58Iz0Khsf3OF5H4hC8npRTbPA84umLTetpMjzNjrGMnmbHUUZPxeEow1OGpyQGMj6exEj67ySepikNCFIEPmZ6GPZ8ggthBDrPLvBny4t4CFLSuEJAHjzzzpUHj5fP2kB8LkK8fH/PHSR4PvE4s8Ho38kjw5NjI/89w1N+3MS/ZHiKYyP/c4an/LiJf8nwFMdG/ucMT/lxE/+SxNOk0sAHLoTpfASpF+LC2K0N/OYqNnh6YEBpIB+EPIFvvHf4eA/M8eD1cMXH4/h7fmOBcCUknraYZ8/HYZlL3eL5ez0zPMWxMvM5w9NMnKS9yfCUhpWZ7zI8zcRJ2psMT2lYmfnuZxFPpjQgSF245nNEnImu/G9AJIKZPBH8PM81eGO48kA+BBf23BG4XMQhxBUIvvPbYeA78RwW8p9ryPBUHMYyPGV4yvpdxp/oBRkfL44XfJTwtHTlypVfRbgilOnoCNVCAtUFMXEKxeMbfgXk6UK9OPRNj0U+pOdOXjhKAoPn6bADP88EFAbiUj7v+Y0yxH0hwcvK8FQYixmeCuPHv2Z4ckwUvmd4Kowf/5rhyTFR+J7hqTB+/Gs+PJmlAcHKtRhWBi8QIY8C4gX7CN+/z/XuSgL5kicKAXcuhDgX3wj+jJLgCod/m2u58fgZnuLYyP+c4Sk/buJfMjzFsZH/OcNTftzEv2R4imMj/3OGp/y4iX/JhydZ96eWL7pgjidcyDNC25WGxRDawEI+nhfKgSsNfOM3ge/xuvAeBCwkeFnkG897IXl62gxPjonC9wxPhfHjXzM8OSYK3zM8FcaPf83w5JgofP9ZwZMpDaCCCi92cAHvigP5u8BfSFkIcPLhzpUW/DvKwkLLdIWBcjI8pWE7epfhKT9u4l8yPMWxkf85w1N+3MS/ZHiKYyP/c4an/LiJf5kNT3b2BJG4igkerxhBHM+X+MWkmQsMxCVPhymelndYBBajTM8jXp94WWnPDpOnTYvj7+L5Er+YNJ620N1hIA55xn97Ot5leJqi/QxPThkz73H6yfA0Ez/+JsOTY6LwPcNTYfz419sNT8vwY2CKghE5wmMxR9I+JUCeC/VpAIEgjwuGhfWCOzD7FAW//XJE+2/uCwnUIcPT7BjM8DQ7joiR4SnDExjI+FPGx/P1hNtV3i2DaBG8AIiQh5ktVnClYbYVGcWUB3woBzhAAjNwArcrO65E8N7rgJAnLooRcRcaMjwVh8EMTxmesn6X8ae0XpDx8TSszHx3O+PJllwCsgM5E/zpbxDSxEUwwBjSAt99uWVciKfFne0deSH8uVAMPD/K5jcBWHh25YQ0xHP4gJn0BH9nP+bxh7y93ELJMzxleCpEH/4toyfHROF7hqfC+PGvGZ4cE4XvGZ4K48e/puHJpC6C1JUAhCsRFxJI7xYA8p1vIA/fa4E8UARQDFxJoBzeOezcuXjv34jvCgR1Y58H8p1PyPBUHNYyPGV4yvpdtBQ840/B+G3Gx2fnCR8VeTe5jTTCFgL3zZNg/FxzDa4wkM6F+FzyID0jeS4X/g4bd4J/Bz5g9pG/CyvSQaR+zDXpiEOj+J0484HPYcnwVLhVMzwVxo9/zfDkmCh8z/BUGD/+NcOTY6LwPcNTYfz41zQ8TSoNRHKhi2Al8nyUBtJyuUXACy/mTjqEOcKdC4Ug6Y/g38mP70kYgdth4M53rxd3VyiwOjhC/HsxMBLH45N/hqf8WMvwlB838S8ZnuLYyP+c4Sk/buJfMjzFsZH/OcNTftzEvyTxNE1pQAAipN2URGSuYgMCGUFKmIsw9XRuCSCtWwni5Xs8ykBhIF5a8HokhbrnRR3Ji/KoK/E9P4+Tlq+/8/wzPDlG0u8fRTxhQWpqagq1tbVhaGjIKqat1icV4fHxcXtXUlJi76AjgtMTyvLVq1ft9+XLl42OLUKBP7cbnqqrq0NpaWkoKyuzelA3LhRt+snExIRd4KCiosIGCNQb3JCGPkT/BZfgkHc8E4jHRd8jHnkNDw+HkZGRAhiKPt1ueAKeOL8AR+Xl5aGlpcXqCJ8Bj/Ah6s9v8Ec8x4Pj1XlaW1ubxeN9xp8ieZTx8dtL3k1TGuiadAQuJ1qIu9gAkcNY6BzkUUyAIFz40qE8bbwzej4OE9+SHdbjcPdvdFTyJ77nF38mHt+BGQZI2dS3GNiJw+UwZXiKt8DU80cNT7t37w6/8Ru/EbZu3Rp6e3sDTHzHjh0BxYG2RsidOXPGvhEXARsP0NDBgwdDa2tr+PM///Pw8ssvf+ToyXGwevVqqxr15oLGjx8/Hvr6+sKdd94ZampqJoX/xYsXQ0dHR9i3b1+4cuVKGBwcDNu3bzeF4NVXXw2f/vSnLQ/oAYWCfAYGBsJ9991nigf9kvxJRz5PPfWUlX3p0qVw4cKFSeXrdqcnaOU3f/M3Q3d3d9i1a1eoqqqyervgQ6F89913TcECz5WVlZN4OXXqVPiDP/iDcOzYMas7dc3404emcLmSmfHxOLeJnqET8IK8uxV4mqE0AAbCG0EOwcIsvKFmgjv1hrhcxKUSswXiUkGvpCsLjoC09F4GzGU2mBwO8iekCXWPwzfvoCCe+nPxvVA5GZ5+uvAEA9+8ebONFlEim5ubTUAyCkY5gP4YOd5zzz2mTLz33nth06ZNYdWqVTaa9u8I1HPnzoVt27aFN99802jvo0RP9H3qRaBf0DexGJw8edKU68cee8yUKL7DH0ZHR02wP/TQQ5NWBfoRuMISsXHjxtDZ2RnWr19vOGQ0fuDAgYAlBhyuW7cuoKCAf/DMb9KgWDzwwAOmqP3whz80a8SPf/zjgCJBuVg2HK/AUig47/A+Xygu34g/H/7EAARlqKGhwS7yAYeuEKEYoGxRf3BEAKb+/n6rk7/z9572Z50/eXtkfNxIZsYfp+tbgadUpQECdSKl4xTTMYnno5FCgpY4dCwqR6Ac8udeKB3xuRw5heI6RskXuEhHuWlpeOfle1yP77ClpXPYMzxFDqWFaAQcfRTwBKNnpOgBOkVxQEghzHxUCJ0g2FAWUA4QqAhC0hOH6Q2EJDTHb0bPPH9U6GnDhg3WVxgVY20BftoX6wt1pC4eYOJYAlAyUBII9BfieDzyO3/+vCkXKBG8p4+tWbPGBCjWHBQSRuXkDy7BLTjH6lBfX284/cxnPhPuvfdei0u5jMjfeeed0N7entq3HUbut4o/ochAD3fddZfVExxidQCHwIwiSX2cl4EL6AKlAdxg0YqHjD9Fg1jw5Xw5jR9neLp1eFoG0aY1AkyCb3Q2iDotjhO3C1vipGmC5MPlDe8dhjIKCRvP3+HgTv6FYPE03IlH/pSHAGDElC847F4WdXJGQ/3z4SDD008Hnmh3RsIoA/FQV1cXenp6TDAhzKAJAvH5jVUBho/J/uSJk6G2rjZskJDkwkyPIODbR4me6CvAjLKE1QFBzuiYZ+odDy4M165da/3Mv3kfdTyBK/LEvyGOQ5QqBCn58P306dMmVJneQalg2gMcEhDGXV1d4fHHHzdYwDGWIRSS119/3b55+fE75TnPudn8CRhRClCAULhQKqk7OMRPBhwmAz4d0NjOnTsncZOM87POn+C/GR9PUsX039DIrcDTUnXir04vOvoFAHR4OpwDwxd+8x7gPMBkeJemAPDe8yEeDU/H5Yrn4Xml3b3T8y2t0zsxUX4yT2DnOxfPXLMF8uACbjo5afMF8vP68ezlZ3iajrHbHU+08+c+97mA8ANWGLzTLkwf4cXI130bvHbEYSqDbxWVFWZhQIgxUiYuJnbM8K5cfhToiakBaJ4pAxQpBKDTs9ebO0o4ihGCn/qCCwIKAL4fjY2N0/oe1hfwFDfBE5+yHIfgDFyDM4QvI3emP7gQwigSBPCKMoEPBRcCd2xszBQH778WUX9uJX/CyvTII48YHNQDXKIAoXSl8RFgPXr0qOEKxeIHP/iBTX057Gl3rx/4/ijQk9ch4+NTMtNxkna/3fGk/hRttewC14UelXFGRyV4DzNNBjoClxOyf3eGyzdHAgKfPMknLS9PG7+TD+m5pykM8bhpz5RDmeTh9UiLl3xHOoeXdBmekhiKfv+04AnmyzxznP6pIXSH2R0ByKjx7rvvNnp3+qb+PEMfCAac2zCpHzlyxN6RjrwxU39U6AlHRXDhChJ1TAsu0BHkaQLR04EfLDYoGExF4CCZDI5D4oFH4jL1QN9jFM6FQAbP4BFhDG75TUBxwNfk6aefDr/3e783mf2t5k8oUky1YD3BxwP44rQyCVjuAeWI+mDhSsNhMr7//mnpd16f2e7UN+Pjs2Fpyrp+M+WdHVhFATA2GgaidwWB3zy74KfR4oHO4OlcGeA7713Q8kynIF/y45pL8I7ksMwlrcf1OpAX8BQLg8PrZWd4coxOv/804In5ehg3VoJkgG4YdWOux5ENywN0RMhHS8QnLgI4TsOOK2jydqUn6oeQ9pCvjmfPnjXhzZRDWoinAwcIUhwasTTANwoF8AsOEcBYFbAiYMHAukA7wW/wZfB2IC/K27NnT/gX//2/CH/4H/7QrBMIbd7fKv4Er8OagnUGywoBGLmAI44TeCI43Lt37ySNxOtjiQv88fy43870RBXifQBY5xMyPl4c1m42nuxobCc6GpbOTKF0Mu7+7MqBg+3ETRpXCHjHb9eu4+njncXzmO1Oft7p6YzzyYMyvH7kRz0c3tnK9++e3u/zwRNlO+PK8BStzom3Jzgh/KTw9NnPftabO/XubYZnPAKM3w4z9YjXhQygMawL0Arme0blHpyO/H670RNTAa40pNXN60GdklMNfAMvno6748rv5E2/ni2gcIFr7uRDeUx70AYoXPHgZfJuzdo14bd+67ds2SZOmt7fiXOz+RNwAjPOj5RH8Ho7Tuyl/sAP4GvA5Hhy3snvYgNx4bV+v93oifpnfHz21vyo4MlOuYwTmxMtdxf6fOeCGKkYz9zpuK5c8I3fvCfw3r/Njq70GJ7fQvMhd+oCbCgNDlt6qelvHQfkQ13niifHZYaniLnlo6efBJ4Q6g8//LA1PHAlA+8YNTLKZe19XFB6f/A0CAEc+hAazMkzWt6yZcsMJ73bmZ6oJ1YBXw3hdUveEf5MNzCqTsalHT14XZnjBx9M8Tif8DjxOzgEf/gwMAXBkld3MMR3Avh4774WpE3mRxlMm7DvAftq3Kp+B38BF/gnACNTPATKj+OEd+AFSwPWLa8L8bjgUXMJjmPKIH3Gn9Kxl+EpHS/Jt4XwNE3dh+DQyiE6BLYTMO+dGHlHhtzpqHRwj0vBfHMhz/N8g8Pgec03H08HLNSBO/D6b/8+l3uGp+Kw9VHBEwIGk3K+wOgWpQHhj1BIBlccGKHj/U8fQmBAZ1yY0996661p1oZ4HrcbnhjZ45yHAx9+BPTFtODKAkoSykC+eKRlaoEROKsdkgLe86ZPspIAQQpOUBDo//gq8J78cVBFacO/hGkR/CPi5XpbIDQx+3/84x83HxPqRKAM5yk8zzdQJm3reXk+vIOWsIbgr7BhwwbDoX+P34EVR9NDhw7Z1BdxgYk8uIOD+YTbjZ7S8DSfepHG8ZLhqTAGbyqekkVTGB0BxodCAGE7o6QjcvGbjusdx7Va4tM5SU8+8w2USd7c6QDz7TzJ8oEJ+MibayEhw1Nx2Pso4OlxLeHLF4CfkSqjW4QBNMk7DzxDn4y4n3/+efN3YF4d4cYImX0eSFeoDPK6nfAEzAgzNl5i90I373ud/Q4PwHERpcGFsn+L3+ELWCVwcCzk/4ADKbtpgi8cSsEhaVG6wD97H+AnggUBiw9wfeMb3zCLBPijbQjcuYDvySefNL8Lft8K/oRyBG8BPhQacIhDZz78wDvxp0HBQKkCxow/xaln5jNtnfHxmXhJvrlZeFqqpU5f9U4WvzsALrBRFNAY0+KgJEDsAEmIx5nPM+XQmciXa7ZAJ/P4Dm+hNMQHLg/zgdHTeB5eboaniGE7fvx+u+KJ0TL+DIyUgZURInTsSy59qmGDRoGYnRFU7BWAQKLNic+ol3hsPMS5A+SDyRk6w+LAPg6Y+7///e8bGhwnaffbAU8oPayeQDgzRUBd6F/0S+cBDifmdxQC+im4BCdMQyA8wRd+HT6NwTQQuEU4cmHBwToD7rDQYM3BOoDSQsDiQJ4oG+TBcljKIR5xXLlhpQr5AKNf4JZAO6EAPffcc5OCOw3vc3lXiD+BMyw0XMAOPYALlALKSMMhMCIEqQP7TbByxOGnDnOBLRmX9ISMP6XzJcdXhKUMT46PfHfwtIz10bMFMoABJgPvYALOUJLf5/ub8gh0JFdE5ptXtcU+JQAAP/FJREFUMh35wXjoqMC9mPlneEpiO/337YQnRq9+YBJMPh5QhBFQzE/7N6wH3/72t024IcygUe4oBdAUAQFHnoyWEYz0E/YRQHjh8V9s+EnhCaHlfYSpGxQH8IBwBw/gA74BfNQZAXnixAlTtFCqvv71r5uVBSWBOOAAPGFBID7vCCjYxOfiGzhkWoQpESwS8ekMcMjF9AajdxQxb5f9+/cbXrH2oMTwHgsI5dC/aeNf+ZVfCV/72teKRX3BeA5/Gn9CUQJ2cMh0Fnii7R2H3Klr0t8B/xfgB1eO+4w/5W+GjI/nx038y83Aky25jBeSfKaDcNFhvbN4HABCg4W5uibr3xZyp6zkiGYh+SXTUg9H5mLBneEpieX037cTnmDKjGwZHbKsD+ETDwgmBBoM3mkfD/4XX3zRpiGeeOIJUxgwnft3RtaMkDfIMoEAIz60Bj2jRDAKLyb8JPFEnVFuwAtw4FuAssCIGYUIBQLhjWAmYJVB0KM4MLJme2csMMkAvrnoc2n9jj0WKAcBCk4pA0WLd+CQC6WDsnCU5D045iIeI3XaDKsFCov7oJCOLahR9hDaCw2F+BP4wmpFOVhCgJH4wIxyCV6wVKFUUD/fFAt4XYkiD2BGeUjD03zg/0nSE2XfjJDhqTisLjaeliHw8wUKc+FNPDo8HcBDvPND5PzmvtDgZVC257vQPD29d3g6JHVaDHgzPDl2C99vNzwhnJhP5tyEF1544f9v7156bTmqPIHfrr5d1R+gelSt6uPqQbmFhDDyxcbYsg2+IMRTWEIMizHyd+hPwJwxIHuAkbAwQjxkG2MM5hoMky6pe2B1DaqlLkqqnlW1+rF/efifu06czNy5X+fsc08sKXfkI2LFin+siLXikbmHjjwloBemlBnGLEswmAyP+wyrES2DpVyI/jMG2gneCB8HXbahz783GqHO0VXjZOZAGZWhzii4ZvgYxHv37g0OAvxgYOmAIedQjNHSdgdjB7LsYANplo/gCJvIwIlRB+45GF7fmCCnJaO3f/H2rb9++K8Hw+wZ/H/4wx+OibfRvXX9ExlgwonyL56Jzykgm5kGGCofh/Sh1YeqxOek0R260vun+SpZqk/zXM4/vep2d13s3X0PoOAX8KLAruMgJIwX7NpzcWv8wm7jU50Dg04xHPjvg1IuvMgtn10o/Gq5g0/CjtPpmqwGcWw4ZZRH1+7cuTPMNpgZQDblmR43QjQtb0MgQ+SeuvX+v6WK6CZdMrVshM6QKmslemw0zLhO0bHoE0fBCBkGyhoiH8NnBP3cc88NZbfzHxbiKR+nqaWUy33xlrY7ePq4k9cm654EThzDO+agwNnygI2ID/+nh4dNrIwzXv6dU72kzlo5l14v6Z9gQZc4X5XkbbbEbMRHP/rRYc8Hx8gMFGyVDW2CU+Vfz4P7sbW7KuM25ymXtB2naQQPhdM5p0EmyYgCUzaVYlSF4v0aKTk8y3MhwyDdroZeo3TguSuvCileKRPe21LHaRlyx4wTXT1ZLSHQB+vopo05CDpvo0BOgql2U93vrzYCGiFyLMRF3qiwbyGkbbhnZsKodozwmPqE8jG1O23PCNi3EThJY6QtWat3wAEu+gntnxNWadd2p6/50Y9+NOyVcA4rdcMo+0oneVH6jVybhbD8pD4sP3EcGPNd+5TkM9c/ySPLUZzLMTK7YNOpvRwwJGMdZIylWXLvmNvdEvnXxdlVn8K/4xQk5sMLOInuJtKROhDldWggKsn9dAbiu++5Tldn4VkakXueuw6PgekGP9LjySuXt2vHtkRm5cBjW5k6TsvQvw44GUn7vwIdNieBY8BAMvzW5E0VmzUwFW7mwOibY8FIIaNwo+r8wZUpdUbMVDM9GyPr9JZCGAt7H44VJ+1Wua29502RyFrL5R6DbO+ApQkOF+OXQYa44uyr3b388svDX5c/9dRTg3PCAbOsRFazC+kf5JlzToy6NKtkuYDjZsOh54fun2BjVoaeqPMqV8XRrIklDVjr83r/VNE5f75Pfer27jy27RWsUYvTMIeamyJRWI3JoWG553kamHPkmYODoFPIc6Frh2fipyEMCTf4wZ88kQGfbYkcZNKh4bsN4eHoOM2jdx1w0qGbCrbkgBj0v/vvfzdMedMPI1qjWfqcKWbr+O4jcX75y18OmwCdcxrEZ7ymiP5xUjKjcaw4kZ9sDKw3FfI6Y1su7cCh/HBSds6U6xA++2p3+oKXXnppeBuCo8Dx4xBYIoGpfMlTKfJ5xnBLpx+5jP5JHjaJclY4iRyYik0rp+ttHQZpj1WflLn342ponq4LTrfzClQErkqrwVFEoYYmjiMNU0fBCEdZEyc8xK2N033HUopMcUzSASxNn3hkcOBHZuEmlPIl/5QjfNzvOJ3vtFJ30QV4HwtOOm+vEjLgZEJmFTgEngk5EaazGaY4AnEwok+WLoxgXdMr8bUBPKbIrAXngnE9Zn1Sf5wF5WeQ6fcYpezKz7lyHQpOeO2r3Znpsc/Bmy54GsU//PDDwx6H5Btc22vLBJkFjV6SMYObtOukWxdGx2v/1KbhLJilmsNQGjIrTyt7y2/suvdPY6hcvNdxuojJ2J11ON2OsmowlLaSZxrVXKOXTibpIMJD6KgCJN5YXjXfet7y0SlvSvJVFvkqy1JSpqTtOE2jdt1wogNPP/30YPAtKdi/YOnhzkfu3Pqzf/tnQ50bldqsxkB94AMfGPYqiIeiEzYAMqrZOGjmId8PoC9jxBmx1m0PACdjrC0cQ7vjMMDE1xg5RnMk7u9+97vByYCVN0xQcNpnu2P4bRy0v0Td2ENiSaji7TztPH2XJSjxOYDqKxtayRg5hXR5rE6myt/2TzWeARVn1BJFZkLqc+eRU7ls2JzaQ9Kmc33d2l21B70fH6vR042dx47T8MqlRtKShpdGNDWlH4WXPo1PgSulAUbBhXi7nwZd44+d45n0zts8xtLknnQOeY2VM/FqmDQJ5UfJx9J3nE7xhdV1wYnhMK1t1Gqkak2ZIbeXgZG0CdBMAMeBEbTP4d133x2MaHSCPuno33zzzVt3794d9t6YubCuj5+0LdEVlP9L0K5aOhZ9YmQt35jOJ1PaeuTVFpSfkwRDmw5h6FPaZi+NsGG173YHM3sS8odW3kAIrpEtIafMa5nq0hswXrm0uZNcIeWgt+6lv8PPfbIv6Wtq+sgiLTnJy2loMQwunASyeROE3tGddRQdTHhd2l3FybljKaWswW1JuqRJ2HEaRy34JFyH05+MGUKsKbljSeWmgSXTVrRUtAbE+IqXDY7O09DadLkmQ+RcEj/p8G2nI/NsLBQff2lMMbs2VU3u5N+mE8fRcbo+ODHa9iDosC0XMPbvrzZCqnsdN7LrnmFi/H0eWqeujlt9shEvxHDSa8ZC3FB0xDU9wsMMxRgl7lXqExnhY08DQ1pJW+YscKTMtGgfXm802nfN6KUNpd0L50iZk2ZJu1NvnDObUKVrCXYcBf9TYXOhfQVmluSj/8lrjUkXOffZP3GmLNfAppUxGOYfLmFIJzmyU/0MWTfFKWmku0p9Cs5kSPlgQq4lJF7b7ubSdZyWbfbfFqeLLW5VG6kkoUa2rtGn0QlVrnRjlHhGIRqoeDpZadYpUZQ+ccf4t/fwdCTf9nmuySEe3uRBcRakdYyRdClvx+n64OSfD+0r8EU+hjGjUc5DjKTZiMw4qGNGCLX6ZHOkEW2e5VsF7tEPB4oeMcZ068knnxzu159j0SfOEsNaR71kUwazCpYinJuVgaHZCEsU0sWQtzjVcuYcz23anfriOOSLlOEntNz0zjvvDLNIllXIxxiTF/Zzr8SKw6jt0j/RH30Bh4AuWI6qhD/n6r333ht0QxwywppjSjda2hanY9GnWp7ej19/e3f+CzR/rF2KT+FSwbXSp87FTQegYcSjHIufxpk08ktjk87zltwTXzz5OB+Ll3TkF1e8OVnSsBgGcTX48J7jLx/8O07TzkLq4phwYtQ4DdXZs6HRZrp2BGpPg7cHdPJmD1LXVZ8YS/sTfPnPczMIHBGbJi1toOgRg2CNmxHjtLz44ouBaAiPBSfGywwMeZD2wAlSTgY7/+LpubaozdhnYLSM3D9ku4MjY+w1RQRfgxCOnfpihBnjzFqIQ25LE+p0bqNq+KljZVA+5XEo57r+SXrOCVLHdALhRVfIB0v/h8HZwp/8nB17SFxXkp6u9v6p9+PpR6p+5JyeHLrd4T/oYzJNmMwJWDvHPJ8KEz+NTCOZK6RnOfBMOoLJd6xx4qnhiiP+lHzK4LlQ/DE5Us4aD/91cqf8SY/3lByJW8PET3nX5ReMUoak6zhVVO+P5NfhxLjHaIhr+toSRD5HXLnaMGe0+vbbbw9r91P65D8TOCNGsXgznr/4xS+GkbfOHsnL2rX6Ew9v8byOh45Jn8y4KAfdZOjMLsAJFhyG4EducbKPw8yM2QZlGWu/tZy7tDtOWfYJaN/ytBTAcfBWBTmjB/Iki02GnDXLBpwOMtY44lXyLIf7S9udWQpOg/0T6l7eMOQscsbywSkYRgb5kEv8zHRGH3bBSR+Bd++fas2ePw/OHafzuLRXFadzMw15IIHOwLEJBfh1Rr3ylEbDl7dGI0xDiQzioMo/DWJMxvASP0fNM/LJB2lUjuRT446dd5wuzgRdB5zU+xNPPHEmqg6eMWSAdOJt/atnhtAI1RFdauOZVTAdzXj53wYjSB9xYkyNNhH9srnQ+jrD4Nw+AE7DsemTEbyRL2eBnEb1GRmTtZafQTSKPzk5GZz5PA9WZ2CvTvbV7szmOBhhxpizYAZBXcXoJl9ymEnSt+Q/NcTX9pcYU+k36Z9gYWmL42JGwWZb93wXhCMhRHAKwZoeZhZkXzjhnz40eS0JlRk2keMQOIW/POTX+/H7M/vwQLUejgmnc06DhhTveKwS1ylcKh+fuUKO8ZE2jTnKqmE5yOJ5jlbhKj/x5e8wokg5cl+IP8InDQLvpdRxWobUseHEkJ+sjBtS34wiGbM2TjcclcSz8Y/hoCtj+sT5YMTw8gYGfhwRyx2MgTRmGRgH97365/rxxx+/9cYbbwx6ekztzn4BI3PtBGacIPKFYAQXeHAqGMlqDKdw2ke74xTgY+MqR87I3QyCmZuxujPlz7l47LHHhjL4YiVjjocypD5TtqlQ3CX9Exk4DBxIy1pmsU5WOufemHz45uNhZlDgHKzh6EDiLaVja3fK7YC1cuRQNvWQuqjlE185HL0fPy6cznqCVGwqd2ljqhXtXDrKoHE735RP0pDD6M/hnk5bSOGibJG5yhBFE0d8cVCUU6jx53lNu+Q8eQoj65J0bRxpO04tKhev94mTVwJtOFN3jAfDfbLq0OnYFJk2tlYefRnTJ7zsefAnTuIbXVq7pmsMlk4PD+/q29Fv5J5d9UIbC49Jn/7hf/7D5Mi94qRcymtphqFTBu3zkO1OXWXviT0jnLXUSZXNuXbOMbS/Ia/AqiuzI+pmm/abNPIc65/gYIaJg2ijKEdAX6hfkhZVec1C0A3LZtKmv4u+DQk2+ME7R2TdIPlZVGl7/3QGx+TJTcTpzGmg1DGoUe5JpNY8iLKGJ+XblHQ+Me7k0qDiMAg5Ee45Iq/8PNNopE3jEce5eEYZ4ji2oZQJ/+S7DR9pOk7LkNsHTgyNtXqhumdMOBBGgCh6E51xzznHghOQKWr3Wn1iPM0efPKTnxxmGYzMrWsbrXMSGAb5us9JsESRtmYELN4x6dNf/Pu/GEbvyhpKe6k4cZQYOeVJ3DzXTlqcPAuf8F0apt3Jz5sn/ijLveQ7xsdMhHozGxFizPUBMeTqYZ/9k/JxFDiocVRS5iqre/Tan1SdrBzXbOqkS2ROmsi9NAxOx6RPZIFx78ena1F9XxecBqeBMlM2pHK3VdhAEgA0cIqicWzDU5rIQz5H9cQ9z31lSF7yQ+KiGB3x82x4sOHPg4pT7dxTVw8aTqbP7T145ZVXhlqnC/4qOXrvupK6pnvZq+DZFE6w+vWvf33r29/+9tk0vbRG4Ua1njNWHAhOSPLEUxwGQ9jK4PkmJL2OZ9d2Z4klOMEBCat8rpWNo1TLIy6cHMrtkE64LckreZilMZ1v2WeMIu+Q5//5v7f+6j/+1dk+B8sullP2hRM+bf8Ef2+Z2GtBlsgTWaVBg3wrTJTLJ81zP3gl/iZhxSlybZK+jUumfegTPpFHeR2b9ONT7a6Vd+l1x2kZUlM4DU4DY6siU7HLWM7HSoeRjPHelsKLjGTFkyJFAZNHyiAf55Q1CrtLpxW5H2Sc4KOOHkSc6Iep7K985SuDUacTHAgdO2dCByYOEuZch2kkGD2Tbgoncc0ieLuAceIcWHe338GI18jWc1P5RuZmHvBlADkTvvewDyKfQxlqe9iE98lq5PvpT3/6zEmSNpiEj+t8UdMSAQzhk3hTOCX9JmHanfALX/jCsBfErE0wbHmRgSz2M9hXoD7IaJ+B+kT7wCn5hhe87a3w+q43Y8xk6adaIhuS7ve///2gA/4pVPpdKDg9iP34IfSp4zSvbVP6dNsDB1Ix+ySVotE40lASbpOPtHimMBqZ83RUeNayiKtM0tU4m+YtraPy3pTHXPyO0xw6959tixPjYjq7btazIZEBMWLN+/TRkYRZdlDvtdMa0yfLEXn10MZJTgLDJl9Og82R7uXTy2Sxgc/UOYPhnxr31f62xSlIk9cXH2GUPSC1zMHH2wqWXsySKIf7jmBV04T3JmH4wd/hL7GDJ6cMvt6ImDK2ZiVs0oxzaDmFsxjaFafwSai8yPICZ9B+FnWcfRd5rlzBxvcw7GnhSFYMw3NJWHESf196lLwPgROe6lTd9X48SJ8P6cgx4rSy56fr/YSLUp8XffsryosnpaiOw/Yc76eMrBpMKI3RtbxdU8x9kDLg13GaR/MYcdIhm2mousKYcBYYFPsajBBbMpI2OkXr9Ile+J6DzW8nq5E6HIxy5WEUbgrajAJDS3ftqfAHV2Ym7LVgnBnffdCu7Y7x4miZZmeUbSRUnkqw5ATB1pS/sM427LPdycenvM0UMca+xcD5gq9XVr2FwkFoiQzk980MDpAPUFkmCu2KU/jU0H4JzsxDq9dp4eJPzrxKCcO2D4QhPfTMrJR0ZBZvUzrGdrekDL0fX4LS/bdnah/mPPit65+W5XI/1pw+ne8J7qeZPIvQEXYy4gEfRIYK2lh2iTf27ND3knfHaR7py8DJWwuWBirJl3HUQecLfvW583b0H1nbeLm2FGFkyYAagTNQnATpzCw4jOI950SYYfDfFYxtXvsMrzZM3pehT4w0Q8ZQmz156623hvLomELk0LHY9MdQKm9ki6yJu0tov8fzzz8/fMWTQ8a548xx9Mjn+xGvv/764JDBvxI5GGWbEn2Ai9NwaCIfx0adnqycR06hGQd5q/tgFDnISEeUU7z2eeLtO0wdXVZ+Y/JHBuGcHIk3xuPQ95L3nHyXJcOx4HTbWqyOk4e771E0ngqqszFlty/CNyOfVGYLqOfyrB3dLvnDpuO0HsFjxMlIz1IE5yGjOSWhI2YCjPIYP6PrEL2xuTG0RJ/ypgRDZSqcQaOfDvrJ0Llvjd3ImFzPPvvssNmyLgMkz23DXdudETKChyUBRtrmSDKS2XS7PJSLkYQrDDlFae/0YFticOEjv69+9au3/JNlXku1POFtE3nKzwzCM888M2DoNVf34Zw3F8jAKGcjapVpV5wqr5xHh7xGyfFSjkcffXRwvshH/yI7rJB+hQPLaSDnNtgdY7sLJlNh78enkDl//9hwuq1zdFBgwu3LyCp2GuU+jDf5dNwaGCInhyd5eKYT03jS6MQVr94bEm/503FaBtyx4fTZz352GHEyfjpzI1adOZ0y6tdZM3o2sMXI2+vACai6s06fjCQZV2EMg/MQY2sUTwbT13TXCJMh9BqhqWw6vSulTWzb7pTdUglsYGTzJqfKfTgxjDDkHMFLWS3jeNOEoYeTo2I3VSayMvDqg7E344I3x4HDYummYiJPjoI6cy6fYGifA4eHnBwFcuHvviWKlnbFqfJL/0Rujqg6lj+s3PN/GK7JbV+F+2alyA5DuuGZ2RLtZxs6tnY3VobgpN4QmXs/fhGpY8ZpqDmNO0LG+FLkbSm8hJRi20aQ/DVucjlQeLrvnKzppCK3MjmXxjOhe7vI0nFKjcyHx4ST0R7DQ1cYJVPH1uoZHuvdjDgDbgrePURv/Asho7upPtnX8LnPfW7gTf8r0UMGGG+yMMrIfU7Dt771rcHA1TSbnO+r3cGBA2BaHz74Mm6w9HEkBlEZGD1xYxQt54j3qU99athzwAEwwxP8tT17EdRB8Gc85cFpEN/hrQd7TSzfyDt14Dz1aD8DXpmhIQNHQXrLTfaMcGTI/NJLLw3OXLDcF07h1/ZPZhP0Nxwsb1HIzwGbk9WSBUeSfGZMYMiZ4DgJd6Fjandj5Whx6v34GEoXP7d+bDgNToNGSeFiYGtnOV6s9Xd1hOGbRr8+1fkY5HFQNoRPZHNPQyS3+66dI+fiOZJeKH4qQLgppTx4KV9k2ZRPjd9xqmhMn2+LEwPGoCDT2TpxnTajYzRtut0o2p4HzgTDo34Z/230ySt0X/va185Nj6dUMRxG0mYxfAUwesxgWP9+7bXXEn2rcFucamZGvTAzQicXuem+0DMGHoZGzAy0kTUniAGUxgwBg85IejvA3oN8NdPeBzM/MLe0AetK0jH2HBbYhOSPgiFnQzxOQ8gzDgh5GG6Ox49//ONhP0PiJNwHTmR3RE4y6hPIweHhiNKnzNjIW3yywYb+cSyUg8wcHuUSp/dPvR+PPgnTTxyDvTtrsQQjUIRL49o01GDwiOJvqvzSh4eGncatMZrGwi/PI7MQCT13xFAok3TSI/zIt205k+e26QchVj8pQ8cpiIyHu+Ak7Wc+85kzxq7TadtvYLSr02bodeQMoj0Hf/jDPw4j5G30KaNIeY2R+4yr0GgTyYdcHJxtCb99tTt8OAscAq+dki+UfODFsMPQH0JZWmEgrcnDwOZIRtHSi5kJMw4MpTcdsrShzJW0VVP0HBBxW4oc5DNLBD/5jRHjyzF59913BzkSJ/Ifqt1FRg4RHTObkL7HszzXP9nHwHFUXq+4WtpSthxk3ZTwvwn9OPw6Tuvt3SFwOmu1lI2xFaqMtkEvVd40Sg2F8m5C0joY9kyLMvgOvMjmeWSLg1DzEM/9KJRnaUhxPDwDpnzwwnMpdZyWIXUMOOm0jYrJgugF/YheMnJG92YgjAptUDR6fuWV7w3n0myjTz//+c8lnSQ6d7KapjYSlmf0+EMf+tAg72TCmQd0mF7vq90ZwZOL4xAMUqeRV56cC4aPkTY7g9699+7giHEeOGT2kqgLf36l3bV8ws8XJuHB2KeNjxVZvoyy0TysOTbhkVDe3/nOd4YNlJXHvnFq+yd5yQNxBswecERhWMvt3IHMdnHApDMT0/un+XYHc3XecboanE53owyqe2pcVQaDrdFqgJsQpY8RTiNZkl46R4y4xkQx0gFUHomHv2OMpNN5kqWWw33po3CeUTx8xE8jHuNZ74nXcaqIjJ9fNU5GtEaj6niubhk8o39fZTTz4KAPoU31yeiW/jKQU8QwWiIxSs/eBrrJeIxt2pvi4750+2x32oM1drMJZLQ5T9uUD6pYpn3BkAPxzjvv3Pr7//H3Q9uFAYfCPg5G3BEeA6PCC0/P8ePotfGSr3ieOUzpG6F7K4GBRu7L9wc/+MGtV199dfjU9fDgj8/2idNU/xTZ5WU2AYbkhmEocSqWnFd9b++fTlGaancw86zjdDU43dfiVf4qIxVC4R0qZymJr2HodGpjmEuv8cRZEE/aNMaWB/4xAOK0z5OPZzp9nbY04iVuzoWe5dBJSrNE9vCQT9I7X0rSdJzWo7ULTjpgToN6Geug5Z77kSR1YsQbffFsU30yOje6fGi1wXKK8Jc/3tEd5bUfwEefcm8qfb2/C07SorF2R77oevDItTSRP/dch59zbdVRy+J+KOdJL8y9xJkKxRNffpFdXHVn46NZj/a7DYfCKTLir7yIbKFavtwnf8pQ43sOLyF+OXr/1Pvx6E70KiF9uUx7d85piBAaoQ7UwWufEjbxhRpAGswSw5v4GkUaj8LPpU2a2klUGeo5mR1kEkpTKffkKU4O8qyTI3zw7DitdxC3xUldIOnV1xxFN6JPRvKmxDkOUyQNGkb8//W/DdPn1tTVf0vydyzRJ3x9V8B0fPJo+dkwqG1Z82cQkLgcXTv+31/Ndqwrc9LsgpM8xvSdwbUngSz2LcgjGAzC/lFeMktvxA/HvCKpXZhhsNzgvhkHSwqVpA0+eNss6WNSDH/eiqjxcy6udPZK4H/nzp2hHXLWvvnNb9761a9+NWCb+ELxD4HTWB7kQ/SWTGYb4IjyzHnK7x5dgGEcHfekh236JqEyjNUXfi1dRbsj9zr5lFtZUr5W7nqNn2NJu+s4XRJOtYJyrtJVVBqayl1HKkx8caWdojQU8TWApOEpzaUTd5NGjxeedalljH/ipYFVuaL8U2XpOJ3W36FwUt/b6pNd+xwG9dmSOicz4+QtBjv2n7v73LCfQZ6eM3pV791zRJ/G5EocIafhi1/84pB1dN59JC1Dai3btwYqmSHhSDCeNf8ap55HX8fkqfEiQ+Kva3dee0QMHixQ5M+5a0sKlgfg+fTTTw97GDgIjKA8vK3CcDLk6sQ+Ehh6Fsq5slvmEN/5WN0lDeNq46B/KiWHPSnf+MY3Bkci/BJXmHLvG6fkUfsn8jjsT+DYkBGGMGqJPJwlf62OWn3AJzOgeKQcyniM7e4m9eO79E/XGafblI9iVoqiUtIoexunxq8NZgoM+TjExRNpMGnEc/zFTR5T/MVpCU8NS1qNTdopSpnJUxun+J7lqOmTpuN0OiMQjISVLhsna+KPPPLI8DZElcM5fdCZe82N02Cjmk86+yCQ+zYjMlyMlu8JMHJIx05/zAp4xvC15aQ7jISO/6HV0oQ11xonbc0GSHJYk2/JaNzrn6+vPo3szYCavo2bNuH+VLvYpt3J04wLh0E5UZVDXpwFGHpLwoyC2QhLMsoOf9h6A4JTBlMzB/A0w4KvPQhxHsJbG7Uvwv9J5BsMQ+bND5zlhY/Q33jbwwDvsX0kh8KpipU8yIbg4hVeupX+rsaHIX3jIJktUW4YvvjiizXa2TmMpOn9U+/Hz5SiOaEjl2LvKLuM0nAjR+55vs7geq5zotAtH/yqs4Af5cc/eSTPqTAN0vOpPMbSpqHFCViXVnyHUVLKrWMjZ2Ruy5cyJL54U9RxOl2nPbQ+eR3PF/joXUi9MWRG+EapnAVGm5FjnI30vEnBGErP6HtNkJNwcnIy6B2D54uD9EgnbwlEWULyYGwtLXBa6E4Mv2fkIQNDZxp/zMBxXsRlEBnZq9AnGCgjwz6GobchGEUYchg4WcqpXP4YjDFENpdyLGBuqYYzYckDhu7nGxnaDlJucWDL4Pp8dM0/cThmZi5gbUYH/6vAaRB69dP2T7DzcSx1SEcqKSN8YSieTbBmxGCoPFmeqGlyLq2j90/jdqbjdOpYHtre3Z4zipQa6RidU9hKadAajWeJX+NIqxDieG40wNCill9NV8/xkJeOYWmapJeXAw/HXOeSNClL0pK94xR07ofHiJO6YqAYs5A6Z2gYYSNe0+SME52ik9aSOQo6cB068ozR83aDkaDZBcaMoWTwdPqciJOVQ8GxkK80jIR8zCZkHbvKIR1jkg/+wJCeGVkblTMIPmetDGS+inZHfk5X9lqQUbvl0JAfBjDkcGnbZKz/7REMPfM2iI2dZmxgaDTNGcHL662whBNewZAzRwbOF+cNrsi1N0v8Jwg5zP54pl1fBU6p19o/ucdp4kTlNcrEo4fe5nHEaTUbowzq3azDEjrGdrdE7oqTMmxC6YvxcPR+fBy9y8DpNvA1Vg1cRbqWMXLt3HMVpWFWouzSodpo3U8a5+ErTnhXPnPn6Ugiy1zcqWfyjTxVzqn4uR+5pXUu7DgFnfvhMeHE+Ois4+Qx7AwMvWMIddZ0Gbln5Gt0xwjS1UocCwcD5rl0+DJq+BjhMmAcDvcsLdAPRt9rl3kNEE8YMSbyEp8uIddG6Iwog4qPGQg8fJaZvjoqHbrdkSMbEcltBExG5/YoeBYM3ePcKIeNpy2GjKLvKcBKWmWDIQxgqG58GEqenDTP8Tat/9Of/nTYL8G5MKOgrjgkZjmQvODokOaycSKDvMkBB/rk4BSov2z8JBcM7VMRFw4+JFYxpBt4wGYpiZ/+2zlZev90Eb2O0zIHbSlOZ04DBabQGi3Fp+iYOFxHGWuViC9dHA3XuUeBUQTBY1PCS74o8mzKQ/yUgaz4kde9pUR28dM5kavjdBG9Y8DJaNbSgJG7KWJhjLo6U3dIfdIpBo/BMj3ckvo2hW7DHYOV6Xo8xLdhkZFn1HzE6GQ16yAOx4UBNHOQ2QbYmJZnLDw3snSdP3liJDkoIQ6Oa8a41VX5H7LdxdkxkjfTYtScfQtpj5GTAYehmRH4mpGAh7QxYsrAObA0o35CMGAszcq8+eabg0NgdsM9y0U2YyprbXfSyif9AWxgeyz9kzIieoOUhcMEFzphtkp5KsGB0+i7GHRDmds6r/Hb82Nod61M9Vp5ojept/p86Xnquvfj84gdGqfbMlCRDpWhQQpVdCqYUrpP2d1HQvE8c6A0biG+cSacb0P4OMJnGx5JoyxRXvK63oQ6TsvQumqcGC8dtDVxnbBRXabZUwIyOkyN67AtF0wRw21q3ejRCFs7qOSeEbapZcscQk4Kngyna3lZ4jBKJh9jaPaCQ0M+cqZTxVt89y11cFa0gctsd9oGI09GMhg1GwGToxI5zeTAVxnIyBH6+te/PpRR3LQ55VMvD3q74yBxJJXTzAK9oQsczFZ34ANDDgNdMJsFJzg/6Dgp+zYEl+hU78enETwkTqfD+D/mLSMVEU+O8rp2MNxxJig6cq3TVYlxKjwTN0qfuH/MYnGAZ3VKtuWTDKVXDpRybcuz4xRU58OrwOlkNdpnaBlnI+Zq6OhUyOhZh26WoXUqEkcoDScAz2zeCx/641xHbwTJcBpVmj0wotYmGASjT06MfPBwzRmJMZZPdBE/B2fkZFUWewUuu90x/BwbRszei4ohWUOcAHHzGmXu1/CmtTvLMRwAMzT6G3UcDNP/VHzoIefCEk6cit4/VYTOn980fTpf+uVXh8TpnNNAJJnVzl6H5XBPmA4kQuWe6304C2TQacrHwSkZa2zibUr44BeZlWlb6jgtQ+4ycbKGfPfu3cHITzkC5HGYUhefwaNvc8Qp4Di8v9qIZx0+a9XS4JX08tT5m1FgTB2WKExRMwiPPvro4Fhk6SFtqeYdfmYpLAngHX1NfvQ498Tfd7uzhGKmg8wpW5Ux5xwilE2dud+GN6ndqQvOlOUJuNCdKYKL2SnObd6ykD59X++fxpG7Sfo0jsCyu4fCaVSjdUQ54izoQChzOhGho3ZaSbOsSNOx8NXYFBrPfRFeyqMcOl3X8tiWUt7wxbPjdBHNy8LJtLDPB0dHI0nVVffIw8B/4hOfOBvdJe5YKL2O3Tq7P0FqjX3ND29Erxj+LIFI89vf/naYgWjTj+VpBOqT0pwVxjl51LLEWQi+Y3w2uYe3dqecL7/88tq2J/8vfelLazEk301pd2YZ/LOlWaxQrbPoh2d0hIP28Y9//Eyn0uf1/inoXQxvkj5dLP3yO4fCaXjlck4MCq+Tc0T5a/wot+e1QdQ4m54nP+uDuxj1sXzJiKfO0Trtvvh3nMbQvnjvUDjh+/zzzw9/L61uXVdynbqmA5YLLDlYBqhxx3TYPUZc+PnPf/7chkV51PSu5SP+3/6Xvx3+hfGf/tc/DU6Kzx2brraJko7PEaNjX8ETTzxx63vf+96FPA7Z7uzR+PKXv3whz1Zebz3YxGjmZF15YHcT2p3ZhWefffZsf0IwS/9Y9cusp7dvOBp59fKm4BRctg07TsuQOwROwxch12VfFb2NW5+1nWcb95iuI2vCfchWsWj51Wf7zLPNZ9/XkTXhPvhXLFp+9dkmeTL+pnjtJ7CE4DDrE2p52clualgn3zoOSZOQsfPKoaUMexHGDGT4Z2lC+M//8s+3/vI//OXgQJjZYCTIZ3Rpc1wMRfKpoRkGsxR51TMOT+Jsi1PSz4U2bzpgOOaAJa2lGLMSZlSUKRjk+ViYOAnH4mx6r2LRpq3P9plnm0+u1bENpJw6s1MwdE5n1GGVgU5YBrL/AX7enAglXsLc3yWsWLR86rN95tnms+/ryJpwH/wrFi2/+myfebb57Ps6sibchf9to/kpkoGD0ue8xgWgacccriuoNe4m5xpYpvk1tH3wTP7KgT+ZTa+2nXHibRIGm47TPGqHxIlB5wioW+/E5+NK1SGQf3TJfRsXjeg5AozjFHlDwOZFHTz+LeHLWLy/2vNgAyG+NljiaVbBGjfZyEVORtZrnIzK1P9jyEN+77333rBEYbNcSBnS5oSuU67E2SZMuyMzWS2LnKw2Y8JHGVuyt0NZ7d0Qh/5PkfQ3od2pB3XMAaBbDptyOQVjxNHloHFgfU3zpuA0hsUm9zpOy9A6BE6TPaXMdAIxhDonjb52mumwapx9GHkNj0HnOOAnn31QABTiv4+OtuO0rGYOjdPHPvax4c2Fxx57bJg9YPRMnzPKNqXFCY209JghNz3sr5QZduTVSM84FXTE4R49HDOeaRO+V2B2QVsQj25xNFzT3xdeeGGQwf2HVl85FDdfRPRJaW9b4AUnJGR47NMw/e+tjNCh2x1HwAyHEbOPVJ2sHAczH8pCxpDrzO6YYp8yjMqSsj3o7Y7zyCn0/yGw4bza40APvWHTOqew8cz/bXBOXTsedJyiQ9uEN0mftsEnaQ6F0wWnIRllWjJGW6PXWcUp0PnlnnMdSBoEhU+8FGCTED/pHfLI9SY8xuIqG+NRyzEWb8m9jtMSlO6/CXNIfeIU+FMk+wh00pyBk5WhswRg74LRno8spdOmT+rPSJmxu3fv3mDglSi67BlHonbe0lSim/bFiJN4iYNPpddee23410uj8iyfcEzIxqgwMGQ2yg/hoSyWAV5f/YGVWUH3Dt3u5MNh4ayYMfEvluR0bRSdMpKTo0BmDkb9cFPKIBT/prQ7dWqvDMfBTBIHUegtGhipY3WtDkPwo6t0A6Xva3Uo8ZeEMJfHIdvdOjnIn7KQJdfr0q17fpP0aR0Wc88PhdN9zV3lrmJ1ghRNBfOa4wBkxBSDK3S4j8RzLZ307chuiLTBDz7hXxvYBizORQUgWYUUGf9tqeO0DLnLwslInUNwsuqQvUrJeVDPRvw2H5oedj+bH1P34rjPOXAv95Uu13P3opdVn5KuRcgfLBnBi2tEKR595BRwePAyqjejYNZCPKQtGbUyPO5dRruz70LbD4b+6prTZWOmzzmTP/KJ41n2QbTl9vwmtTtl5VipR32ielXvH/7wh4fZGvc5YV7DrRiKw1lzuF/1rsV03fVltbt1cniuHL0fX4/UdcJpcBooOiPvIDyljbPg2vPcF1ZloKAO9ylH0okTnp5vQ+RwSE+GXShyVvk25ddxWobYZeLEqBqJG+EZwXMUOAL0Bql3nbj1Ys/sJbB+bIbB8gFDyEBuSpvqk+WS7GmQZ/4/AR8jdGXwL5s2PzIqQrqKjPY5Fgxw2lnyz3XV613bHZw4Dmnr6tMyiU9dw9nGPc85Z3C2oc9bITZFZpkneEbOKl+eLQ0vU5+WyiTeWP+kjswaKK/6DqmTYAgvH+2yB8bSF4I5bOlidDdpl4bXCaelZWrj3TR9asu/9PqQOP2JTpeyyUQnQdmjuK7bzNOREN45R0FDSXoKj4f7SS8PhzibUPhLQ0b5bEPSSY/IVsuwhB+5O07rkboKnLz9kM2E8vdBJCNhU8SpZ/WvozbjwPAxbIxeRvaJt76EpzG20Sd6Z48FB8bSB8ehEtkZDo4Do2OZhXHmPIjPacj0f9oFOaRzvc92J397LoyGQ8HQrIL9Dpwe6/DKwXngsFmq8JZJaBucklZ4FfpU8193nnoQr/ZPZmtPVrNenFPYhOChLjmIMOQwwBBmZhg4h6nPpFkSXleclpStxrmp+lQxWHJ+aJwGp0Em1VmIYJTRgeIE5JlQo5EuQgpzX3ydc5yKGN3auIbIa36SL96RZU2SC4+Tp46VzEsp5ZKe/K47ThfRu0qcGCudbchrjNaMrR+PzSAwzEbFnIuM/pN2abiNPtEbexfoMIPBqYljU3WSntl0aMmFrKazzY5YfiEzOnS7IwMMvT2h/VUiP0cNhhwIhs+yj+UJ19blU55tcJLXVepTZK5lnjuf6p/gx0E0oxA8wkf5YOjtGHVq/4PZJfoA+6X0IOC0tKzipW56Pz6P2sFx0rEy7mMVIXNHGkYrqsYgnSMK3MbRWeIvHx2OaTo8nUuzhJJ/DPeSNIkjD3khsiyhpJGfUYP0HaeLyF01TnSpfZ1NXTG6dCZGuZVcHFPB9MEyxSaUMkuziT5JZ/bALIiNbxwdsx1jPMhnI6L9DmZGxLeRLgblMtodZ8zyDYNG9pbIwvBxgGz282ooA8m50Va2xUnZr3O7C07KcbKabYBFPredZ0L40F/OhT+zMluWvQ413th5sL3OOI3p1FhZcy9ldj3WZhKvhknTcaqoXDzfFKfbY84CtpQeMx2UDniOPBd3ysFIJxfHoTojcQjm+McxibMxJXPLg0wURrgkH/Ec6bjITebk57qljtP9TbOXjRN9YFSRegvpjI3yGOmpDyiZemeI1V/kTvqpUB676JM8OQoMsvVtsyH2XzC+lVKW6Ju4ymG626g+6+CHbHdmORymzpUZTpEnspLTwanxyqupdp/KJtcuOF33dpf6syTG8VPHnED6OoYhPD23BPXd73438F4Ig3fvny72wxWsjtNh7d3w19gVcOdAT6Pn1bWK3sbX6To0CunG0uBRD4pf468z6viTi0Ewc7FOppRDHng75ghvcR1I/JRrKq+O09XixPhaHw6pjxBDZhbB9D6dbIkxtFxwmfpkxMmw2klPJo6APQFG9KGUodU510aj1sTjNEQ/azsaS+dejqXtjhz2KJg9cA6nljeZ8SMHYiT/97+cbiq9qe2u1TX1pX7pIQxbaut7DGNpxOv9U+/HW/2p19GRQ9u7i73pSgodAQEocDqEKtzYOUHTITmfUn7389x50gjdl99YWvcDirjijMWLbIkrzhRPccWLDLXMkTH8xkLpapqxOO09fJPfXB7kznPnSSN0f6pMNwknxtcIDT45Uh828nlN0VKFey35sJL1dx0xTJO+jZdrPMQVbwp7ccVLXUUW8dWZWav3VzvmOTOe2UxoeUUZktZ9VOWRVjqOkE2KljhCniU/59KNkft57jxphO63ZXLP8o5lFDMd4oV3QrKmjL6EyQH683/352cDh5ZnlUu6yBAewSn8a/x6Ll1NU59NnStP8gsOY3HlnefOk0bo/lSZ3CcTSig9PfQ6pb0LkbnGyT3p7Qtpp949jww1bmQcMpz4ka6mmYh27ja+yW8uj11xusx2R9Y56jid9k9LcRp1GtI5zilNWwlRoiic6zkhNJI0NN65PBEld38sffKo8rVy5DqNTRnwaynPyRul0WA3KXOVY66sNe+UoeNUUbl4vgQnfwzUknRGdgzeQ6u19rGvFNIHU/3qGtV6bPnlOvqyqz4xrN6IMFvmbQhr2lX35RddIqclDRsh7a2x+dA3E8xWhJbglLhCPB3KM9XuxLOXgVNjJscyhfgosg0Xqx/lsORi5sbGPrKaccj3BhIvYXB8UNtdsFVeM0Lq27IDPWyxg4V73rCwVGUmqupCMOr9032HLXqU8EHXJ/3NZfZPwXUsjBwX3oGMgqYzGks8dU+DUcjwmIpX78uHsdb5IB2ZY4xH+EdRhGMkLR54SyOs5DkAcoijkxtbVqnp6nnk6zhVVC6eHwonX4HMfoaaK/3zPw0Ml82OdKTVEyN+n4++Cn0im1kDBsIsAx1siVycBfsXfEzJSN+rmIz4449/9EJ5Uo5g3fIbu55rd+J7s4ShM7uB0oaCpbbiK5G/+c1vhrZjT4OpeO1YmciUNAOD1c9NaXfKq/w2NtoYyjkMbsHCNQwtW3j1l6ObmbObghMM5nTWs96P3/+kQatD0aXLxuncTIPMjWjSCUWopWEMKD46DtdtxzHGK/F05oChKORgAGLIw0cYx0QenrcUHjowZQm577C2SEZ8xEn+ibcu7DitQ+j0+SFxunv37qgQpsmNkv29s7pWt6l3umIGgiE2OkaXrU+WJt782Zu3/uarfzMY2RSCjMjo1KiTnJyej3zkI4PhzpcrjeZtrjOCDbVlWKrPide2OziZVvdBrOrUJB/T6IydZxwfe0uQexwc8W5yu1N+dah/8entluBraczsjDbi9VozTmYc9Ee9fzpFTJtgC3o/fn/J6Bjs3ZnToIIosJCy10bfKv3cdTqWbJwaK+RUemmRTowMOqU4Mfh4Hv5kzVH5SeOoZUjZ3JdG2ZJH8qw85s7Dq+M0h9L9tf1D4EQnnnzyyQsC0BEjefsYsk9AJLrAkTAy5lQwbvTgqvTpD//4hwtvTNBHo3vGxiyJZQEjfTrLmHgTJB+G8opedRqUMe1iH+1OXs8888ywURNvpM1weBg6IefAfofkRx4yuJe+I23lJrU7WJk1sO/EcpKyh+DCGVPH4tBTdcowegZ3mMGx90+9H7+q/in6Kkwbrv34OaeBgutgCbstSasBCJNhOpElPJN35NC5k0vnhE/uC913JI38kmdmEKTXKN0Xj2HBZxOZqtz4dJwqIuPnh8QpxrPmrG4ZXaHn8kc6Z86C6X5vK1jS+P73v3+l+kQe+ouERp1mEpwzxqa06XtIuVxbklEum+qMTI34Q8pNp4XixDnO83WhdIgMzrOB1Hkw5HBxZPwXhn0OSF4MIWfN7A4HR5qb2u7gEQfPBkjX6oX+cRY4XO7bbxPHVhxOLeycp48aAN7wR/reP60HreO0HiMxxnAanAYPNHKUEf1wseWPToOnzFijbQ20dOkIyecga+67jtOQwsk7+cVZiAzup7MeBNvwp+O0DLBD42Rjmbcf8oVEUtFbmxuN7hhY1wyZw1sU+QgUZzL7Ga5Knxh7693WsIV0kpEmp30B8Asx2DZO+ogSfabff/pv/nRYOnjjjTcSbQj31e44LrAhl1kZxs4ShKURjlfatUzhbJZBGg4Fw+d54qSt3pR2Bw+OgbqFoWsYcvzyFUgYRvdgCCOOo/0jcEv/5dkmdOh2t61c0QH6qdwpe+677v34qR7A5NhxGqx6Ki2VuImijsVVaJ0ERYiS4L0t4SU9fjk0kDSSGopb85anhuvertRxWobgIXEyOnvqqacGQfxBkmv65n8ajH4ZXvsCbCJkcB955JHBmJEJ/exnPxs2FNKZ6JLwMvWJvD/5yU8GQ8HJMerk6JChEp1nkJXL/oaQsjz++ONDWfAK7avdwcPsgb0feOZ/L4Kh/MjqmdkHbcuyhOfuJ7yJ7c6MghkhjgHnwZcy0Qc/+MGhDmt9DQ9WP7DmVLR7SPJ8aQh3ddf78XnEOk7z+OTpFE6380Bj34dhTYbCGG/es5mHXQm/1nkgP9nTidXzdFoaqvu7kPQxLh2naSQPjZOlB2Tz2FtvvTV88Eie3kbwhoE3E0z/GxlzGOo0v3R2+0cXrlKfyPHCCy8MTg65xogxUS7liMyJl78Dt6zR0q7tjiPAYbBMYoYmswbJJ7JoizZsmm43Snbf4b72fhPbnZkifZKZMLNcNq3anwLDikecB30UnYVhXm0NvsF7SShN75/WI9VxWo+RGHM43c4IR0cTRV7Gdn2sdF4aUTqefeURPgrnQMLclzeS9z6oNsjksQ++eHScliEJd9P0DJQOWXjv3r2h3i1V2KRnE6ERW3b0V85mHsxIqMuWUqeXpU+m8a1j25uQvKtMllHMpPgTqOwfqM+Vzx6COadh23bHkOGdNfmabz0nP0yznOFZynKT2x1Hj/Nw586dYZZrrH8KVpZ+OFj2iYgHtzH9rLiPnff+aQyVi/c6ThcxGbszh9PZRsg09jEG9V4awNL4iSed86SvPDc9Dw9hzsd4zD0biz91r/JJeabi5n7SLI2feNJ1nILi+TDfXmDUjMK9NmnTGdLxUnTT+Kb0HS1xNOwnSN3kea6FOc+zGs49q/HWnYfPq6++OrwFkrqv6Uxz2yNgpDomVzYkWm7hYLQUntJuqk/whZWjpSqLvRbe5DAVX6nGqfc3PccnlPLkeipMmqXxE0+6TXEak4EeWh5zmG0YI/k4DBa8ZWH/gzeC0DbYpczSpzzO5yhplsZPvH3hRLbIIMz5mMxzz8biT92rfFKeqbi5nzRL4yeedM6TPvy2CcNDmPMxPnPPxuJP3at8Up4a91+tRhP/L7MAFN7U4hxlZkLHsi5uRjqEEH9fFG+c3M5TSAV0kEuDlOdYobeVo+O0DLlD4cQpYKB0sHRVHTuQZ/GOp6SkDz6Q1OrEVemT/RgcobF2R4e1tWBZ253RvVkWHySzbj5WHum2bXdkihGrWMLJgbdQvuLKxzmZlcWmvtRLTb/teTAYw6nlWXG6iv6JDqpXMgendf1TMFQWzvCYE9iWc+z6OuFE/qtqdx2nMe25eG8Kp9saN6WOgq9raBdZT99JJ1479+nY65+k00onha/Oyv3cI3+97zrH+hzmY3Sc5vHJ00PhpJ4ZSqO4fTihV61PligYQmVZV57WGHIcpmjXdpeRcvgHp7Szek2OOAxpd9LRgZvY7pQZfspfcXLd4pRryzzS7UqHane76lNbruASTKI30a/gUu9HlzpOV2/v/vXKy/3PqVTKsa5SokDiqdwpogAcEXHWdYhTPHI/Soaf/FHlSRYKSMkcroXiJr7n+yI8O07r0ew4rcdIjI5Tx6n3T6evHPZ+/HQGJvYz9uuY7N2wpyFGl6CEjIe3rClfjKXi4zDswguf8BIiIzOOSJ6R3UF2eaGci5syCcWLPHMOz8Bk5KfjNALKyK2O0wgoI7c6TiOgjNzqOI2AMnKr4zQCysitjtMIKCO3pnA6e7VABAbVNCgDuwtJz2nA07ENxVmw3ocf2az1xejHKeGBxQFIGVxzfoTicx6E7tnVLIwTsqlsyaPjNI9cx2kenzztOAWJ+bDjNI9PnnacgsR82HGaxydPx3A69/YEI+vIqNz5piQto8yYy3BTHtKHh7zxiaMQXp4j147qAMjT8zgtNa244U1Gz/J8YLjgJ3mG1zZllE3k6DjNg95xmscnTztOQWI+7DjN45OnHacgMR/eRJzOnAbQMICMGIMawz8P2fmnWTIApNE9fktJWnlK65xRlr416p5llqF9Jq+ka426a/HxTD4Jx/KZk1v8jtMcQqfPOk7LnO6OU8ep90/ndaD346d96DHau3NOQxQ3xjTGe715OF9AnaBjCcmDo5BDmnSi5KkkLtlQHID6POfSc1o4F/i6Di8hg+9+yinEW7waN/zasOPUcer61LaK03bb213vn/StSF+qr01bicb0fvx627tzToNKrQaR0dUJLKEoAoWx96BVlJaH+I5qvCnYnDOQuDHuLc9cy1scxCFw3coTHngqpz0K8k7+Y2nCX+i5uPh3nM47dx2nrk+93U0PmvQdvX9a/x8ZHafTgW1sVe1X6/ml41QzzzljyJjmiILn+VgoLicgRncsTu5VB0M6aTgnCu8YozgYQvJMxUtazzkhnAEd2FQZ3Je3uIy/I2mFU+nk03E6xbjjFK27P9ru+tTb3X2tuHiWPqb3T+P9fRDrOB2fvfv/xWHXJiluRLEAAAAASUVORK5CYII=;" parent="1" vertex="1">
                    <mxGeometry x="493.59" y="310" width="255.06" height="120" as="geometry"/>
                </mxCell>
            </root>
        </mxGraphModel>
    </diagram>
</mxfile>
